{"glyphs":{"0":{"ha":822,"x_min":38,"x_max":801,"o":"m 575 1100 q 618 1108 603 1108 q 654 1096 642 1108 q 801 721 801 950 q 767 494 801 610 q 674 274 732 378 q 600 164 643 219 q 601 160 600 163 q 603 157 603 158 q 604 146 604 153 q 577 101 604 121 q 517 76 550 81 q 294 -24 404 -24 q 188 1 242 -24 q 72 124 106 40 q 38 315 38 208 q 42 393 38 356 q 85 600 51 489 q 171 810 118 711 q 96 968 128 906 q 93 981 93 976 q 128 1026 93 1006 q 200 1047 164 1047 q 246 1025 233 1047 l 276 963 q 415 1067 339 1031 q 575 1100 490 1104 m 313 90 q 335 88 319 88 q 436 140 381 88 q 242 650 342 414 q 186 360 186 490 q 201 232 186 297 q 313 90 238 110 m 549 311 q 625 500 597 401 q 653 692 653 599 q 546 997 653 872 q 519 1000 526 1000 q 416 957 464 1000 q 331 846 368 914 q 549 311 457 565 z "},"1":{"ha":611,"x_min":32,"x_max":574,"o":"m 529 99 q 561 92 549 100 q 574 67 574 83 q 572 54 574 58 q 541 22 567 33 q 488 7 515 10 q 275 -3 389 -3 q 63 4 181 -3 q 32 24 32 6 q 66 69 32 43 q 125 94 100 94 q 240 93 164 93 q 281 343 263 236 q 311 522 299 450 l 344 719 l 333 701 q 292 665 318 679 q 240 651 267 650 q 205 660 222 651 q 188 682 188 668 q 193 697 188 686 q 401 1079 294 858 q 444 1112 410 1096 q 506 1128 478 1128 q 540 1093 546 1128 q 428 386 490 813 l 383 96 q 529 99 432 96 z "},"2":{"ha":903,"x_min":24,"x_max":883,"o":"m 318 222 q 219 118 236 136 q 446 125 313 125 q 718 115 592 125 q 753 138 731 129 q 799 147 776 147 q 847 125 833 147 l 878 81 q 883 65 883 69 q 866 34 883 49 q 826 11 849 19 q 790 4 803 3 q 400 22 585 22 q 96 7 232 22 q 47 14 71 4 q 24 43 24 24 q 33 69 24 56 q 182 235 83 139 q 214 268 196 250 q 253 308 232 286 q 575 681 460 529 l 594 707 q 686 838 649 776 q 724 951 724 900 q 715 992 724 974 q 678 1024 704 1014 q 621 1035 653 1035 q 551 1024 581 1035 q 447 947 492 1001 q 347 804 401 893 q 326 772 336 789 q 306 740 317 756 q 266 718 296 728 q 208 708 236 708 q 165 729 165 708 q 171 746 165 736 q 306 943 243 863 q 456 1078 369 1024 q 651 1133 543 1133 q 708 1129 679 1133 q 856 993 856 1108 q 803 824 856 917 q 681 638 751 732 q 378 283 561 481 l 318 222 z "},"3":{"ha":833,"x_min":-67,"x_max":814,"o":"m 525 700 q 761 588 682 686 q 814 438 814 524 q 790 319 814 379 q 728 206 767 260 q 543 40 651 103 q 315 -22 435 -22 q 282 -21 293 -22 q 63 69 154 -11 q -58 276 -29 150 q -32 329 -67 306 q 39 353 3 353 q 82 328 76 353 q 163 168 106 235 q 310 83 221 101 q 358 79 335 79 q 504 126 436 79 q 622 249 572 174 q 674 404 674 328 q 625 529 674 479 q 413 606 554 606 q 306 597 357 606 q 268 588 293 593 q 242 583 253 583 q 210 599 218 583 q 208 619 203 607 q 224 651 211 636 q 257 675 238 667 l 310 697 q 478 778 417 744 q 540 813 486 783 q 632 878 593 842 q 669 947 671 915 q 585 1007 668 1007 q 445 981 528 1007 q 289 920 363 954 q 190 868 215 886 q 115 840 150 840 q 94 844 106 840 q 69 872 69 854 q 82 896 69 883 q 461 1078 201 1013 q 624 1100 544 1100 q 797 1018 758 1100 q 807 974 807 997 q 749 860 807 914 q 615 757 692 806 q 525 700 568 725 z "},"4":{"ha":778,"x_min":29,"x_max":735,"o":"m 583 1038 q 622 1081 586 1063 q 690 1100 657 1100 q 731 1069 735 1100 q 669 535 707 821 l 697 531 q 728 499 728 526 q 719 471 728 486 q 656 436 703 444 q 601 56 631 249 q 562 10 597 29 q 492 -8 526 -8 q 460 0 471 -8 q 451 25 449 8 q 511 444 475 185 q 311 454 444 449 q 78 467 194 458 q 42 478 56 468 q 29 503 29 488 q 50 542 29 521 q 299 774 113 597 q 583 1038 458 929 m 224 563 q 343 557 265 560 q 525 547 461 551 q 568 892 542 676 l 439 768 q 224 563 322 654 z "},"5":{"ha":750,"x_min":31,"x_max":767,"o":"m 639 1014 q 667 1051 639 1035 q 724 1068 694 1068 q 751 1060 740 1068 q 764 1038 763 1053 q 697 931 767 967 q 522 896 628 896 q 313 933 407 896 q 239 581 283 804 q 354 593 296 593 q 549 550 464 593 q 640 469 608 519 q 672 358 672 418 q 631 226 672 289 q 538 142 601 182 q 395 79 474 103 q 244 56 317 56 q 89 103 147 56 q 36 251 31 150 q 68 292 38 275 q 131 310 99 310 q 160 302 149 310 q 171 278 172 294 q 208 180 168 213 q 313 147 249 147 q 438 178 376 147 q 524 256 499 208 q 546 339 546 300 q 467 459 546 417 q 288 501 389 501 q 163 479 218 501 q 128 472 147 472 q 98 481 110 472 q 86 500 86 489 q 99 525 86 513 q 208 1025 154 803 q 246 1063 214 1047 q 307 1078 278 1078 q 339 1051 344 1078 q 394 1013 354 1025 q 492 994 435 1001 q 561 989 536 989 q 603 992 589 989 q 622 994 610 993 q 636 999 633 994 q 639 1014 639 1003 z "},"6":{"ha":764,"x_min":53,"x_max":689,"o":"m 558 581 q 648 510 614 563 q 685 394 682 457 q 651 260 689 325 q 550 146 613 196 q 403 58 490 97 q 240 19 315 19 q 88 100 136 19 q 53 244 53 160 q 73 393 53 317 q 126 556 93 469 q 304 863 192 728 q 569 1075 417 999 q 618 1086 590 1086 q 652 1079 639 1086 q 665 1060 665 1072 q 631 1019 665 1040 q 257 547 371 864 q 238 492 246 519 q 483 593 368 593 q 558 581 521 593 m 424 168 q 510 251 478 201 q 543 356 543 300 q 528 428 543 393 q 443 494 499 494 q 319 435 388 494 q 197 308 250 376 q 196 281 196 299 q 222 165 196 217 q 297 121 246 121 q 424 168 354 121 z "},"7":{"ha":736,"x_min":7,"x_max":807,"o":"m 746 1101 q 767 1104 760 1104 q 796 1096 785 1104 q 807 1075 807 1088 q 793 1047 807 1060 q 790 1039 793 1044 q 538 525 685 835 l 607 529 q 654 504 654 531 q 630 462 654 485 q 579 435 606 439 q 545 429 560 431 q 521 426 531 428 l 490 422 q 406 240 454 346 q 332 76 358 135 q 308 22 325 58 q 267 -13 300 1 q 204 -28 235 -28 q 173 -21 185 -28 q 161 0 161 -14 q 165 17 161 7 q 342 413 238 190 q 196 407 293 410 q 160 415 175 406 q 144 442 144 425 q 147 456 144 444 q 185 493 156 479 q 242 508 214 507 l 392 517 q 624 978 490 724 q 356 926 496 940 q 53 914 215 913 q 7 938 7 914 q 40 983 7 958 q 103 1007 72 1007 q 399 1032 254 1008 q 746 1101 543 1056 z "},"8":{"ha":708,"x_min":-1,"x_max":828,"o":"m 711 1076 q 778 1096 735 1096 q 814 1090 800 1096 q 828 1071 828 1083 q 806 1035 828 1056 l 764 996 q 751 959 774 979 q 696 931 729 939 q 469 692 578 817 q 569 597 532 639 q 618 501 606 556 q 626 435 626 468 q 583 258 626 349 q 490 137 551 193 q 352 47 429 81 q 200 14 275 14 q 100 32 146 14 q -1 160 -1 69 q 38 291 -1 222 q 140 449 76 360 l 157 472 q 294 653 217 556 q 228 724 253 690 q 200 794 204 757 q 226 891 196 843 q 303 979 257 939 q 433 1061 360 1029 q 578 1093 507 1093 q 694 1063 643 1093 l 711 1076 m 410 199 q 463 288 444 238 q 482 388 482 338 q 425 542 482 479 q 382 583 411 560 q 289 461 336 526 q 257 419 279 447 q 190 327 214 364 q 153 251 165 290 q 143 200 143 224 q 169 144 143 163 q 235 125 194 125 q 333 147 282 125 q 410 199 383 168 m 389 765 q 596 976 496 886 q 532 997 569 997 q 463 981 499 997 q 399 936 428 964 q 349 847 349 888 q 389 765 349 810 z "},"9":{"ha":792,"x_min":29,"x_max":743,"o":"m 722 1089 q 743 814 743 936 q 721 557 743 682 q 653 302 694 418 q 542 100 611 186 q 431 10 496 44 q 299 -24 367 -24 q 238 -17 264 -24 q 103 75 156 4 q 35 238 51 146 q 65 292 29 267 q 139 317 101 317 q 167 310 156 317 q 179 292 178 304 q 230 155 194 217 q 326 81 265 93 q 343 79 332 79 q 415 117 383 79 q 465 193 447 154 q 508 299 482 232 q 597 733 589 503 q 476 617 543 661 q 340 574 408 574 q 211 622 268 574 q 146 754 146 678 q 176 864 146 808 q 254 964 206 919 q 401 1059 318 1024 q 568 1094 485 1094 q 617 1092 600 1094 q 685 1111 649 1111 q 722 1089 721 1111 m 340 694 q 382 681 360 681 q 462 733 424 681 q 524 856 500 785 q 547 975 547 926 q 546 997 547 990 q 428 970 490 1000 q 326 891 367 940 q 285 792 285 842 q 340 694 285 736 z "},"\u0000":{"ha":0,"x_min":0,"x_max":0,"o":""},"\r":{"ha":383,"x_min":0,"x_max":0,"o":""}," ":{"ha":383,"x_min":0,"x_max":0,"o":""},"A":{"ha":879,"x_min":-126,"x_max":751,"o":"m 331 561 q 510 575 428 575 l 496 899 q 401 707 463 839 q 331 561 349 594 m 746 64 q 735 24 751 43 q 690 -6 718 6 q 636 -18 661 -18 q 590 7 596 -18 q 517 479 540 206 q 268 456 392 481 q 25 54 138 238 q -22 22 14 35 q -87 8 -57 8 q -126 29 -126 8 q -121 47 -126 38 q 85 403 -10 242 l 61 394 q 21 386 39 386 q -8 394 3 386 q -18 415 -18 403 q -5 444 -18 429 q 33 469 8 458 q 150 515 99 499 q 310 808 225 644 q 474 1101 407 996 q 485 1113 478 1107 l 483 1119 q 519 1165 483 1144 q 590 1185 554 1185 q 636 1151 635 1185 l 640 1058 q 673 495 653 724 q 746 64 693 267 z "},"Á":{"ha":833,"x_min":-126,"x_max":747,"o":"m 331 561 q 510 575 428 575 l 496 899 q 401 707 463 839 q 331 561 349 594 m 746 64 q 735 24 751 43 q 690 -6 718 6 q 636 -18 661 -18 q 590 7 596 -18 q 517 479 540 206 q 268 456 392 481 q 25 54 138 238 q -22 22 14 35 q -87 8 -57 8 q -126 29 -126 8 q -121 47 -126 38 q 85 403 -10 242 l 61 394 q 21 386 39 386 q -8 394 3 386 q -18 415 -18 403 q -5 444 -18 429 q 33 469 8 458 q 150 515 99 499 q 310 808 225 644 q 474 1101 407 996 q 485 1113 478 1107 l 483 1119 q 519 1165 483 1144 q 590 1185 554 1185 q 636 1151 635 1185 l 640 1058 q 673 495 653 724 q 746 64 693 267 m 417 1271 q 399 1293 399 1279 q 422 1332 399 1311 q 565 1463 492 1397 q 598 1481 578 1474 q 636 1489 618 1489 q 664 1483 653 1489 q 682 1460 682 1475 q 660 1421 682 1440 q 517 1292 610 1374 q 484 1273 504 1281 q 444 1265 464 1265 q 417 1271 428 1265 z "},"Ă":{"ha":833,"x_min":-126,"x_max":781,"o":"m 331 561 q 510 575 428 575 l 496 899 q 401 707 463 839 q 331 561 349 594 m 746 64 q 735 24 751 43 q 690 -6 718 6 q 636 -18 661 -18 q 590 7 596 -18 q 517 479 540 206 q 268 456 392 481 q 25 54 138 238 q -22 22 14 35 q -87 8 -57 8 q -126 29 -126 8 q -121 47 -126 38 q 85 403 -10 242 l 61 394 q 21 386 39 386 q -8 394 3 386 q -18 415 -18 403 q -5 444 -18 429 q 33 469 8 458 q 150 515 99 499 q 310 808 225 644 q 474 1101 407 996 q 485 1113 478 1107 l 483 1119 q 519 1165 483 1144 q 590 1185 554 1185 q 636 1151 635 1185 l 640 1058 q 673 495 653 724 q 746 64 693 267 m 639 1614 q 670 1649 643 1635 q 726 1663 697 1663 q 767 1651 751 1663 q 781 1619 783 1640 q 732 1520 772 1564 q 635 1453 692 1476 q 519 1429 578 1429 q 394 1469 446 1429 q 336 1586 343 1508 q 364 1627 335 1611 q 428 1643 393 1643 q 464 1636 450 1643 q 479 1614 478 1629 q 505 1547 483 1578 q 561 1517 526 1515 q 612 1549 592 1518 q 639 1614 632 1581 z "},"Â":{"ha":833,"x_min":-126,"x_max":832,"o":"m 331 561 q 510 575 428 575 l 496 899 q 401 707 463 839 q 331 561 349 594 m 746 64 q 735 24 751 43 q 690 -6 718 6 q 636 -18 661 -18 q 590 7 596 -18 q 517 479 540 206 q 268 456 392 481 q 25 54 138 238 q -22 22 14 35 q -87 8 -57 8 q -126 29 -126 8 q -121 47 -126 38 q 85 403 -10 242 l 61 394 q 21 386 39 386 q -8 394 3 386 q -18 415 -18 403 q -5 444 -18 429 q 33 469 8 458 q 150 515 99 499 q 310 808 225 644 q 474 1101 407 996 q 485 1113 478 1107 l 483 1119 q 519 1165 483 1144 q 590 1185 554 1185 q 636 1151 635 1185 l 640 1058 q 673 495 653 724 q 746 64 693 267 m 551 1569 q 590 1596 564 1583 q 639 1608 617 1608 q 674 1593 663 1608 l 825 1390 q 832 1371 832 1379 q 799 1328 832 1347 q 735 1308 767 1308 q 700 1321 708 1308 q 593 1464 628 1415 l 501 1367 q 464 1340 486 1350 q 419 1329 442 1329 q 403 1331 408 1329 q 372 1361 372 1338 q 382 1385 372 1374 q 551 1569 438 1447 z "},"Ä":{"ha":833,"x_min":-126,"x_max":807,"o":"m 331 561 q 510 575 428 575 l 496 899 q 401 707 463 839 q 331 561 349 594 m 746 64 q 735 24 751 43 q 690 -6 718 6 q 636 -18 661 -18 q 590 7 596 -18 q 517 479 540 206 q 268 456 392 481 q 25 54 138 238 q -22 22 14 35 q -87 8 -57 8 q -126 29 -126 8 q -121 47 -126 38 q 85 403 -10 242 l 61 394 q 21 386 39 386 q -8 394 3 386 q -18 415 -18 403 q -5 444 -18 429 q 33 469 8 458 q 150 515 99 499 q 310 808 225 644 q 474 1101 407 996 q 485 1113 478 1107 l 483 1119 q 519 1165 483 1144 q 590 1185 554 1185 q 636 1151 635 1185 l 640 1058 q 673 495 653 724 q 746 64 693 267 m 433 1399 q 406 1426 411 1408 q 403 1443 403 1438 q 408 1468 403 1451 q 444 1504 418 1488 q 490 1519 467 1517 l 501 1519 q 533 1515 517 1519 q 544 1507 539 1514 q 550 1493 549 1500 q 549 1481 550 1485 q 549 1480 549 1481 q 550 1479 549 1479 q 563 1457 563 1471 q 540 1421 563 1436 q 464 1392 497 1392 q 433 1399 450 1392 m 801 1485 q 807 1472 804 1481 q 788 1426 808 1450 q 748 1403 771 1411 q 701 1394 725 1394 q 647 1413 669 1392 q 631 1451 633 1426 q 642 1476 631 1464 q 668 1497 654 1489 l 693 1510 q 719 1524 697 1513 q 742 1529 728 1526 q 761 1531 747 1531 q 801 1514 792 1531 q 806 1500 806 1508 q 801 1485 806 1493 z "},"À":{"ha":833,"x_min":-126,"x_max":771,"o":"m 331 561 q 510 575 428 575 l 496 899 q 401 707 463 839 q 331 561 349 594 m 746 64 q 735 24 751 43 q 690 -6 718 6 q 636 -18 661 -18 q 590 7 596 -18 q 517 479 540 206 q 268 456 392 481 q 25 54 138 238 q -22 22 14 35 q -87 8 -57 8 q -126 29 -126 8 q -121 47 -126 38 q 85 403 -10 242 l 61 394 q 21 386 39 386 q -8 394 3 386 q -18 415 -18 403 q -5 444 -18 429 q 33 469 8 458 q 150 515 99 499 q 310 808 225 644 q 474 1101 407 996 q 485 1113 478 1107 l 483 1119 q 519 1165 483 1144 q 590 1185 554 1185 q 636 1151 635 1185 l 640 1058 q 673 495 653 724 q 746 64 693 267 m 456 1540 q 447 1563 447 1551 q 481 1609 447 1588 q 550 1631 515 1631 q 589 1615 578 1631 q 650 1540 631 1565 l 763 1404 q 771 1383 771 1394 q 736 1336 771 1358 q 667 1314 701 1314 q 628 1329 640 1314 l 456 1540 z "},"Ā":{"ha":833,"x_min":-126,"x_max":817,"o":"m 331 561 q 510 575 428 575 l 496 899 q 401 707 463 839 q 331 561 349 594 m 746 64 q 735 24 751 43 q 690 -6 718 6 q 636 -18 661 -18 q 590 7 596 -18 q 517 479 540 206 q 268 456 392 481 q 25 54 138 238 q -22 22 14 35 q -87 8 -57 8 q -126 29 -126 8 q -121 47 -126 38 q 85 403 -10 242 l 61 394 q 21 386 39 386 q -8 394 3 386 q -18 415 -18 403 q -5 444 -18 429 q 33 469 8 458 q 150 515 99 499 q 310 808 225 644 q 474 1101 407 996 q 485 1113 478 1107 l 483 1119 q 519 1165 483 1144 q 590 1185 554 1185 q 636 1151 635 1185 l 640 1058 q 673 495 653 724 q 746 64 693 267 m 443 1400 q 418 1407 426 1400 q 410 1426 410 1414 q 417 1450 410 1436 q 456 1483 431 1471 q 508 1497 482 1496 l 692 1499 q 783 1497 753 1499 q 808 1490 799 1497 q 817 1469 817 1482 q 808 1446 817 1458 q 770 1413 796 1425 q 718 1399 744 1400 l 638 1399 q 443 1400 508 1399 z "},"Ą":{"ha":833,"x_min":-126,"x_max":751,"o":"m 331 561 q 510 575 428 575 l 496 899 q 401 707 463 839 q 331 561 349 594 m 746 64 q 735 24 751 43 q 690 -6 718 6 q 636 -18 661 -18 q 590 7 596 -18 q 517 479 540 206 q 268 456 392 481 q 25 54 138 238 q -22 22 14 35 q -87 8 -57 8 q -126 29 -126 8 q -121 47 -126 38 q 85 403 -10 242 l 61 394 q 21 386 39 386 q -8 394 3 386 q -18 415 -18 403 q -5 444 -18 429 q 33 469 8 458 q 150 515 99 499 q 310 808 225 644 q 474 1101 407 996 q 485 1113 478 1107 l 483 1119 q 519 1165 483 1144 q 590 1185 554 1185 q 636 1151 635 1185 l 640 1058 q 673 495 653 724 q 746 64 693 267 m 718 -107 q 736 -118 729 -110 q 743 -136 743 -126 q 732 -160 743 -149 q 657 -210 699 -193 q 569 -225 615 -228 q 506 -207 535 -222 q 461 -162 476 -192 q 451 -122 451 -144 q 485 -33 451 -76 q 551 22 511 1 q 638 44 592 42 q 669 39 654 47 q 683 17 683 31 q 681 4 683 13 q 608 -40 664 -32 q 594 -61 599 -51 q 588 -90 588 -75 q 592 -110 588 -101 q 624 -132 603 -128 l 626 -132 l 629 -129 q 660 -111 642 -118 q 696 -104 678 -104 q 718 -107 704 -104 m 610 -40 q 613 -37 614 -39 l 610 -40 z "},"Å":{"ha":833,"x_min":-126,"x_max":774,"o":"m 331 561 q 510 575 428 575 l 496 899 q 401 707 463 839 q 331 561 349 594 m 746 64 q 735 24 751 43 q 690 -6 718 6 q 636 -18 661 -18 q 590 7 596 -18 q 517 479 540 206 q 268 456 392 481 q 25 54 138 238 q -22 22 14 35 q -87 8 -57 8 q -126 29 -126 8 q -121 47 -126 38 q 85 403 -10 242 l 61 394 q 21 386 39 386 q -8 394 3 386 q -18 415 -18 403 q -5 444 -18 429 q 33 469 8 458 q 150 515 99 499 q 310 808 225 644 q 474 1101 407 996 q 485 1113 478 1107 l 483 1119 q 519 1165 483 1144 q 590 1185 554 1185 q 636 1151 635 1185 l 640 1058 q 673 495 653 724 q 746 64 693 267 m 679 1622 q 748 1572 722 1608 q 774 1490 774 1535 q 765 1444 774 1468 q 689 1358 746 1392 q 574 1324 632 1324 q 490 1348 525 1322 q 454 1418 454 1374 q 457 1442 454 1425 q 494 1513 465 1482 q 561 1560 522 1544 q 567 1583 560 1571 q 583 1603 574 1594 q 651 1626 614 1626 q 679 1622 664 1626 m 615 1415 q 632 1436 626 1417 q 636 1472 638 1456 q 629 1494 635 1481 q 601 1486 617 1489 l 596 1478 q 590 1456 590 1468 q 592 1444 590 1449 q 601 1426 593 1436 q 615 1415 610 1415 z "},"Ǻ":{"ha":833,"x_min":-126,"x_max":758,"o":"m 331 561 q 510 575 428 575 l 496 899 q 401 707 463 839 q 331 561 349 594 m 746 64 q 735 24 751 43 q 690 -6 718 6 q 636 -18 661 -18 q 590 7 596 -18 q 517 479 540 206 q 268 456 392 481 q 25 54 138 238 q -22 22 14 35 q -87 8 -57 8 q -126 29 -126 8 q -121 47 -126 38 q 85 403 -10 242 l 61 394 q 21 386 39 386 q -8 394 3 386 q -18 415 -18 403 q -5 444 -18 429 q 33 469 8 458 q 150 515 99 499 q 310 808 225 644 q 474 1101 407 996 q 485 1113 478 1107 l 483 1119 q 519 1165 483 1144 q 590 1185 554 1185 q 636 1151 635 1185 l 640 1058 q 673 495 653 724 q 746 64 693 267 m 660 1568 q 728 1517 703 1554 q 754 1436 754 1481 q 746 1390 754 1414 q 669 1303 726 1338 q 554 1269 613 1269 q 470 1294 506 1268 q 435 1364 435 1319 q 438 1388 435 1371 q 474 1459 446 1428 q 542 1506 503 1490 q 547 1528 540 1517 q 564 1549 554 1540 q 632 1572 594 1572 q 660 1568 644 1572 m 596 1361 q 613 1382 607 1363 q 617 1418 618 1401 q 610 1440 615 1426 q 582 1432 597 1435 l 576 1424 q 571 1401 571 1414 q 572 1390 571 1394 q 582 1372 574 1382 q 596 1361 590 1361 m 493 1624 q 475 1646 475 1632 q 499 1685 475 1664 q 642 1815 568 1750 q 674 1834 654 1826 q 713 1842 694 1842 q 740 1836 729 1842 q 758 1813 758 1828 q 736 1774 758 1793 q 593 1644 686 1726 q 560 1626 581 1633 q 521 1618 540 1618 q 493 1624 504 1618 z "},"Ã":{"ha":879,"x_min":-126,"x_max":804,"o":"m 331 561 q 510 575 428 575 l 496 899 q 401 707 463 839 q 331 561 349 594 m 746 64 q 735 24 751 43 q 690 -6 718 6 q 636 -18 661 -18 q 590 7 596 -18 q 517 479 540 206 q 268 456 392 481 q 25 54 138 238 q -22 22 14 35 q -87 8 -57 8 q -126 29 -126 8 q -121 47 -126 38 q 85 403 -10 242 l 61 394 q 21 386 39 386 q -8 394 3 386 q -18 415 -18 403 q -5 444 -18 429 q 33 469 8 458 q 150 515 99 499 q 310 808 225 644 q 474 1101 407 996 q 485 1113 478 1107 l 483 1119 q 519 1165 483 1144 q 590 1185 554 1185 q 636 1151 635 1185 l 640 1058 q 673 495 653 724 q 746 64 693 267 m 711 1339 q 643 1329 681 1329 q 579 1338 611 1329 q 513 1368 551 1346 q 476 1392 497 1381 q 454 1388 454 1403 q 424 1347 454 1363 q 358 1332 393 1332 q 324 1339 338 1332 q 310 1360 310 1346 q 361 1453 311 1418 q 475 1490 411 1489 q 596 1457 528 1492 q 621 1440 604 1451 q 650 1425 638 1429 l 658 1424 q 661 1432 661 1429 q 653 1444 661 1440 q 644 1463 644 1456 q 674 1495 644 1482 q 736 1508 703 1508 q 785 1494 771 1508 q 804 1450 804 1475 q 774 1384 804 1417 q 711 1339 744 1351 z "},"Æ":{"ha":1389,"x_min":-75,"x_max":1239,"o":"m 1233 122 q 1231 97 1239 110 q 1213 74 1224 83 q 1164 51 1193 58 q 1143 49 1157 49 q 1111 53 1128 49 q 1049 64 1090 58 q 924 75 979 74 q 676 50 776 78 q 688 53 685 53 q 668 49 676 50 q 654 49 660 49 q 638 43 646 46 q 622 38 631 40 q 601 36 615 36 q 571 43 582 36 q 561 47 565 47 l 550 51 q 533 67 539 58 q 531 92 531 75 q 529 128 531 115 l 525 411 q 467 400 486 403 q 388 396 426 396 q 343 397 358 396 q 285 404 324 399 q 256 410 265 407 q 249 410 251 411 q 244 406 247 408 l 238 390 l 125 165 q 103 122 121 156 q 68 60 86 88 q -12 13 47 26 q -42 8 -25 8 q -62 13 -54 8 q -75 32 -75 19 q -68 51 -75 42 l -44 103 l -18 156 q 210 614 57 308 q 436 1068 360 917 q 459 1116 442 1081 q 493 1178 476 1151 q 526 1209 506 1197 q 571 1224 547 1221 l 585 1225 q 614 1218 600 1225 q 629 1200 625 1211 q 631 1189 629 1190 l 639 1185 q 650 1173 647 1181 q 653 1158 653 1165 q 654 1147 654 1150 l 654 1085 q 768 1090 704 1090 q 797 1092 778 1092 q 942 1099 890 1097 q 1008 1100 964 1100 q 1038 1101 1018 1101 q 1067 1099 1058 1101 q 1089 1087 1081 1096 q 1094 1065 1097 1078 q 1068 1028 1092 1046 q 1020 1008 1046 1013 q 956 1003 994 1004 q 826 997 913 1000 q 696 992 785 994 l 678 992 q 661 990 667 992 q 658 990 658 990 q 657 988 657 989 q 656 983 656 986 q 657 979 657 981 l 657 964 l 658 901 l 664 639 q 765 647 704 647 l 840 646 l 926 646 l 971 647 q 1004 644 982 647 q 1035 613 1035 638 q 1033 601 1035 606 q 989 560 1026 576 q 957 549 974 551 q 914 547 940 547 l 831 547 q 667 549 721 547 q 676 138 671 408 q 803 165 729 156 q 936 172 858 172 q 1032 169 968 172 q 1144 156 1094 165 q 1199 144 1163 153 q 1222 136 1214 140 q 1233 122 1229 132 m 475 497 q 506 503 494 500 q 518 506 515 503 q 522 510 526 504 l 522 519 q 521 581 522 560 q 518 701 521 621 l 514 946 q 428 772 442 801 l 299 514 q 436 496 365 496 q 475 497 463 496 z "},"Ǽ":{"ha":1181,"x_min":-75,"x_max":1236,"o":"m 1233 122 q 1231 97 1239 110 q 1213 74 1224 83 q 1164 51 1193 58 q 1143 49 1157 49 q 1111 53 1128 49 q 1049 64 1090 58 q 924 75 979 74 q 676 50 776 78 q 688 53 685 53 q 668 49 676 50 q 654 49 660 49 q 638 43 646 46 q 622 38 631 40 q 601 36 615 36 q 571 43 582 36 q 561 47 565 47 l 550 51 q 533 67 539 58 q 531 92 531 75 q 529 128 531 115 l 525 411 q 467 400 486 403 q 388 396 426 396 q 343 397 358 396 q 285 404 324 399 q 256 410 265 407 q 249 410 251 411 q 244 406 247 408 l 238 390 l 125 165 q 103 122 121 156 q 68 60 86 88 q -12 13 47 26 q -42 8 -25 8 q -62 13 -54 8 q -75 32 -75 19 q -68 51 -75 42 l -44 103 l -18 156 q 210 614 57 308 q 436 1068 360 917 q 459 1116 442 1081 q 493 1178 476 1151 q 526 1209 506 1197 q 571 1224 547 1221 l 585 1225 q 614 1218 600 1225 q 629 1200 625 1211 q 631 1189 629 1190 l 639 1185 q 650 1173 647 1181 q 653 1158 653 1165 q 654 1147 654 1150 l 654 1085 q 768 1090 704 1090 q 797 1092 778 1092 q 942 1099 890 1097 q 1008 1100 964 1100 q 1038 1101 1018 1101 q 1067 1099 1058 1101 q 1089 1087 1081 1096 q 1094 1065 1097 1078 q 1068 1028 1092 1046 q 1020 1008 1046 1013 q 956 1003 994 1004 q 826 997 913 1000 q 696 992 785 994 l 678 992 q 661 990 667 992 q 658 990 658 990 q 657 988 657 989 q 656 983 656 986 q 657 979 657 981 l 657 964 l 658 901 l 664 639 q 765 647 704 647 l 840 646 l 926 646 l 971 647 q 1004 644 982 647 q 1035 613 1035 638 q 1033 601 1035 606 q 989 560 1026 576 q 957 549 974 551 q 914 547 940 547 l 831 547 q 667 549 721 547 q 676 138 671 408 q 803 165 729 156 q 936 172 858 172 q 1032 169 968 172 q 1144 156 1094 165 q 1199 144 1163 153 q 1222 136 1214 140 q 1233 122 1229 132 m 475 497 q 506 503 494 500 q 518 506 515 503 q 522 510 526 504 l 522 519 q 521 581 522 560 q 518 701 521 621 l 514 946 q 428 772 442 801 l 299 514 q 436 496 365 496 q 475 497 463 496 m 800 1218 q 782 1240 782 1226 q 806 1279 782 1258 q 949 1410 875 1344 q 981 1428 961 1421 q 1019 1436 1001 1436 q 1047 1431 1036 1436 q 1065 1407 1065 1422 q 1043 1368 1065 1388 q 900 1239 993 1321 q 867 1220 888 1228 q 828 1213 847 1213 q 800 1218 811 1213 z "},"B":{"ha":1092,"x_min":51,"x_max":1074,"o":"m 831 238 q 905 319 879 274 q 931 410 931 364 q 904 495 931 454 q 825 568 878 536 q 590 632 718 632 q 386 586 482 632 q 292 104 353 426 l 292 101 q 599 135 469 108 q 831 238 729 161 m 703 979 q 593 1069 686 1069 q 490 1049 549 1069 q 417 724 464 940 q 615 813 524 750 q 706 956 706 875 q 703 979 706 963 m 885 678 q 1023 576 972 639 q 1074 439 1074 514 q 1026 297 1074 367 q 695 65 915 132 q 215 -1 475 -1 q 83 3 146 -1 q 51 22 51 4 q 85 68 51 42 q 143 97 119 94 q 329 969 224 528 q 293 965 313 965 q 256 971 271 965 q 242 989 242 976 q 267 1026 242 1004 q 360 1089 300 1056 q 363 1101 360 1093 q 405 1144 369 1126 q 474 1163 440 1163 q 507 1151 500 1163 q 642 1172 583 1172 q 838 1050 793 1172 q 850 985 850 1017 q 798 849 850 914 q 660 729 746 783 q 885 678 781 725 z "},"C":{"ha":718,"x_min":49,"x_max":750,"o":"m 603 1149 q 646 1188 610 1171 q 714 1206 682 1206 q 741 1199 732 1206 q 746 1179 750 1192 l 665 897 q 623 856 658 874 q 556 838 588 838 q 528 845 538 838 q 522 868 519 853 q 532 956 532 917 q 496 1042 532 1035 q 456 1013 481 1046 q 401 933 432 981 q 238 575 296 781 q 207 449 218 504 q 196 339 196 393 q 210 240 196 283 q 256 162 224 196 q 329 128 288 128 q 407 156 369 128 q 486 229 444 183 l 478 243 q 474 256 474 250 q 507 295 474 276 q 574 314 540 314 q 619 294 606 314 l 638 267 q 639 258 639 264 q 635 244 639 251 q 626 231 631 236 q 467 86 561 147 q 282 25 374 25 q 151 67 211 25 q 49 300 49 140 q 92 551 49 399 q 219 873 139 722 q 415 1099 300 1024 q 542 1142 481 1142 q 597 1129 569 1142 l 603 1149 z "},"Ć":{"ha":833,"x_min":49,"x_max":758,"o":"m 603 1149 q 646 1188 610 1171 q 714 1206 682 1206 q 741 1199 732 1206 q 746 1179 750 1192 l 665 897 q 623 856 658 874 q 556 838 588 838 q 528 845 538 838 q 522 868 519 853 q 532 956 532 917 q 496 1042 532 1035 q 456 1013 481 1046 q 401 933 432 981 q 238 575 296 781 q 207 449 218 504 q 196 339 196 393 q 210 240 196 283 q 256 162 224 196 q 329 128 288 128 q 407 156 369 128 q 486 229 444 183 l 478 243 q 474 256 474 250 q 507 295 474 276 q 574 314 540 314 q 619 294 606 314 l 638 267 q 639 258 639 264 q 635 244 639 251 q 626 231 631 236 q 467 86 561 147 q 282 25 374 25 q 151 67 211 25 q 49 300 49 140 q 92 551 49 399 q 219 873 139 722 q 415 1099 300 1024 q 542 1142 481 1142 q 597 1129 569 1142 l 603 1149 m 493 1332 q 475 1354 475 1340 q 499 1393 475 1372 q 642 1524 568 1458 q 674 1542 654 1535 q 713 1550 694 1550 q 740 1544 729 1550 q 758 1521 758 1536 q 736 1482 758 1501 q 593 1353 686 1435 q 560 1334 581 1342 q 521 1326 540 1326 q 493 1332 504 1326 z "},"Č":{"ha":833,"x_min":49,"x_max":818,"o":"m 603 1149 q 646 1188 610 1171 q 714 1206 682 1206 q 741 1199 732 1206 q 746 1179 750 1192 l 665 897 q 623 856 658 874 q 556 838 588 838 q 528 845 538 838 q 522 868 519 853 q 532 956 532 917 q 496 1042 532 1035 q 456 1013 481 1046 q 401 933 432 981 q 238 575 296 781 q 207 449 218 504 q 196 339 196 393 q 210 240 196 283 q 256 162 224 196 q 329 128 288 128 q 407 156 369 128 q 486 229 444 183 l 478 243 q 474 256 474 250 q 507 295 474 276 q 574 314 540 314 q 619 294 606 314 l 638 267 q 639 258 639 264 q 635 244 639 251 q 626 231 631 236 q 467 86 561 147 q 282 25 374 25 q 151 67 211 25 q 49 300 49 140 q 92 551 49 399 q 219 873 139 722 q 415 1099 300 1024 q 542 1142 481 1142 q 597 1129 569 1142 l 603 1149 m 369 1425 q 361 1446 361 1436 q 394 1490 361 1469 q 461 1510 428 1510 q 499 1496 486 1510 l 581 1403 l 688 1508 q 726 1535 704 1525 q 769 1546 747 1546 q 786 1544 781 1546 q 809 1532 800 1542 q 818 1511 818 1522 q 807 1488 818 1499 l 760 1439 q 692 1372 736 1415 q 614 1297 647 1328 q 582 1278 601 1286 q 544 1271 563 1271 q 521 1275 531 1271 q 503 1285 510 1278 q 486 1296 489 1292 l 369 1425 z "},"Ç":{"ha":833,"x_min":49,"x_max":750,"o":"m 603 1149 q 646 1188 610 1171 q 714 1206 682 1206 q 741 1199 732 1206 q 746 1179 750 1192 l 665 897 q 623 856 658 874 q 556 838 588 838 q 528 845 538 838 q 522 868 519 853 q 532 956 532 917 q 496 1042 532 1035 q 456 1013 481 1046 q 401 933 432 981 q 238 575 296 781 q 207 449 218 504 q 196 339 196 393 q 210 240 196 283 q 256 162 224 196 q 329 128 288 128 q 407 156 369 128 q 486 229 444 183 l 478 243 q 474 256 474 250 q 507 295 474 276 q 574 314 540 314 q 619 294 606 314 l 638 267 q 639 258 639 264 q 635 244 639 251 q 626 231 631 236 q 467 86 561 147 q 282 25 374 25 q 151 67 211 25 q 49 300 49 140 q 92 551 49 399 q 219 873 139 722 q 415 1099 300 1024 q 542 1142 481 1142 q 597 1129 569 1142 l 603 1149 m 526 -125 q 407 -211 475 -179 q 268 -243 339 -243 q 204 -236 239 -243 q 174 -206 174 -229 q 183 -181 174 -192 q 220 -153 197 -164 q 267 -143 243 -143 q 281 -144 276 -143 q 311 -147 292 -147 q 374 -132 347 -147 l 244 -58 q 228 -33 228 -49 q 238 -7 228 -18 l 308 92 q 347 119 321 110 q 397 128 374 129 q 424 119 411 126 q 438 99 438 111 q 433 86 438 93 l 379 7 l 519 -72 q 538 -100 538 -83 q 526 -125 538 -111 z "},"Ḉ":{"ha":833,"x_min":49,"x_max":754,"o":"m 603 1149 q 646 1188 610 1171 q 714 1206 682 1206 q 741 1199 732 1206 q 746 1179 750 1192 l 665 897 q 623 856 658 874 q 556 838 588 838 q 528 845 538 838 q 522 868 519 853 q 532 956 532 917 q 496 1042 532 1035 q 456 1013 481 1046 q 401 933 432 981 q 238 575 296 781 q 207 449 218 504 q 196 339 196 393 q 210 240 196 283 q 256 162 224 196 q 329 128 288 128 q 407 156 369 128 q 486 229 444 183 l 478 243 q 474 256 474 250 q 507 295 474 276 q 574 314 540 314 q 619 294 606 314 l 638 267 q 639 258 639 264 q 635 244 639 251 q 626 231 631 236 q 467 86 561 147 q 282 25 374 25 q 151 67 211 25 q 49 300 49 140 q 92 551 49 399 q 219 873 139 722 q 415 1099 300 1024 q 542 1142 481 1142 q 597 1129 569 1142 l 603 1149 m 478 -157 q 358 -243 426 -211 q 219 -275 290 -275 q 156 -268 190 -275 q 125 -237 125 -261 q 135 -212 125 -224 q 172 -185 149 -196 q 218 -175 194 -175 q 232 -176 228 -175 q 263 -179 243 -179 q 325 -164 299 -179 l 196 -90 q 179 -65 179 -81 q 189 -39 179 -50 l 260 60 q 299 88 272 78 q 349 96 325 97 q 376 87 363 94 q 389 67 389 79 q 385 54 389 61 l 331 -25 l 471 -104 q 489 -132 489 -115 q 478 -157 489 -143 m 489 1314 q 471 1336 471 1322 q 494 1375 471 1354 q 638 1506 564 1440 q 670 1524 650 1517 q 708 1532 690 1532 q 736 1526 725 1532 q 754 1503 754 1518 q 732 1464 754 1483 q 589 1335 682 1417 q 556 1316 576 1324 q 517 1308 536 1308 q 489 1314 500 1308 z "},"Ĉ":{"ha":833,"x_min":49,"x_max":831,"o":"m 603 1149 q 646 1188 610 1171 q 714 1206 682 1206 q 741 1199 732 1206 q 746 1179 750 1192 l 665 897 q 623 856 658 874 q 556 838 588 838 q 528 845 538 838 q 522 868 519 853 q 532 956 532 917 q 496 1042 532 1035 q 456 1013 481 1046 q 401 933 432 981 q 238 575 296 781 q 207 449 218 504 q 196 339 196 393 q 210 240 196 283 q 256 162 224 196 q 329 128 288 128 q 407 156 369 128 q 486 229 444 183 l 478 243 q 474 256 474 250 q 507 295 474 276 q 574 314 540 314 q 619 294 606 314 l 638 267 q 639 258 639 264 q 635 244 639 251 q 626 231 631 236 q 467 86 561 147 q 282 25 374 25 q 151 67 211 25 q 49 300 49 140 q 92 551 49 399 q 219 873 139 722 q 415 1099 300 1024 q 542 1142 481 1142 q 597 1129 569 1142 l 603 1149 m 550 1533 q 589 1560 563 1547 q 638 1572 615 1572 q 672 1557 661 1572 l 824 1354 q 831 1335 831 1343 q 798 1292 831 1311 q 733 1272 765 1272 q 699 1285 707 1272 q 592 1428 626 1379 l 500 1331 q 463 1303 485 1314 q 418 1293 440 1293 q 401 1294 407 1293 q 371 1325 371 1301 q 381 1349 371 1338 q 550 1533 436 1411 z "},"Ċ":{"ha":833,"x_min":49,"x_max":747,"o":"m 603 1149 q 646 1188 610 1171 q 714 1206 682 1206 q 741 1199 732 1206 q 746 1179 750 1192 l 665 897 q 623 856 658 874 q 556 838 588 838 q 528 845 538 838 q 522 868 519 853 q 532 956 532 917 q 496 1042 532 1035 q 456 1013 481 1046 q 401 933 432 981 q 238 575 296 781 q 207 449 218 504 q 196 339 196 393 q 210 240 196 283 q 256 162 224 196 q 329 128 288 128 q 407 156 369 128 q 486 229 444 183 l 478 243 q 474 256 474 250 q 507 295 474 276 q 574 314 540 314 q 619 294 606 314 l 638 267 q 639 258 639 264 q 635 244 639 251 q 626 231 631 236 q 467 86 561 147 q 282 25 374 25 q 151 67 211 25 q 49 300 49 140 q 92 551 49 399 q 219 873 139 722 q 415 1099 300 1024 q 542 1142 481 1142 q 597 1129 569 1142 l 603 1149 m 631 1517 q 669 1508 651 1517 q 692 1481 686 1499 q 693 1469 693 1476 q 681 1438 693 1453 q 663 1422 675 1429 q 608 1378 654 1396 q 568 1369 583 1369 l 557 1371 q 539 1378 549 1372 q 528 1390 529 1383 q 522 1425 522 1406 q 528 1456 522 1443 q 570 1499 540 1482 q 631 1517 600 1515 z "},"D":{"ha":968,"x_min":-46,"x_max":960,"o":"m 815 615 q 768 735 815 681 q 649 842 721 789 q 344 1011 515 936 q 289 657 325 893 q 256 449 279 594 q 213 189 233 303 q 429 281 338 239 q 604 374 521 324 q 756 483 696 426 q 815 615 815 540 m 815 883 q 960 646 960 769 q 956 607 960 628 q 871 456 939 522 q 700 324 803 389 q 35 28 429 153 q -1 22 17 22 q -34 31 -22 22 q -46 54 -46 40 q -33 83 -46 68 q 6 107 -19 97 l 65 131 q 60 153 56 140 l 126 557 q 210 1061 165 810 l 211 1068 q 117 1107 181 1082 q 97 1129 97 1115 q 135 1173 97 1150 q 207 1196 174 1196 q 226 1193 221 1196 q 566 1043 431 1110 q 815 883 701 976 z "},"Ð":{"ha":833,"x_min":-46,"x_max":960,"o":"m 367 625 q 396 597 396 624 q 390 576 396 586 q 356 545 381 557 q 307 535 331 533 q 32 551 197 536 q 3 579 3 554 q 8 599 3 589 q 45 629 19 617 q 93 640 71 642 q 367 625 254 635 m 815 615 q 768 735 815 681 q 649 842 721 789 q 344 1011 515 936 q 289 657 325 893 q 256 449 279 594 q 213 189 233 303 q 429 281 338 239 q 604 374 521 324 q 756 483 696 426 q 815 615 815 540 m 815 883 q 960 646 960 769 q 956 607 960 628 q 871 456 939 522 q 700 324 803 389 q 35 28 429 153 q -1 22 17 22 q -34 31 -22 22 q -46 54 -46 40 q -33 83 -46 68 q 6 107 -19 97 l 65 131 q 60 153 56 140 l 126 557 q 210 1061 165 810 l 211 1068 q 117 1107 181 1082 q 97 1129 97 1115 q 135 1173 97 1150 q 207 1196 174 1196 q 226 1193 221 1196 q 566 1043 431 1110 q 815 883 701 976 z "},"Ď":{"ha":833,"x_min":-46,"x_max":960,"o":"m 815 615 q 768 735 815 681 q 649 842 721 789 q 344 1011 515 936 q 289 657 325 893 q 256 449 279 594 q 213 189 233 303 q 429 281 338 239 q 604 374 521 324 q 756 483 696 426 q 815 615 815 540 m 815 883 q 960 646 960 769 q 956 607 960 628 q 871 456 939 522 q 700 324 803 389 q 35 28 429 153 q -1 22 17 22 q -34 31 -22 22 q -46 54 -46 40 q -33 83 -46 68 q 6 107 -19 97 l 65 131 q 60 153 56 140 l 126 557 q 210 1061 165 810 l 211 1068 q 117 1107 181 1082 q 97 1129 97 1115 q 135 1173 97 1150 q 207 1196 174 1196 q 226 1193 221 1196 q 566 1043 431 1110 q 815 883 701 976 m 299 1461 q 290 1482 290 1472 q 324 1526 290 1506 q 390 1546 357 1546 q 428 1532 415 1546 l 510 1439 l 617 1544 q 655 1572 633 1561 q 699 1582 676 1582 q 715 1581 710 1582 q 738 1568 729 1578 q 747 1547 747 1558 q 736 1524 747 1535 l 689 1475 q 621 1408 665 1451 q 543 1333 576 1364 q 511 1315 531 1322 q 474 1307 492 1307 q 450 1311 460 1307 q 432 1321 439 1314 q 415 1332 418 1328 l 299 1461 z "},"Đ":{"ha":833,"x_min":-46,"x_max":960,"o":"m 367 625 q 396 597 396 624 q 390 576 396 586 q 356 545 381 557 q 307 535 331 533 q 32 551 197 536 q 3 579 3 554 q 8 599 3 589 q 45 629 19 617 q 93 640 71 642 q 367 625 254 635 m 815 615 q 768 735 815 681 q 649 842 721 789 q 344 1011 515 936 q 289 657 325 893 q 256 449 279 594 q 213 189 233 303 q 429 281 338 239 q 604 374 521 324 q 756 483 696 426 q 815 615 815 540 m 815 883 q 960 646 960 769 q 956 607 960 628 q 871 456 939 522 q 700 324 803 389 q 35 28 429 153 q -1 22 17 22 q -34 31 -22 22 q -46 54 -46 40 q -33 83 -46 68 q 6 107 -19 97 l 65 131 q 60 153 56 140 l 126 557 q 210 1061 165 810 l 211 1068 q 117 1107 181 1082 q 97 1129 97 1115 q 135 1173 97 1150 q 207 1196 174 1196 q 226 1193 221 1196 q 566 1043 431 1110 q 815 883 701 976 z "},"E":{"ha":879,"x_min":-19,"x_max":947,"o":"m 915 1142 q 947 1118 947 1136 q 928 1087 947 1104 q 883 1058 908 1069 q 839 1050 857 1047 q 697 1060 772 1060 q 396 1022 565 1060 q 294 644 344 850 q 578 681 456 681 q 631 679 613 681 q 660 653 660 678 q 630 608 660 625 q 568 590 600 592 q 272 549 419 578 q 196 179 232 379 q 472 186 349 186 q 774 171 636 186 q 803 143 803 167 q 794 115 803 131 q 752 85 781 94 q 696 79 724 76 q 503 86 615 86 q 315 82 410 86 q 174 79 221 79 q 127 46 160 60 q 67 32 94 32 q 35 40 46 32 q 26 64 24 49 q 29 79 26 68 l 26 79 q -19 103 -19 79 q 0 136 -19 118 q 44 165 19 154 q 133 599 88 400 q 240 983 179 799 l 229 982 q 203 990 213 982 q 194 1011 194 999 q 208 1044 194 1028 q 246 1069 222 1061 l 272 1078 l 279 1096 q 317 1131 286 1117 q 378 1146 347 1146 q 422 1119 418 1146 q 729 1158 588 1158 q 915 1142 824 1158 z "},"É":{"ha":833,"x_min":-19,"x_max":947,"o":"m 915 1142 q 947 1118 947 1136 q 928 1087 947 1104 q 883 1058 908 1069 q 839 1050 857 1047 q 697 1060 772 1060 q 396 1022 565 1060 q 294 644 344 850 q 578 681 456 681 q 631 679 613 681 q 660 653 660 678 q 630 608 660 625 q 568 590 600 592 q 272 549 419 578 q 196 179 232 379 q 472 186 349 186 q 774 171 636 186 q 803 143 803 167 q 794 115 803 131 q 752 85 781 94 q 696 79 724 76 q 503 86 615 86 q 315 82 410 86 q 174 79 221 79 q 127 46 160 60 q 67 32 94 32 q 35 40 46 32 q 26 64 24 49 q 29 79 26 68 l 26 79 q -19 103 -19 79 q 0 136 -19 118 q 44 165 19 154 q 133 599 88 400 q 240 983 179 799 l 229 982 q 203 990 213 982 q 194 1011 194 999 q 208 1044 194 1028 q 246 1069 222 1061 l 272 1078 l 279 1096 q 317 1131 286 1117 q 378 1146 347 1146 q 422 1119 418 1146 q 729 1158 588 1158 q 915 1142 824 1158 m 549 1301 q 531 1324 531 1310 q 554 1363 531 1342 q 697 1493 624 1428 q 730 1512 710 1504 q 768 1519 750 1519 q 796 1514 785 1519 q 814 1490 814 1506 q 792 1451 814 1471 q 649 1322 742 1404 q 616 1303 636 1311 q 576 1296 596 1296 q 549 1301 560 1296 z "},"Ĕ":{"ha":833,"x_min":-19,"x_max":947,"o":"m 915 1142 q 947 1118 947 1136 q 928 1087 947 1104 q 883 1058 908 1069 q 839 1050 857 1047 q 697 1060 772 1060 q 396 1022 565 1060 q 294 644 344 850 q 578 681 456 681 q 631 679 613 681 q 660 653 660 678 q 630 608 660 625 q 568 590 600 592 q 272 549 419 578 q 196 179 232 379 q 472 186 349 186 q 774 171 636 186 q 803 143 803 167 q 794 115 803 131 q 752 85 781 94 q 696 79 724 76 q 503 86 615 86 q 315 82 410 86 q 174 79 221 79 q 127 46 160 60 q 67 32 94 32 q 35 40 46 32 q 26 64 24 49 q 29 79 26 68 l 26 79 q -19 103 -19 79 q 0 136 -19 118 q 44 165 19 154 q 133 599 88 400 q 240 983 179 799 l 229 982 q 203 990 213 982 q 194 1011 194 999 q 208 1044 194 1028 q 246 1069 222 1061 l 272 1078 l 279 1096 q 317 1131 286 1117 q 378 1146 347 1146 q 422 1119 418 1146 q 729 1158 588 1158 q 915 1142 824 1158 m 747 1488 q 778 1522 751 1508 q 835 1536 806 1536 q 876 1525 860 1536 q 889 1493 892 1514 q 840 1394 881 1438 q 743 1326 800 1350 q 628 1303 686 1303 q 503 1342 554 1303 q 444 1460 451 1382 q 472 1501 443 1485 q 536 1517 501 1517 q 572 1510 558 1517 q 588 1488 586 1503 q 613 1420 592 1451 q 669 1390 635 1389 q 720 1423 700 1392 q 747 1488 740 1454 z "},"Ě":{"ha":833,"x_min":-19,"x_max":947,"o":"m 915 1142 q 947 1118 947 1136 q 928 1087 947 1104 q 883 1058 908 1069 q 839 1050 857 1047 q 697 1060 772 1060 q 396 1022 565 1060 q 294 644 344 850 q 578 681 456 681 q 631 679 613 681 q 660 653 660 678 q 630 608 660 625 q 568 590 600 592 q 272 549 419 578 q 196 179 232 379 q 472 186 349 186 q 774 171 636 186 q 803 143 803 167 q 794 115 803 131 q 752 85 781 94 q 696 79 724 76 q 503 86 615 86 q 315 82 410 86 q 174 79 221 79 q 127 46 160 60 q 67 32 94 32 q 35 40 46 32 q 26 64 24 49 q 29 79 26 68 l 26 79 q -19 103 -19 79 q 0 136 -19 118 q 44 165 19 154 q 133 599 88 400 q 240 983 179 799 l 229 982 q 203 990 213 982 q 194 1011 194 999 q 208 1044 194 1028 q 246 1069 222 1061 l 272 1078 l 279 1096 q 317 1131 286 1117 q 378 1146 347 1146 q 422 1119 418 1146 q 729 1158 588 1158 q 915 1142 824 1158 m 450 1443 q 442 1464 442 1454 q 475 1508 442 1488 q 542 1528 508 1528 q 579 1514 567 1528 l 661 1421 l 768 1526 q 806 1553 785 1543 q 850 1564 828 1564 q 867 1563 861 1564 q 890 1550 881 1560 q 899 1529 899 1540 q 888 1506 899 1517 l 840 1457 q 772 1390 817 1433 q 694 1315 728 1346 q 663 1297 682 1304 q 625 1289 643 1289 q 601 1293 611 1289 q 583 1303 590 1296 q 567 1314 569 1310 l 450 1443 z "},"Ê":{"ha":833,"x_min":-19,"x_max":947,"o":"m 915 1142 q 947 1118 947 1136 q 928 1087 947 1104 q 883 1058 908 1069 q 839 1050 857 1047 q 697 1060 772 1060 q 396 1022 565 1060 q 294 644 344 850 q 578 681 456 681 q 631 679 613 681 q 660 653 660 678 q 630 608 660 625 q 568 590 600 592 q 272 549 419 578 q 196 179 232 379 q 472 186 349 186 q 774 171 636 186 q 803 143 803 167 q 794 115 803 131 q 752 85 781 94 q 696 79 724 76 q 503 86 615 86 q 315 82 410 86 q 174 79 221 79 q 127 46 160 60 q 67 32 94 32 q 35 40 46 32 q 26 64 24 49 q 29 79 26 68 l 26 79 q -19 103 -19 79 q 0 136 -19 118 q 44 165 19 154 q 133 599 88 400 q 240 983 179 799 l 229 982 q 203 990 213 982 q 194 1011 194 999 q 208 1044 194 1028 q 246 1069 222 1061 l 272 1078 l 279 1096 q 317 1131 286 1117 q 378 1146 347 1146 q 422 1119 418 1146 q 729 1158 588 1158 q 915 1142 824 1158 m 613 1565 q 651 1592 625 1579 q 700 1604 678 1604 q 735 1589 724 1604 l 886 1386 q 893 1367 893 1375 q 860 1324 893 1343 q 796 1304 828 1304 q 761 1317 769 1304 q 654 1460 689 1411 l 563 1363 q 525 1335 547 1346 q 481 1325 503 1325 q 464 1326 469 1325 q 433 1357 433 1333 q 443 1381 433 1369 q 613 1565 499 1443 z "},"Ë":{"ha":833,"x_min":-19,"x_max":947,"o":"m 915 1142 q 947 1118 947 1136 q 928 1087 947 1104 q 883 1058 908 1069 q 839 1050 857 1047 q 697 1060 772 1060 q 396 1022 565 1060 q 294 644 344 850 q 578 681 456 681 q 631 679 613 681 q 660 653 660 678 q 630 608 660 625 q 568 590 600 592 q 272 549 419 578 q 196 179 232 379 q 472 186 349 186 q 774 171 636 186 q 803 143 803 167 q 794 115 803 131 q 752 85 781 94 q 696 79 724 76 q 503 86 615 86 q 315 82 410 86 q 174 79 221 79 q 127 46 160 60 q 67 32 94 32 q 35 40 46 32 q 26 64 24 49 q 29 79 26 68 l 26 79 q -19 103 -19 79 q 0 136 -19 118 q 44 165 19 154 q 133 599 88 400 q 240 983 179 799 l 229 982 q 203 990 213 982 q 194 1011 194 999 q 208 1044 194 1028 q 246 1069 222 1061 l 272 1078 l 279 1096 q 317 1131 286 1117 q 378 1146 347 1146 q 422 1119 418 1146 q 729 1158 588 1158 q 915 1142 824 1158 m 486 1349 q 458 1376 464 1358 q 456 1393 456 1388 q 461 1418 456 1401 q 497 1454 471 1438 q 543 1469 519 1467 l 554 1469 q 586 1465 569 1469 q 597 1457 592 1464 q 603 1443 601 1450 q 601 1431 603 1435 q 601 1430 601 1431 q 603 1429 601 1429 q 615 1407 615 1421 q 593 1371 615 1386 q 517 1342 550 1342 q 486 1349 503 1342 m 854 1435 q 860 1422 857 1431 q 840 1376 861 1400 q 801 1353 824 1361 q 754 1344 778 1344 q 700 1363 722 1342 q 683 1401 686 1376 q 695 1426 683 1414 q 721 1447 707 1439 l 746 1460 q 772 1474 750 1463 q 794 1479 781 1476 q 814 1481 800 1481 q 854 1464 844 1481 q 858 1450 858 1458 q 854 1435 858 1443 z "},"Ė":{"ha":833,"x_min":-19,"x_max":947,"o":"m 915 1142 q 947 1118 947 1136 q 928 1087 947 1104 q 883 1058 908 1069 q 839 1050 857 1047 q 697 1060 772 1060 q 396 1022 565 1060 q 294 644 344 850 q 578 681 456 681 q 631 679 613 681 q 660 653 660 678 q 630 608 660 625 q 568 590 600 592 q 272 549 419 578 q 196 179 232 379 q 472 186 349 186 q 774 171 636 186 q 803 143 803 167 q 794 115 803 131 q 752 85 781 94 q 696 79 724 76 q 503 86 615 86 q 315 82 410 86 q 174 79 221 79 q 127 46 160 60 q 67 32 94 32 q 35 40 46 32 q 26 64 24 49 q 29 79 26 68 l 26 79 q -19 103 -19 79 q 0 136 -19 118 q 44 165 19 154 q 133 599 88 400 q 240 983 179 799 l 229 982 q 203 990 213 982 q 194 1011 194 999 q 208 1044 194 1028 q 246 1069 222 1061 l 272 1078 l 279 1096 q 317 1131 286 1117 q 378 1146 347 1146 q 422 1119 418 1146 q 729 1158 588 1158 q 915 1142 824 1158 m 703 1486 q 741 1477 724 1486 q 764 1450 758 1468 q 765 1439 765 1446 q 753 1407 765 1422 q 735 1392 747 1399 q 681 1347 726 1365 q 640 1339 656 1339 l 629 1340 q 611 1347 621 1342 q 600 1360 601 1353 q 594 1394 594 1375 q 600 1425 594 1413 q 642 1468 613 1451 q 703 1486 672 1485 z "},"È":{"ha":833,"x_min":-19,"x_max":947,"o":"m 915 1142 q 947 1118 947 1136 q 928 1087 947 1104 q 883 1058 908 1069 q 839 1050 857 1047 q 697 1060 772 1060 q 396 1022 565 1060 q 294 644 344 850 q 578 681 456 681 q 631 679 613 681 q 660 653 660 678 q 630 608 660 625 q 568 590 600 592 q 272 549 419 578 q 196 179 232 379 q 472 186 349 186 q 774 171 636 186 q 803 143 803 167 q 794 115 803 131 q 752 85 781 94 q 696 79 724 76 q 503 86 615 86 q 315 82 410 86 q 174 79 221 79 q 127 46 160 60 q 67 32 94 32 q 35 40 46 32 q 26 64 24 49 q 29 79 26 68 l 26 79 q -19 103 -19 79 q 0 136 -19 118 q 44 165 19 154 q 133 599 88 400 q 240 983 179 799 l 229 982 q 203 990 213 982 q 194 1011 194 999 q 208 1044 194 1028 q 246 1069 222 1061 l 272 1078 l 279 1096 q 317 1131 286 1117 q 378 1146 347 1146 q 422 1119 418 1146 q 729 1158 588 1158 q 915 1142 824 1158 m 524 1517 q 515 1539 515 1528 q 549 1585 515 1564 q 618 1607 583 1607 q 657 1592 646 1607 q 718 1517 699 1542 l 831 1381 q 839 1360 839 1371 q 804 1313 839 1335 q 735 1290 769 1290 q 696 1306 708 1290 l 524 1517 z "},"Ē":{"ha":833,"x_min":-19,"x_max":947,"o":"m 915 1142 q 947 1118 947 1136 q 928 1087 947 1104 q 883 1058 908 1069 q 839 1050 857 1047 q 697 1060 772 1060 q 396 1022 565 1060 q 294 644 344 850 q 578 681 456 681 q 631 679 613 681 q 660 653 660 678 q 630 608 660 625 q 568 590 600 592 q 272 549 419 578 q 196 179 232 379 q 472 186 349 186 q 774 171 636 186 q 803 143 803 167 q 794 115 803 131 q 752 85 781 94 q 696 79 724 76 q 503 86 615 86 q 315 82 410 86 q 174 79 221 79 q 127 46 160 60 q 67 32 94 32 q 35 40 46 32 q 26 64 24 49 q 29 79 26 68 l 26 79 q -19 103 -19 79 q 0 136 -19 118 q 44 165 19 154 q 133 599 88 400 q 240 983 179 799 l 229 982 q 203 990 213 982 q 194 1011 194 999 q 208 1044 194 1028 q 246 1069 222 1061 l 272 1078 l 279 1096 q 317 1131 286 1117 q 378 1146 347 1146 q 422 1119 418 1146 q 729 1158 588 1158 q 915 1142 824 1158 m 468 1381 q 443 1388 451 1381 q 435 1407 435 1394 q 442 1431 435 1417 q 481 1464 456 1451 q 533 1478 507 1476 l 717 1479 q 808 1478 778 1479 q 833 1470 824 1478 q 842 1450 842 1463 q 833 1426 842 1439 q 795 1393 821 1406 q 743 1379 769 1381 l 663 1379 q 468 1381 533 1379 z "},"Ḗ":{"ha":833,"x_min":-19,"x_max":947,"o":"m 915 1142 q 947 1118 947 1136 q 928 1087 947 1104 q 883 1058 908 1069 q 839 1050 857 1047 q 697 1060 772 1060 q 396 1022 565 1060 q 294 644 344 850 q 578 681 456 681 q 631 679 613 681 q 660 653 660 678 q 630 608 660 625 q 568 590 600 592 q 272 549 419 578 q 196 179 232 379 q 472 186 349 186 q 774 171 636 186 q 803 143 803 167 q 794 115 803 131 q 752 85 781 94 q 696 79 724 76 q 503 86 615 86 q 315 82 410 86 q 174 79 221 79 q 127 46 160 60 q 67 32 94 32 q 35 40 46 32 q 26 64 24 49 q 29 79 26 68 l 26 79 q -19 103 -19 79 q 0 136 -19 118 q 44 165 19 154 q 133 599 88 400 q 240 983 179 799 l 229 982 q 203 990 213 982 q 194 1011 194 999 q 208 1044 194 1028 q 246 1069 222 1061 l 272 1078 l 279 1096 q 317 1131 286 1117 q 378 1146 347 1146 q 422 1119 418 1146 q 729 1158 588 1158 q 915 1142 824 1158 m 485 1325 q 460 1332 468 1325 q 451 1351 451 1339 q 458 1375 451 1361 q 498 1408 472 1396 q 550 1422 524 1421 l 733 1424 q 825 1422 794 1424 q 849 1415 840 1422 q 858 1394 858 1407 q 850 1371 858 1383 q 812 1338 838 1350 q 760 1324 786 1325 l 679 1324 q 485 1325 550 1324 m 647 1569 q 629 1592 629 1578 q 653 1631 629 1610 q 796 1761 722 1696 q 828 1780 808 1772 q 867 1788 849 1788 q 894 1782 883 1788 q 913 1758 913 1774 q 890 1719 913 1739 q 747 1590 840 1672 q 715 1572 735 1579 q 675 1564 694 1564 q 647 1569 658 1564 z "},"Ḕ":{"ha":833,"x_min":-19,"x_max":947,"o":"m 915 1142 q 947 1118 947 1136 q 928 1087 947 1104 q 883 1058 908 1069 q 839 1050 857 1047 q 697 1060 772 1060 q 396 1022 565 1060 q 294 644 344 850 q 578 681 456 681 q 631 679 613 681 q 660 653 660 678 q 630 608 660 625 q 568 590 600 592 q 272 549 419 578 q 196 179 232 379 q 472 186 349 186 q 774 171 636 186 q 803 143 803 167 q 794 115 803 131 q 752 85 781 94 q 696 79 724 76 q 503 86 615 86 q 315 82 410 86 q 174 79 221 79 q 127 46 160 60 q 67 32 94 32 q 35 40 46 32 q 26 64 24 49 q 29 79 26 68 l 26 79 q -19 103 -19 79 q 0 136 -19 118 q 44 165 19 154 q 133 599 88 400 q 240 983 179 799 l 229 982 q 203 990 213 982 q 194 1011 194 999 q 208 1044 194 1028 q 246 1069 222 1061 l 272 1078 l 279 1096 q 317 1131 286 1117 q 378 1146 347 1146 q 422 1119 418 1146 q 729 1158 588 1158 q 915 1142 824 1158 m 485 1357 q 460 1364 468 1357 q 451 1383 451 1371 q 458 1407 451 1393 q 498 1440 472 1428 q 550 1454 524 1453 l 733 1456 q 825 1454 794 1456 q 849 1447 840 1454 q 858 1426 858 1439 q 850 1403 858 1415 q 812 1369 838 1382 q 760 1356 786 1357 l 679 1356 q 485 1357 550 1356 m 519 1774 q 511 1796 511 1785 q 545 1842 511 1821 q 614 1864 579 1864 q 653 1849 642 1864 q 714 1774 694 1799 l 826 1638 q 835 1617 835 1628 q 800 1569 835 1592 q 731 1547 765 1547 q 692 1563 704 1547 l 519 1774 z "},"Ę":{"ha":833,"x_min":-19,"x_max":947,"o":"m 915 1142 q 947 1118 947 1136 q 928 1087 947 1104 q 883 1058 908 1069 q 839 1050 857 1047 q 697 1060 772 1060 q 396 1022 565 1060 q 294 644 344 850 q 578 681 456 681 q 631 679 613 681 q 660 653 660 678 q 630 608 660 625 q 568 590 600 592 q 272 549 419 578 q 196 179 232 379 q 472 186 349 186 q 774 171 636 186 q 803 143 803 167 q 794 115 803 131 q 752 85 781 94 q 696 79 724 76 q 503 86 615 86 q 315 82 410 86 q 174 79 221 79 q 127 46 160 60 q 67 32 94 32 q 35 40 46 32 q 26 64 24 49 q 29 79 26 68 l 26 79 q -19 103 -19 79 q 0 136 -19 118 q 44 165 19 154 q 133 599 88 400 q 240 983 179 799 l 229 982 q 203 990 213 982 q 194 1011 194 999 q 208 1044 194 1028 q 246 1069 222 1061 l 272 1078 l 279 1096 q 317 1131 286 1117 q 378 1146 347 1146 q 422 1119 418 1146 q 729 1158 588 1158 q 915 1142 824 1158 m 529 -18 q 547 -29 540 -21 q 554 -47 554 -37 q 543 -71 554 -60 q 468 -122 510 -104 q 381 -136 426 -139 q 317 -118 346 -133 q 272 -74 288 -103 q 263 -33 263 -56 q 296 56 263 13 q 363 110 322 90 q 449 133 403 131 q 480 128 465 136 q 494 106 494 119 q 492 93 494 101 q 419 49 475 57 q 406 28 410 38 q 399 -1 399 14 q 403 -21 399 -12 q 435 -43 414 -39 l 438 -43 l 440 -40 q 471 -22 453 -29 q 507 -15 489 -15 q 529 -18 515 -15 m 421 49 q 424 51 425 50 l 421 49 z "},"F":{"ha":671,"x_min":35,"x_max":876,"o":"m 833 1200 q 876 1176 876 1200 q 844 1132 876 1156 q 783 1107 813 1108 q 443 1060 599 1103 q 342 678 388 881 q 574 701 460 701 q 672 697 622 701 q 701 678 701 696 q 667 630 701 657 q 607 604 632 603 q 544 606 586 606 q 319 581 440 606 q 229 96 264 335 q 188 49 225 69 q 114 29 150 29 q 81 38 93 29 q 72 63 69 46 q 160 538 115 335 l 113 521 q 71 513 88 513 q 44 519 54 513 q 35 539 35 526 q 49 568 35 553 q 89 596 63 583 q 182 633 138 618 q 285 1007 229 839 q 257 1001 265 1001 q 224 1011 238 1001 q 210 1035 210 1021 q 249 1078 210 1060 q 833 1200 511 1204 z "},"G":{"ha":894,"x_min":57,"x_max":863,"o":"m 794 546 q 814 547 800 547 q 849 540 835 547 q 861 514 863 532 q 841 336 849 413 q 828 210 833 260 l 811 50 q 774 6 808 25 q 707 -12 740 -12 q 676 -4 688 -12 q 667 21 665 4 q 694 266 674 88 q 713 443 714 444 q 628 247 681 332 q 490 114 575 163 q 407 80 453 92 q 314 68 361 68 q 147 122 214 68 q 57 321 57 197 q 155 626 57 461 q 365 917 253 792 q 529 1078 451 1014 q 696 1168 607 1143 q 751 1176 728 1176 q 831 1144 804 1176 q 858 1056 858 1113 q 856 1014 858 1028 q 816 971 851 989 q 747 953 781 953 q 717 960 728 953 q 710 983 707 968 q 714 1024 714 1008 q 694 1078 714 1058 q 638 1040 644 1046 q 346 710 485 928 q 247 528 285 614 q 210 358 210 442 q 233 256 210 306 q 300 185 256 206 q 364 168 335 168 q 488 245 438 168 q 567 422 538 322 q 475 411 506 414 l 461 410 q 431 429 431 410 q 456 471 431 447 q 504 499 481 494 q 794 546 639 524 z "},"Ğ":{"ha":833,"x_min":57,"x_max":999,"o":"m 794 546 q 814 547 800 547 q 849 540 835 547 q 861 514 863 532 q 841 336 849 413 q 828 210 833 260 l 811 50 q 774 6 808 25 q 707 -12 740 -12 q 676 -4 688 -12 q 667 21 665 4 q 694 266 674 88 q 713 443 714 444 q 628 247 681 332 q 490 114 575 163 q 407 80 453 92 q 314 68 361 68 q 147 122 214 68 q 57 321 57 197 q 155 626 57 461 q 365 917 253 792 q 529 1078 451 1014 q 696 1168 607 1143 q 751 1176 728 1176 q 831 1144 804 1176 q 858 1056 858 1113 q 856 1014 858 1028 q 816 971 851 989 q 747 953 781 953 q 717 960 728 953 q 710 983 707 968 q 714 1024 714 1008 q 694 1078 714 1058 q 638 1040 644 1046 q 346 710 485 928 q 247 528 285 614 q 210 358 210 442 q 233 256 210 306 q 300 185 256 206 q 364 168 335 168 q 488 245 438 168 q 567 422 538 322 q 475 411 506 414 l 461 410 q 431 429 431 410 q 456 471 431 447 q 504 499 481 494 q 794 546 639 524 m 857 1483 q 888 1518 861 1504 q 944 1532 915 1532 q 985 1521 969 1532 q 999 1489 1001 1510 q 950 1390 990 1433 q 853 1322 910 1346 q 738 1299 796 1299 q 613 1338 664 1299 q 554 1456 561 1378 q 582 1497 553 1481 q 646 1513 611 1513 q 682 1506 668 1513 q 697 1483 696 1499 q 723 1416 701 1447 q 779 1386 744 1385 q 830 1419 810 1388 q 857 1483 850 1450 z "},"Ǧ":{"ha":833,"x_min":57,"x_max":1042,"o":"m 794 546 q 814 547 800 547 q 849 540 835 547 q 861 514 863 532 q 841 336 849 413 q 828 210 833 260 l 811 50 q 774 6 808 25 q 707 -12 740 -12 q 676 -4 688 -12 q 667 21 665 4 q 694 266 674 88 q 713 443 714 444 q 628 247 681 332 q 490 114 575 163 q 407 80 453 92 q 314 68 361 68 q 147 122 214 68 q 57 321 57 197 q 155 626 57 461 q 365 917 253 792 q 529 1078 451 1014 q 696 1168 607 1143 q 751 1176 728 1176 q 831 1144 804 1176 q 858 1056 858 1113 q 856 1014 858 1028 q 816 971 851 989 q 747 953 781 953 q 717 960 728 953 q 710 983 707 968 q 714 1024 714 1008 q 694 1078 714 1058 q 638 1040 644 1046 q 346 710 485 928 q 247 528 285 614 q 210 358 210 442 q 233 256 210 306 q 300 185 256 206 q 364 168 335 168 q 488 245 438 168 q 567 422 538 322 q 475 411 506 414 l 461 410 q 431 429 431 410 q 456 471 431 447 q 504 499 481 494 q 794 546 639 524 m 593 1471 q 585 1492 585 1482 q 618 1535 585 1515 q 685 1556 651 1556 q 722 1542 710 1556 l 804 1449 l 911 1554 q 949 1581 928 1571 q 993 1592 971 1592 q 1010 1590 1004 1592 q 1033 1578 1024 1588 q 1042 1557 1042 1568 q 1031 1533 1042 1544 l 983 1485 q 915 1417 960 1461 q 838 1343 871 1374 q 806 1324 825 1332 q 768 1317 786 1317 q 744 1321 754 1317 q 726 1331 733 1324 q 710 1342 713 1338 l 593 1471 z "},"Ĝ":{"ha":833,"x_min":57,"x_max":963,"o":"m 794 546 q 814 547 800 547 q 849 540 835 547 q 861 514 863 532 q 841 336 849 413 q 828 210 833 260 l 811 50 q 774 6 808 25 q 707 -12 740 -12 q 676 -4 688 -12 q 667 21 665 4 q 694 266 674 88 q 713 443 714 444 q 628 247 681 332 q 490 114 575 163 q 407 80 453 92 q 314 68 361 68 q 147 122 214 68 q 57 321 57 197 q 155 626 57 461 q 365 917 253 792 q 529 1078 451 1014 q 696 1168 607 1143 q 751 1176 728 1176 q 831 1144 804 1176 q 858 1056 858 1113 q 856 1014 858 1028 q 816 971 851 989 q 747 953 781 953 q 717 960 728 953 q 710 983 707 968 q 714 1024 714 1008 q 694 1078 714 1058 q 638 1040 644 1046 q 346 710 485 928 q 247 528 285 614 q 210 358 210 442 q 233 256 210 306 q 300 185 256 206 q 364 168 335 168 q 488 245 438 168 q 567 422 538 322 q 475 411 506 414 l 461 410 q 431 429 431 410 q 456 471 431 447 q 504 499 481 494 q 794 546 639 524 m 682 1569 q 721 1596 694 1583 q 769 1608 747 1608 q 804 1593 793 1608 l 956 1390 q 963 1371 963 1379 q 930 1328 963 1347 q 865 1308 897 1308 q 831 1321 839 1308 q 724 1464 758 1415 l 632 1367 q 594 1340 617 1350 q 550 1329 572 1329 q 533 1331 539 1329 q 503 1361 503 1338 q 513 1385 503 1374 q 682 1569 568 1447 z "},"Ģ":{"ha":833,"x_min":57,"x_max":861,"o":"m 457 -147 q 494 -116 465 -129 q 550 -103 522 -103 q 588 -128 588 -103 q 585 -143 588 -137 q 433 -344 538 -260 q 401 -362 419 -354 q 365 -369 382 -369 q 339 -364 350 -369 q 322 -340 322 -354 q 343 -303 322 -321 q 457 -147 418 -239 m 794 546 q 814 547 800 547 q 849 540 835 547 q 861 514 863 532 q 841 336 849 413 q 828 210 833 260 l 811 50 q 774 6 808 25 q 707 -12 740 -12 q 676 -4 688 -12 q 667 21 665 4 q 694 266 674 88 q 713 443 714 444 q 628 247 681 332 q 490 114 575 163 q 407 80 453 92 q 314 68 361 68 q 147 122 214 68 q 57 321 57 197 q 155 626 57 461 q 365 917 253 792 q 529 1078 451 1014 q 696 1168 607 1143 q 751 1176 728 1176 q 831 1144 804 1176 q 858 1056 858 1113 q 856 1014 858 1028 q 816 971 851 989 q 747 953 781 953 q 717 960 728 953 q 710 983 707 968 q 714 1024 714 1008 q 694 1078 714 1058 q 638 1040 644 1046 q 346 710 485 928 q 247 528 285 614 q 210 358 210 442 q 233 256 210 306 q 300 185 256 206 q 364 168 335 168 q 488 245 438 168 q 567 422 538 322 q 475 411 506 414 l 461 410 q 431 429 431 410 q 456 471 431 447 q 504 499 481 494 q 794 546 639 524 z "},"Ġ":{"ha":833,"x_min":57,"x_max":861,"o":"m 794 546 q 814 547 800 547 q 849 540 835 547 q 861 514 863 532 q 841 336 849 413 q 828 210 833 260 l 811 50 q 774 6 808 25 q 707 -12 740 -12 q 676 -4 688 -12 q 667 21 665 4 q 694 266 674 88 q 713 443 714 444 q 628 247 681 332 q 490 114 575 163 q 407 80 453 92 q 314 68 361 68 q 147 122 214 68 q 57 321 57 197 q 155 626 57 461 q 365 917 253 792 q 529 1078 451 1014 q 696 1168 607 1143 q 751 1176 728 1176 q 831 1144 804 1176 q 858 1056 858 1113 q 856 1014 858 1028 q 816 971 851 989 q 747 953 781 953 q 717 960 728 953 q 710 983 707 968 q 714 1024 714 1008 q 694 1078 714 1058 q 638 1040 644 1046 q 346 710 485 928 q 247 528 285 614 q 210 358 210 442 q 233 256 210 306 q 300 185 256 206 q 364 168 335 168 q 488 245 438 168 q 567 422 538 322 q 475 411 506 414 l 461 410 q 431 429 431 410 q 456 471 431 447 q 504 499 481 494 q 794 546 639 524 m 736 1421 q 774 1412 757 1421 q 797 1385 792 1403 q 799 1374 799 1381 q 786 1342 799 1357 q 768 1326 781 1333 q 714 1282 760 1300 q 674 1274 689 1274 l 663 1275 q 644 1282 654 1276 q 633 1294 635 1288 q 628 1329 628 1310 q 633 1360 628 1347 q 676 1403 646 1386 q 736 1421 706 1419 z "},"Ḡ":{"ha":833,"x_min":57,"x_max":943,"o":"m 794 546 q 814 547 800 547 q 849 540 835 547 q 861 514 863 532 q 841 336 849 413 q 828 210 833 260 l 811 50 q 774 6 808 25 q 707 -12 740 -12 q 676 -4 688 -12 q 667 21 665 4 q 694 266 674 88 q 713 443 714 444 q 628 247 681 332 q 490 114 575 163 q 407 80 453 92 q 314 68 361 68 q 147 122 214 68 q 57 321 57 197 q 155 626 57 461 q 365 917 253 792 q 529 1078 451 1014 q 696 1168 607 1143 q 751 1176 728 1176 q 831 1144 804 1176 q 858 1056 858 1113 q 856 1014 858 1028 q 816 971 851 989 q 747 953 781 953 q 717 960 728 953 q 710 983 707 968 q 714 1024 714 1008 q 694 1078 714 1058 q 638 1040 644 1046 q 346 710 485 928 q 247 528 285 614 q 210 358 210 442 q 233 256 210 306 q 300 185 256 206 q 364 168 335 168 q 488 245 438 168 q 567 422 538 322 q 475 411 506 414 l 461 410 q 431 429 431 410 q 456 471 431 447 q 504 499 481 494 q 794 546 639 524 m 569 1310 q 544 1317 553 1310 q 536 1336 536 1324 q 543 1360 536 1346 q 583 1393 557 1381 q 635 1407 608 1406 l 818 1408 q 910 1407 879 1408 q 934 1399 925 1407 q 943 1379 943 1392 q 935 1356 943 1368 q 897 1322 922 1335 q 844 1308 871 1310 l 764 1308 q 569 1310 635 1308 z "},"H":{"ha":819,"x_min":36,"x_max":872,"o":"m 729 1143 q 771 1177 738 1163 q 833 1192 804 1192 q 872 1167 872 1192 q 869 1151 872 1157 q 710 679 778 922 l 747 681 q 793 661 793 682 q 760 617 793 642 q 700 589 728 592 l 685 586 q 586 93 625 356 q 544 47 582 67 q 471 28 507 28 q 440 36 451 28 q 431 60 429 44 q 531 564 467 318 q 261 497 396 539 q 194 122 229 347 q 153 76 190 96 q 79 57 115 57 q 47 65 58 57 q 39 90 36 74 q 103 456 68 286 q 75 486 75 463 q 87 514 75 500 q 121 539 99 528 q 306 1121 196 861 q 347 1155 314 1140 q 411 1169 381 1169 q 450 1144 450 1169 q 447 1129 450 1135 q 283 600 354 892 q 558 664 415 643 q 729 1143 633 924 z "},"Ħ":{"ha":819,"x_min":14,"x_max":988,"o":"m 947 1050 q 978 1042 968 1056 q 983 1010 988 1029 q 957 970 978 988 q 913 947 936 953 q 533 877 856 933 q 50 793 211 821 q 24 799 33 790 q 14 822 14 807 q 15 833 14 829 q 43 872 21 853 q 86 894 65 890 q 947 1050 183 918 m 729 1143 q 771 1177 738 1163 q 833 1192 804 1192 q 872 1167 872 1192 q 869 1151 872 1157 q 710 679 778 922 l 747 681 q 793 661 793 682 q 760 617 793 642 q 700 589 728 592 l 685 586 q 586 93 625 356 q 544 47 582 67 q 471 28 507 28 q 440 36 451 28 q 431 60 429 44 q 531 564 467 318 q 261 497 396 539 q 194 122 229 347 q 153 76 190 96 q 79 57 115 57 q 47 65 58 57 q 39 90 36 74 q 103 456 68 286 q 75 486 75 463 q 87 514 75 500 q 121 539 99 528 q 306 1121 196 861 q 347 1155 314 1140 q 411 1169 381 1169 q 450 1144 450 1169 q 447 1129 450 1135 q 283 600 354 892 q 558 664 415 643 q 729 1143 633 924 z "},"Ĥ":{"ha":833,"x_min":39,"x_max":876,"o":"m 729 1143 q 771 1177 738 1163 q 833 1192 804 1192 q 872 1167 872 1192 q 869 1151 872 1157 q 710 679 778 922 l 747 681 q 793 661 793 682 q 760 617 793 642 q 700 589 728 592 l 685 586 q 586 93 625 356 q 544 47 582 67 q 471 28 507 28 q 440 36 451 28 q 431 60 429 44 q 531 564 467 318 q 261 497 396 539 q 194 122 229 347 q 153 76 190 96 q 79 57 115 57 q 47 65 58 57 q 39 90 36 74 q 103 456 68 286 q 75 486 75 463 q 87 514 75 500 q 121 539 99 528 q 306 1121 196 861 q 347 1155 314 1140 q 411 1169 381 1169 q 450 1144 450 1169 q 447 1129 450 1135 q 283 600 354 892 q 558 664 415 643 q 729 1143 633 924 m 596 1544 q 635 1571 608 1558 q 683 1583 661 1583 q 718 1568 707 1583 l 869 1365 q 876 1346 876 1354 q 844 1303 876 1322 q 779 1283 811 1283 q 744 1296 753 1283 q 638 1439 672 1390 l 546 1342 q 508 1315 531 1325 q 464 1304 486 1304 q 447 1306 453 1304 q 417 1336 417 1313 q 426 1360 417 1349 q 596 1544 482 1422 z "},"I":{"ha":746,"x_min":-43,"x_max":807,"o":"m 740 1176 q 760 1178 746 1178 q 793 1169 779 1178 q 807 1143 807 1161 q 783 1107 807 1122 q 731 1085 758 1092 q 540 1046 631 1057 q 476 622 519 839 q 367 161 432 404 q 561 171 497 164 q 607 147 607 175 q 583 103 607 126 q 533 78 560 81 q 169 53 340 53 q -12 61 76 53 q -43 78 -43 65 q -3 119 -43 94 q 56 146 36 144 q 222 158 136 156 q 332 624 289 415 q 394 1035 375 833 q 199 1047 283 1032 q 169 1067 169 1053 q 208 1108 169 1085 q 267 1132 246 1131 q 418 1140 344 1139 l 494 1144 l 504 1144 q 740 1176 646 1151 z "},"Í":{"ha":833,"x_min":-43,"x_max":807,"o":"m 740 1176 q 760 1178 746 1178 q 793 1169 779 1178 q 807 1143 807 1161 q 783 1107 807 1122 q 731 1085 758 1092 q 540 1046 631 1057 q 476 622 519 839 q 367 161 432 404 q 561 171 497 164 q 607 147 607 175 q 583 103 607 126 q 533 78 560 81 q 169 53 340 53 q -12 61 76 53 q -43 78 -43 65 q -3 119 -43 94 q 56 146 36 144 q 222 158 136 156 q 332 624 289 415 q 394 1035 375 833 q 199 1047 283 1032 q 169 1067 169 1053 q 208 1108 169 1085 q 267 1132 246 1131 q 418 1140 344 1139 l 494 1144 l 504 1144 q 740 1176 646 1151 m 478 1306 q 460 1328 460 1314 q 483 1367 460 1346 q 626 1497 553 1432 q 659 1516 639 1508 q 697 1524 679 1524 q 725 1518 714 1524 q 743 1494 743 1510 q 721 1456 743 1475 q 578 1326 671 1408 q 545 1308 565 1315 q 506 1300 525 1300 q 478 1306 489 1300 z "},"Ĭ":{"ha":833,"x_min":-43,"x_max":807,"o":"m 740 1176 q 760 1178 746 1178 q 793 1169 779 1178 q 807 1143 807 1161 q 783 1107 807 1122 q 731 1085 758 1092 q 540 1046 631 1057 q 476 622 519 839 q 367 161 432 404 q 561 171 497 164 q 607 147 607 175 q 583 103 607 126 q 533 78 560 81 q 169 53 340 53 q -12 61 76 53 q -43 78 -43 65 q -3 119 -43 94 q 56 146 36 144 q 222 158 136 156 q 332 624 289 415 q 394 1035 375 833 q 199 1047 283 1032 q 169 1067 169 1053 q 208 1108 169 1085 q 267 1132 246 1131 q 418 1140 344 1139 l 494 1144 l 504 1144 q 740 1176 646 1151 m 651 1499 q 683 1533 656 1519 q 739 1547 710 1547 q 780 1536 764 1547 q 793 1504 796 1525 q 744 1405 785 1449 q 647 1338 704 1361 q 532 1314 590 1314 q 407 1353 458 1314 q 349 1471 356 1393 q 376 1512 347 1496 q 440 1528 406 1528 q 476 1521 463 1528 q 492 1499 490 1514 q 517 1431 496 1463 q 574 1401 539 1400 q 624 1434 604 1403 q 651 1499 644 1465 z "},"Î":{"ha":833,"x_min":-43,"x_max":807,"o":"m 740 1176 q 760 1178 746 1178 q 793 1169 779 1178 q 807 1143 807 1161 q 783 1107 807 1122 q 731 1085 758 1092 q 540 1046 631 1057 q 476 622 519 839 q 367 161 432 404 q 561 171 497 164 q 607 147 607 175 q 583 103 607 126 q 533 78 560 81 q 169 53 340 53 q -12 61 76 53 q -43 78 -43 65 q -3 119 -43 94 q 56 146 36 144 q 222 158 136 156 q 332 624 289 415 q 394 1035 375 833 q 199 1047 283 1032 q 169 1067 169 1053 q 208 1108 169 1085 q 267 1132 246 1131 q 418 1140 344 1139 l 494 1144 l 504 1144 q 740 1176 646 1151 m 494 1590 q 533 1617 507 1604 q 582 1629 560 1629 q 617 1614 606 1629 l 768 1411 q 775 1392 775 1400 q 742 1349 775 1368 q 678 1329 710 1329 q 643 1342 651 1329 q 536 1485 571 1436 l 444 1388 q 407 1360 429 1371 q 363 1350 385 1350 q 346 1351 351 1350 q 315 1382 315 1358 q 325 1406 315 1394 q 494 1590 381 1468 z "},"Ï":{"ha":833,"x_min":-43,"x_max":807,"o":"m 740 1176 q 760 1178 746 1178 q 793 1169 779 1178 q 807 1143 807 1161 q 783 1107 807 1122 q 731 1085 758 1092 q 540 1046 631 1057 q 476 622 519 839 q 367 161 432 404 q 561 171 497 164 q 607 147 607 175 q 583 103 607 126 q 533 78 560 81 q 169 53 340 53 q -12 61 76 53 q -43 78 -43 65 q -3 119 -43 94 q 56 146 36 144 q 222 158 136 156 q 332 624 289 415 q 394 1035 375 833 q 199 1047 283 1032 q 169 1067 169 1053 q 208 1108 169 1085 q 267 1132 246 1131 q 418 1140 344 1139 l 494 1144 l 504 1144 q 740 1176 646 1151 m 365 1361 q 338 1389 343 1371 q 335 1406 335 1400 q 340 1431 335 1414 q 376 1467 350 1450 q 422 1482 399 1479 l 433 1482 q 465 1478 449 1482 q 476 1469 471 1476 q 482 1456 481 1463 q 481 1443 482 1447 q 481 1442 481 1443 q 482 1442 481 1442 q 494 1419 494 1433 q 472 1383 494 1399 q 396 1354 429 1354 q 365 1361 382 1354 m 733 1447 q 739 1435 736 1443 q 719 1389 740 1413 q 680 1365 703 1374 q 633 1357 657 1357 q 579 1375 601 1354 q 563 1414 565 1389 q 574 1439 563 1426 q 600 1460 586 1451 l 625 1472 q 651 1486 629 1475 q 674 1492 660 1489 q 693 1493 679 1493 q 733 1476 724 1493 q 738 1463 738 1471 q 733 1447 738 1456 z "},"İ":{"ha":833,"x_min":-43,"x_max":807,"o":"m 740 1176 q 760 1178 746 1178 q 793 1169 779 1178 q 807 1143 807 1161 q 783 1107 807 1122 q 731 1085 758 1092 q 540 1046 631 1057 q 476 622 519 839 q 367 161 432 404 q 561 171 497 164 q 607 147 607 175 q 583 103 607 126 q 533 78 560 81 q 169 53 340 53 q -12 61 76 53 q -43 78 -43 65 q -3 119 -43 94 q 56 146 36 144 q 222 158 136 156 q 332 624 289 415 q 394 1035 375 833 q 199 1047 283 1032 q 169 1067 169 1053 q 208 1108 169 1085 q 267 1132 246 1131 q 418 1140 344 1139 l 494 1144 l 504 1144 q 740 1176 646 1151 m 532 1457 q 570 1448 553 1457 q 593 1421 588 1439 q 594 1410 594 1417 q 582 1378 594 1393 q 564 1363 576 1369 q 510 1318 556 1336 q 469 1310 485 1310 l 458 1311 q 440 1318 450 1313 q 429 1331 431 1324 q 424 1365 424 1346 q 429 1396 424 1383 q 472 1439 442 1422 q 532 1457 501 1456 z "},"Ì":{"ha":833,"x_min":-43,"x_max":807,"o":"m 740 1176 q 760 1178 746 1178 q 793 1169 779 1178 q 807 1143 807 1161 q 783 1107 807 1122 q 731 1085 758 1092 q 540 1046 631 1057 q 476 622 519 839 q 367 161 432 404 q 561 171 497 164 q 607 147 607 175 q 583 103 607 126 q 533 78 560 81 q 169 53 340 53 q -12 61 76 53 q -43 78 -43 65 q -3 119 -43 94 q 56 146 36 144 q 222 158 136 156 q 332 624 289 415 q 394 1035 375 833 q 199 1047 283 1032 q 169 1067 169 1053 q 208 1108 169 1085 q 267 1132 246 1131 q 418 1140 344 1139 l 494 1144 l 504 1144 q 740 1176 646 1151 m 326 1483 q 318 1506 318 1494 q 352 1552 318 1531 q 421 1574 386 1574 q 460 1558 449 1574 q 521 1483 501 1508 l 633 1347 q 642 1326 642 1338 q 607 1279 642 1301 q 538 1257 572 1257 q 499 1272 511 1257 l 326 1483 z "},"Ī":{"ha":746,"x_min":-43,"x_max":807,"o":"m 740 1176 q 760 1178 746 1178 q 793 1169 779 1178 q 807 1143 807 1161 q 783 1107 807 1122 q 731 1085 758 1092 q 540 1046 631 1057 q 476 622 519 839 q 367 161 432 404 q 561 171 497 164 q 607 147 607 175 q 583 103 607 126 q 533 78 560 81 q 169 53 340 53 q -12 61 76 53 q -43 78 -43 65 q -3 119 -43 94 q 56 146 36 144 q 222 158 136 156 q 332 624 289 415 q 394 1035 375 833 q 199 1047 283 1032 q 169 1067 169 1053 q 208 1108 169 1085 q 267 1132 246 1131 q 418 1140 344 1139 l 494 1144 l 504 1144 q 740 1176 646 1151 m 346 1338 q 319 1344 329 1336 q 310 1365 310 1351 q 314 1385 310 1375 q 349 1423 325 1407 q 399 1443 374 1439 q 492 1454 431 1446 q 672 1476 611 1471 q 699 1470 689 1478 q 708 1449 708 1463 q 703 1428 708 1438 q 670 1390 694 1406 q 619 1369 646 1374 q 346 1338 529 1357 z "},"Į":{"ha":778,"x_min":-43,"x_max":807,"o":"m 740 1176 q 760 1178 746 1178 q 793 1169 779 1178 q 807 1143 807 1161 q 783 1107 807 1122 q 731 1085 758 1092 q 540 1046 631 1057 q 476 622 519 839 q 367 161 432 404 q 561 171 497 164 q 607 147 607 175 q 583 103 607 126 q 533 78 560 81 q 169 53 340 53 q -12 61 76 53 q -43 78 -43 65 q -3 119 -43 94 q 56 146 36 144 q 222 158 136 156 q 332 624 289 415 q 394 1035 375 833 q 199 1047 283 1032 q 169 1067 169 1053 q 208 1108 169 1085 q 267 1132 246 1131 q 418 1140 344 1139 l 494 1144 l 504 1144 q 740 1176 646 1151 m 374 -43 q 392 -54 385 -46 q 399 -72 399 -62 q 388 -96 399 -85 q 313 -147 354 -129 q 225 -161 271 -164 q 161 -143 190 -158 q 117 -99 132 -128 q 107 -58 107 -81 q 140 31 107 -12 q 207 85 167 65 q 293 108 247 106 q 324 103 310 111 q 339 81 339 94 q 336 68 339 76 q 264 24 319 32 q 250 3 254 13 q 243 -26 243 -11 q 247 -46 243 -37 q 279 -68 258 -64 l 282 -68 l 285 -65 q 315 -47 297 -54 q 351 -40 333 -40 q 374 -43 360 -40 m 265 24 q 268 26 269 25 l 265 24 z "},"Ĩ":{"ha":750,"x_min":-43,"x_max":807,"o":"m 740 1176 q 760 1178 746 1178 q 793 1169 779 1178 q 807 1143 807 1161 q 783 1107 807 1122 q 731 1085 758 1092 q 540 1046 631 1057 q 476 622 519 839 q 367 161 432 404 q 561 171 497 164 q 607 147 607 175 q 583 103 607 126 q 533 78 560 81 q 169 53 340 53 q -12 61 76 53 q -43 78 -43 65 q -3 119 -43 94 q 56 146 36 144 q 222 158 136 156 q 332 624 289 415 q 394 1035 375 833 q 199 1047 283 1032 q 169 1067 169 1053 q 208 1108 169 1085 q 267 1132 246 1131 q 418 1140 344 1139 l 494 1144 l 504 1144 q 740 1176 646 1151 m 672 1319 q 625 1314 651 1314 q 542 1329 583 1314 q 478 1365 519 1338 q 439 1394 456 1383 q 421 1390 422 1406 q 392 1355 419 1368 q 333 1342 365 1342 q 290 1351 307 1342 q 275 1375 274 1360 q 335 1464 282 1433 q 450 1490 388 1494 q 568 1446 506 1486 q 591 1428 575 1440 q 619 1410 607 1415 l 628 1408 q 631 1417 631 1414 q 624 1429 631 1425 q 617 1446 617 1439 q 642 1475 617 1464 q 700 1486 668 1486 q 760 1467 744 1486 q 776 1426 776 1449 q 742 1362 776 1393 q 672 1319 708 1331 z "},"J":{"ha":839,"x_min":-43,"x_max":982,"o":"m 921 1174 q 942 1176 935 1176 q 970 1169 958 1176 q 982 1147 982 1163 q 894 1082 982 1108 q 722 1043 792 1057 q 743 848 736 926 q 750 689 750 769 q 746 583 750 638 q 704 349 735 454 q 600 168 674 244 q 465 72 538 103 q 318 40 393 40 q 104 107 203 40 q -36 276 6 174 q -25 309 -43 292 q 22 338 -7 326 q 76 349 51 349 q 118 329 110 349 q 208 202 149 256 q 343 140 267 149 q 364 139 350 139 q 567 382 510 139 q 594 649 594 500 q 561 1021 594 800 q 457 1017 510 1017 q 331 1025 393 1017 q 304 1042 304 1029 q 348 1083 304 1058 q 414 1110 392 1107 l 506 1118 q 738 1140 649 1129 q 921 1174 826 1150 z "},"Ĵ":{"ha":833,"x_min":-37,"x_max":982,"o":"m 921 1174 q 942 1176 935 1176 q 970 1169 958 1176 q 982 1147 982 1163 q 894 1082 982 1108 q 722 1043 792 1057 q 743 848 736 926 q 750 689 750 769 q 746 583 750 638 q 704 349 735 454 q 600 168 674 244 q 465 72 538 103 q 318 40 393 40 q 104 107 203 40 q -36 276 6 174 q -25 309 -43 292 q 22 338 -7 326 q 76 349 51 349 q 118 329 110 349 q 208 202 149 256 q 343 140 267 149 q 364 139 350 139 q 567 382 510 139 q 594 649 594 500 q 561 1021 594 800 q 457 1017 510 1017 q 331 1025 393 1017 q 304 1042 304 1029 q 348 1083 304 1058 q 414 1110 392 1107 l 506 1118 q 738 1140 649 1129 q 921 1174 826 1150 m 593 1524 q 632 1550 606 1538 q 681 1563 658 1563 q 715 1547 704 1563 l 867 1344 q 874 1325 874 1333 q 841 1282 874 1301 q 776 1263 808 1263 q 742 1275 750 1263 q 635 1418 669 1369 l 543 1321 q 506 1294 528 1304 q 461 1283 483 1283 q 444 1285 450 1283 q 414 1315 414 1292 q 424 1339 414 1328 q 593 1524 479 1401 z "},"K":{"ha":844,"x_min":10,"x_max":843,"o":"m 724 1108 q 753 1122 733 1117 q 794 1128 774 1128 q 829 1122 815 1128 q 843 1106 843 1117 q 829 1082 843 1096 l 282 550 l 264 535 q 569 636 461 636 q 692 551 668 636 q 699 494 699 519 q 690 422 699 458 q 667 336 682 385 q 642 242 649 274 q 635 175 635 211 q 638 140 635 163 q 672 132 658 139 q 685 114 685 125 q 658 76 685 99 l 624 47 q 588 28 613 38 q 540 18 563 18 q 499 43 508 18 q 483 136 483 85 q 491 217 483 176 q 514 319 499 258 q 540 439 533 389 q 544 481 544 476 q 535 517 544 504 q 503 531 526 531 q 437 513 475 531 q 390 490 399 494 q 236 415 331 465 q 164 96 201 246 q 121 53 158 71 q 50 35 83 35 q 20 42 31 35 q 14 65 10 50 q 21 97 19 89 q 49 219 29 133 q 82 371 68 304 q 58 399 58 381 q 96 442 58 419 q 168 1113 168 813 q 203 1156 168 1136 q 274 1176 239 1176 q 305 1168 293 1176 q 317 1144 317 1160 q 285 694 318 933 q 724 1108 482 893 z "},"L":{"ha":596,"x_min":7,"x_max":564,"o":"m 554 114 q 564 99 564 108 q 528 59 564 79 q 458 39 492 39 q 431 46 439 39 q 391 76 424 51 q 325 117 358 100 q 267 133 292 133 q 220 117 244 133 q 174 83 196 101 q 142 56 151 64 q 97 32 124 42 q 47 22 69 22 q 17 29 28 22 q 11 51 7 36 l 50 218 q 257 1088 168 731 q 298 1128 263 1111 q 367 1146 333 1146 q 394 1139 385 1146 q 400 1118 404 1132 q 278 589 358 942 l 186 193 q 276 222 233 217 q 308 225 299 225 q 426 197 369 225 q 554 114 482 168 z "},"Ĺ":{"ha":833,"x_min":10,"x_max":615,"o":"m 554 114 q 564 99 564 108 q 528 59 564 79 q 458 39 492 39 q 431 46 439 39 q 391 76 424 51 q 325 117 358 100 q 267 133 292 133 q 220 117 244 133 q 174 83 196 101 q 142 56 151 64 q 97 32 124 42 q 47 22 69 22 q 17 29 28 22 q 11 51 7 36 l 50 218 q 257 1088 168 731 q 298 1128 263 1111 q 367 1146 333 1146 q 394 1139 385 1146 q 400 1118 404 1132 q 278 589 358 942 l 186 193 q 276 222 233 217 q 308 225 299 225 q 426 197 369 225 q 554 114 482 168 m 350 1285 q 332 1307 332 1293 q 356 1346 332 1325 q 499 1476 425 1411 q 531 1495 511 1488 q 569 1503 551 1503 q 597 1497 586 1503 q 615 1474 615 1489 q 593 1435 615 1454 q 450 1306 543 1388 q 417 1287 438 1294 q 378 1279 397 1279 q 350 1285 361 1279 z "},"Ľ":{"ha":833,"x_min":10,"x_max":769,"o":"m 554 114 q 564 99 564 108 q 528 59 564 79 q 458 39 492 39 q 431 46 439 39 q 391 76 424 51 q 325 117 358 100 q 267 133 292 133 q 220 117 244 133 q 174 83 196 101 q 142 56 151 64 q 97 32 124 42 q 47 22 69 22 q 17 29 28 22 q 11 51 7 36 l 50 218 q 257 1088 168 731 q 298 1128 263 1111 q 367 1146 333 1146 q 394 1139 385 1146 q 400 1118 404 1132 q 278 589 358 942 l 186 193 q 276 222 233 217 q 308 225 299 225 q 426 197 369 225 q 554 114 482 168 m 739 901 q 705 858 738 876 q 639 840 672 840 q 607 849 618 840 q 597 875 596 857 q 625 1150 617 1058 q 661 1193 628 1175 q 728 1211 694 1211 q 760 1203 749 1211 q 769 1178 771 1194 l 739 901 z "},"Ŀ":{"ha":833,"x_min":10,"x_max":564,"o":"m 554 114 q 564 99 564 108 q 528 59 564 79 q 458 39 492 39 q 431 46 439 39 q 391 76 424 51 q 325 117 358 100 q 267 133 292 133 q 220 117 244 133 q 174 83 196 101 q 142 56 151 64 q 97 32 124 42 q 47 22 69 22 q 17 29 28 22 q 11 51 7 36 l 50 218 q 257 1088 168 731 q 298 1128 263 1111 q 367 1146 333 1146 q 394 1139 385 1146 q 400 1118 404 1132 q 278 589 358 942 l 186 193 q 276 222 233 217 q 308 225 299 225 q 426 197 369 225 q 554 114 482 168 m 549 578 q 564 553 564 569 q 542 518 564 538 l 531 510 q 486 482 511 490 q 444 474 461 474 q 411 482 426 474 q 397 494 403 486 q 393 510 392 501 q 413 547 400 533 q 433 574 415 560 q 483 596 456 592 q 503 597 490 597 q 529 593 517 597 q 549 578 542 589 z "},"Ł":{"ha":596,"x_min":7,"x_max":564,"o":"m 554 114 q 564 99 564 108 q 528 59 564 79 q 458 39 492 39 q 431 46 439 39 q 391 76 424 51 q 325 117 358 100 q 267 133 292 133 q 220 117 244 133 q 174 83 196 101 q 142 56 151 64 q 97 32 124 42 q 47 22 69 22 q 17 29 28 22 q 11 51 7 36 l 40 174 q 215 917 133 572 q 256 958 221 940 q 325 975 292 975 q 353 968 343 975 q 358 947 363 961 q 256 506 314 774 q 186 193 217 325 q 276 222 233 217 q 308 225 299 225 q 426 197 369 225 q 554 114 482 168 m 56 447 q 35 442 46 442 q 15 451 22 442 q 7 478 7 461 q 25 527 8 503 q 64 564 42 551 q 120 597 89 578 q 189 636 151 615 q 368 740 307 707 q 388 746 378 746 q 408 735 400 746 q 414 707 415 725 q 398 660 414 683 q 360 622 382 638 q 297 586 325 600 q 56 447 99 471 z "},"M":{"ha":951,"x_min":26,"x_max":985,"o":"m 832 1182 q 881 1216 842 1197 q 949 1235 921 1235 q 979 1200 985 1235 q 941 1006 964 1110 q 913 875 918 903 q 846 549 865 658 l 836 494 q 812 349 821 414 q 803 221 803 283 q 865 -6 803 72 q 874 -28 874 -17 q 838 -76 874 -54 q 768 -97 803 -97 q 728 -82 739 -97 q 654 178 654 10 q 662 307 654 244 q 686 467 669 369 q 760 831 708 608 q 757 826 757 828 q 721 757 749 813 q 643 624 679 672 q 551 557 607 575 q 501 549 525 549 q 432 585 454 549 q 406 685 410 622 l 401 751 q 375 661 389 713 l 349 571 q 263 292 300 403 q 178 76 226 182 q 134 42 169 57 q 67 26 99 26 q 38 33 49 26 q 26 51 26 39 q 31 67 26 58 q 118 292 81 178 q 210 594 156 407 l 235 681 q 321 964 290 869 l 329 993 q 356 1068 343 1039 q 388 1121 368 1097 q 428 1149 399 1135 q 485 1163 458 1163 q 526 1126 525 1163 q 540 939 529 1064 l 546 874 q 547 824 547 861 q 551 717 547 751 l 588 779 q 658 903 604 810 q 832 1182 731 1024 z "},"N":{"ha":839,"x_min":14,"x_max":901,"o":"m 835 1176 q 854 1178 842 1178 q 890 1169 878 1178 q 901 1146 901 1160 q 879 1105 901 1125 q 825 1079 857 1085 l 819 1072 q 790 1029 807 1060 q 738 892 764 981 q 676 554 703 767 q 646 244 660 415 q 644 214 644 235 q 636 141 642 169 q 615 93 631 113 q 572 65 603 79 q 514 50 540 50 q 472 78 479 50 q 399 378 442 181 q 378 468 392 408 q 353 572 364 528 l 315 715 q 294 539 307 628 q 247 272 272 379 q 164 81 221 165 q 122 42 149 57 q 67 28 94 28 q 31 35 47 28 q 14 57 14 43 q 19 74 14 67 q 97 272 71 165 q 144 535 122 378 q 176 968 176 769 q 174 1089 176 1049 q 206 1135 172 1115 q 275 1156 239 1156 q 317 1142 303 1156 q 366 1070 349 1110 q 410 953 383 1031 q 497 650 444 853 q 524 546 507 615 q 543 678 529 589 q 591 906 565 811 q 676 1081 617 1000 q 835 1176 736 1163 z "},"Ń":{"ha":833,"x_min":14,"x_max":901,"o":"m 835 1176 q 854 1178 842 1178 q 890 1169 878 1178 q 901 1146 901 1160 q 879 1105 901 1125 q 825 1079 857 1085 l 819 1072 q 790 1029 807 1060 q 738 892 764 981 q 676 554 703 767 q 646 244 660 415 q 644 214 644 235 q 636 141 642 169 q 615 93 631 113 q 572 65 603 79 q 514 50 540 50 q 472 78 479 50 q 399 378 442 181 q 378 468 392 408 q 353 572 364 528 l 315 715 q 294 539 307 628 q 247 272 272 379 q 164 81 221 165 q 122 42 149 57 q 67 28 94 28 q 31 35 47 28 q 14 57 14 43 q 19 74 14 67 q 97 272 71 165 q 144 535 122 378 q 176 968 176 769 q 174 1089 176 1049 q 206 1135 172 1115 q 275 1156 239 1156 q 317 1142 303 1156 q 366 1070 349 1110 q 410 953 383 1031 q 497 650 444 853 q 524 546 507 615 q 543 678 529 589 q 591 906 565 811 q 676 1081 617 1000 q 835 1176 736 1163 m 446 1321 q 428 1343 428 1329 q 451 1382 428 1361 q 594 1513 521 1447 q 627 1531 607 1524 q 665 1539 647 1539 q 693 1533 682 1539 q 711 1510 711 1525 q 689 1471 711 1490 q 546 1342 639 1424 q 513 1323 533 1331 q 474 1315 493 1315 q 446 1321 457 1315 z "},"Ň":{"ha":833,"x_min":14,"x_max":901,"o":"m 835 1176 q 854 1178 842 1178 q 890 1169 878 1178 q 901 1146 901 1160 q 879 1105 901 1125 q 825 1079 857 1085 l 819 1072 q 790 1029 807 1060 q 738 892 764 981 q 676 554 703 767 q 646 244 660 415 q 644 214 644 235 q 636 141 642 169 q 615 93 631 113 q 572 65 603 79 q 514 50 540 50 q 472 78 479 50 q 399 378 442 181 q 378 468 392 408 q 353 572 364 528 l 315 715 q 294 539 307 628 q 247 272 272 379 q 164 81 221 165 q 122 42 149 57 q 67 28 94 28 q 31 35 47 28 q 14 57 14 43 q 19 74 14 67 q 97 272 71 165 q 144 535 122 378 q 176 968 176 769 q 174 1089 176 1049 q 206 1135 172 1115 q 275 1156 239 1156 q 317 1142 303 1156 q 366 1070 349 1110 q 410 953 383 1031 q 497 650 444 853 q 524 546 507 615 q 543 678 529 589 q 591 906 565 811 q 676 1081 617 1000 q 835 1176 736 1163 m 363 1486 q 354 1507 354 1497 q 388 1551 354 1531 q 454 1571 421 1571 q 492 1557 479 1571 l 574 1464 l 681 1569 q 719 1597 697 1586 q 763 1607 740 1607 q 779 1606 774 1607 q 802 1593 793 1603 q 811 1572 811 1583 q 800 1549 811 1560 l 753 1500 q 685 1433 729 1476 q 607 1358 640 1389 q 575 1340 594 1347 q 538 1332 556 1332 q 514 1336 524 1332 q 496 1346 503 1339 q 479 1357 482 1353 l 363 1486 z "},"Ṅ":{"ha":833,"x_min":14,"x_max":901,"o":"m 835 1176 q 854 1178 842 1178 q 890 1169 878 1178 q 901 1146 901 1160 q 879 1105 901 1125 q 825 1079 857 1085 l 819 1072 q 790 1029 807 1060 q 738 892 764 981 q 676 554 703 767 q 646 244 660 415 q 644 214 644 235 q 636 141 642 169 q 615 93 631 113 q 572 65 603 79 q 514 50 540 50 q 472 78 479 50 q 399 378 442 181 q 378 468 392 408 q 353 572 364 528 l 315 715 q 294 539 307 628 q 247 272 272 379 q 164 81 221 165 q 122 42 149 57 q 67 28 94 28 q 31 35 47 28 q 14 57 14 43 q 19 74 14 67 q 97 272 71 165 q 144 535 122 378 q 176 968 176 769 q 174 1089 176 1049 q 206 1135 172 1115 q 275 1156 239 1156 q 317 1142 303 1156 q 366 1070 349 1110 q 410 953 383 1031 q 497 650 444 853 q 524 546 507 615 q 543 678 529 589 q 591 906 565 811 q 676 1081 617 1000 q 835 1176 736 1163 m 583 1508 q 622 1499 604 1508 q 644 1472 639 1490 q 646 1461 646 1468 q 633 1429 646 1444 q 615 1414 628 1421 q 561 1369 607 1388 q 521 1361 536 1361 l 510 1363 q 492 1369 501 1364 q 481 1382 482 1375 q 475 1417 475 1397 q 481 1447 475 1435 q 523 1490 493 1474 q 583 1508 553 1507 z "},"Ŋ":{"ha":813,"x_min":14,"x_max":901,"o":"m 524 546 q 532 557 526 557 q 575 516 546 557 q 626 424 604 475 q 647 346 649 374 q 637 97 643 185 q 619 -58 631 8 q 578 -250 607 -125 l 536 -440 q 461 -628 511 -553 q 318 -721 411 -704 q 283 -724 293 -724 q 144 -644 190 -724 q 76 -447 99 -565 q 87 -406 72 -425 q 127 -374 101 -386 q 176 -361 153 -361 q 208 -370 194 -361 q 224 -397 221 -379 q 233 -454 225 -404 q 260 -547 242 -504 q 304 -601 279 -590 q 321 -606 313 -606 q 355 -580 343 -606 q 372 -531 367 -554 q 379 -501 378 -507 q 454 -53 407 -396 q 472 78 472 82 q 503 351 486 174 q 524 546 515 479 m 835 1176 q 854 1178 842 1178 q 890 1169 878 1178 q 901 1146 901 1160 q 879 1105 901 1125 q 825 1079 857 1085 l 819 1072 q 790 1029 807 1060 q 738 892 764 981 q 676 554 703 767 q 646 244 660 415 q 644 214 644 235 q 636 141 642 169 q 615 93 631 113 q 572 65 603 79 q 514 50 540 50 q 472 78 479 50 q 399 378 442 181 q 378 468 392 408 q 353 572 364 528 l 315 715 q 294 539 307 628 q 247 272 272 379 q 164 81 221 165 q 122 42 149 57 q 67 28 94 28 q 31 35 47 28 q 14 57 14 43 q 19 74 14 67 q 97 272 71 165 q 144 535 122 378 q 176 968 176 769 q 174 1089 176 1049 q 206 1135 172 1115 q 275 1156 239 1156 q 317 1142 303 1156 q 366 1070 349 1110 q 410 953 383 1031 q 497 650 444 853 q 524 546 507 615 q 543 678 529 589 q 591 906 565 811 q 676 1081 617 1000 q 835 1176 736 1163 z "},"Ñ":{"ha":839,"x_min":14,"x_max":901,"o":"m 835 1176 q 854 1178 842 1178 q 890 1169 878 1178 q 901 1146 901 1160 q 879 1105 901 1125 q 825 1079 857 1085 l 819 1072 q 790 1029 807 1060 q 738 892 764 981 q 676 554 703 767 q 646 244 660 415 q 644 214 644 235 q 636 141 642 169 q 615 93 631 113 q 572 65 603 79 q 514 50 540 50 q 472 78 479 50 q 399 378 442 181 q 378 468 392 408 q 353 572 364 528 l 315 715 q 294 539 307 628 q 247 272 272 379 q 164 81 221 165 q 122 42 149 57 q 67 28 94 28 q 31 35 47 28 q 14 57 14 43 q 19 74 14 67 q 97 272 71 165 q 144 535 122 378 q 176 968 176 769 q 174 1089 176 1049 q 206 1135 172 1115 q 275 1156 239 1156 q 317 1142 303 1156 q 366 1070 349 1110 q 410 953 383 1031 q 497 650 444 853 q 524 546 507 615 q 543 678 529 589 q 591 906 565 811 q 676 1081 617 1000 q 835 1176 736 1163 m 697 1293 q 657 1289 676 1289 q 567 1307 613 1289 q 504 1346 538 1319 q 477 1370 503 1347 q 447 1372 451 1393 q 420 1338 446 1350 q 363 1326 394 1326 q 318 1336 336 1326 q 301 1363 300 1346 q 356 1443 310 1414 q 458 1472 401 1472 q 481 1471 474 1472 q 597 1422 535 1465 q 620 1403 606 1417 q 647 1385 635 1390 l 656 1383 q 658 1392 658 1389 q 651 1404 658 1400 q 646 1421 646 1415 q 670 1448 646 1438 q 725 1458 694 1458 q 763 1453 746 1458 q 789 1436 781 1447 q 804 1397 804 1419 q 769 1333 804 1364 q 697 1293 733 1301 z "},"O":{"ha":878,"x_min":26,"x_max":913,"o":"m 501 204 q 628 357 565 257 q 731 574 690 457 q 771 792 771 690 q 715 975 771 903 q 536 1061 658 1047 q 286 778 418 1038 q 174 390 174 556 q 188 281 174 332 q 249 179 206 214 q 351 144 293 144 q 501 204 429 144 m 733 1132 q 868 1003 824 1092 q 913 800 913 914 q 892 640 913 728 q 736 300 846 457 q 471 75 626 143 q 311 40 390 40 q 126 100 204 40 q 32 271 49 160 q 26 353 26 308 q 83 638 26 492 q 229 911 140 785 q 403 1090 301 1014 q 610 1165 506 1165 q 731 1133 672 1165 l 733 1132 z "},"Ó":{"ha":833,"x_min":26,"x_max":913,"o":"m 501 204 q 628 357 565 257 q 731 574 690 457 q 771 792 771 690 q 715 975 771 903 q 536 1061 658 1047 q 286 778 418 1038 q 174 390 174 556 q 188 281 174 332 q 249 179 206 214 q 351 144 293 144 q 501 204 429 144 m 733 1132 q 868 1003 824 1092 q 913 800 913 914 q 892 640 913 728 q 736 300 846 457 q 471 75 626 143 q 311 40 390 40 q 126 100 204 40 q 32 271 49 160 q 26 353 26 308 q 83 638 26 492 q 229 911 140 785 q 403 1090 301 1014 q 610 1165 506 1165 q 731 1133 672 1165 l 733 1132 m 493 1260 q 475 1282 475 1268 q 499 1321 475 1300 q 642 1451 568 1386 q 674 1470 654 1463 q 713 1478 694 1478 q 740 1472 729 1478 q 758 1449 758 1464 q 736 1410 758 1429 q 593 1281 686 1363 q 560 1262 581 1269 q 521 1254 540 1254 q 493 1260 504 1254 z "},"Ŏ":{"ha":833,"x_min":26,"x_max":913,"o":"m 501 204 q 628 357 565 257 q 731 574 690 457 q 771 792 771 690 q 715 975 771 903 q 536 1061 658 1047 q 286 778 418 1038 q 174 390 174 556 q 188 281 174 332 q 249 179 206 214 q 351 144 293 144 q 501 204 429 144 m 733 1132 q 868 1003 824 1092 q 913 800 913 914 q 892 640 913 728 q 736 300 846 457 q 471 75 626 143 q 311 40 390 40 q 126 100 204 40 q 32 271 49 160 q 26 353 26 308 q 83 638 26 492 q 229 911 140 785 q 403 1090 301 1014 q 610 1165 506 1165 q 731 1133 672 1165 l 733 1132 m 751 1482 q 783 1517 756 1503 q 839 1531 810 1531 q 880 1519 864 1531 q 893 1488 896 1508 q 844 1388 885 1432 q 747 1321 804 1344 q 632 1297 690 1297 q 507 1337 558 1297 q 449 1454 456 1376 q 476 1495 447 1479 q 540 1511 506 1511 q 576 1504 563 1511 q 592 1482 590 1497 q 617 1415 596 1446 q 674 1385 639 1383 q 724 1417 704 1386 q 751 1482 744 1449 z "},"Ô":{"ha":833,"x_min":26,"x_max":961,"o":"m 501 204 q 628 357 565 257 q 731 574 690 457 q 771 792 771 690 q 715 975 771 903 q 536 1061 658 1047 q 286 778 418 1038 q 174 390 174 556 q 188 281 174 332 q 249 179 206 214 q 351 144 293 144 q 501 204 429 144 m 733 1132 q 868 1003 824 1092 q 913 800 913 914 q 892 640 913 728 q 736 300 846 457 q 471 75 626 143 q 311 40 390 40 q 126 100 204 40 q 32 271 49 160 q 26 353 26 308 q 83 638 26 492 q 229 911 140 785 q 403 1090 301 1014 q 610 1165 506 1165 q 731 1133 672 1165 l 733 1132 m 681 1581 q 719 1607 693 1594 q 768 1619 746 1619 q 803 1604 792 1619 l 954 1401 q 961 1382 961 1390 q 928 1339 961 1358 q 864 1319 896 1319 q 829 1332 838 1319 q 722 1475 757 1426 l 631 1378 q 593 1351 615 1361 q 549 1340 571 1340 q 532 1342 538 1340 q 501 1372 501 1349 q 511 1396 501 1385 q 681 1581 567 1458 z "},"Ö":{"ha":833,"x_min":26,"x_max":913,"o":"m 501 204 q 628 357 565 257 q 731 574 690 457 q 771 792 771 690 q 715 975 771 903 q 536 1061 658 1047 q 286 778 418 1038 q 174 390 174 556 q 188 281 174 332 q 249 179 206 214 q 351 144 293 144 q 501 204 429 144 m 733 1132 q 868 1003 824 1092 q 913 800 913 914 q 892 640 913 728 q 736 300 846 457 q 471 75 626 143 q 311 40 390 40 q 126 100 204 40 q 32 271 49 160 q 26 353 26 308 q 83 638 26 492 q 229 911 140 785 q 403 1090 301 1014 q 610 1165 506 1165 q 731 1133 672 1165 l 733 1132 m 496 1360 q 468 1388 474 1369 q 465 1404 465 1399 q 471 1429 465 1413 q 507 1465 481 1449 q 553 1481 529 1478 l 564 1481 q 596 1476 579 1481 q 606 1468 601 1475 q 613 1454 611 1461 q 611 1442 613 1446 q 611 1441 611 1442 q 613 1440 611 1440 q 625 1418 625 1432 q 603 1382 625 1397 q 526 1353 560 1353 q 496 1360 513 1353 m 864 1446 q 869 1433 867 1442 q 850 1388 871 1411 q 810 1364 833 1372 q 764 1356 788 1356 q 710 1374 732 1353 q 693 1413 696 1388 q 705 1438 693 1425 q 731 1458 717 1450 l 756 1471 q 782 1485 760 1474 q 804 1490 790 1488 q 824 1492 810 1492 q 864 1475 854 1492 q 868 1461 868 1469 q 864 1446 868 1454 z "},"Ò":{"ha":833,"x_min":26,"x_max":913,"o":"m 501 204 q 628 357 565 257 q 731 574 690 457 q 771 792 771 690 q 715 975 771 903 q 536 1061 658 1047 q 286 778 418 1038 q 174 390 174 556 q 188 281 174 332 q 249 179 206 214 q 351 144 293 144 q 501 204 429 144 m 733 1132 q 868 1003 824 1092 q 913 800 913 914 q 892 640 913 728 q 736 300 846 457 q 471 75 626 143 q 311 40 390 40 q 126 100 204 40 q 32 271 49 160 q 26 353 26 308 q 83 638 26 492 q 229 911 140 785 q 403 1090 301 1014 q 610 1165 506 1165 q 731 1133 672 1165 l 733 1132 m 517 1526 q 508 1549 508 1538 q 542 1595 508 1574 q 611 1617 576 1617 q 650 1601 639 1617 q 711 1526 692 1551 l 824 1390 q 832 1369 832 1381 q 797 1322 832 1344 q 728 1300 763 1300 q 689 1315 701 1300 l 517 1526 z "},"Ơ":{"ha":833,"x_min":26,"x_max":1144,"o":"m 985 1099 q 978 1117 978 1106 q 1011 1159 978 1139 q 1076 1179 1044 1179 q 1110 1167 1100 1179 q 1144 1085 1144 1128 q 1113 1001 1144 1042 q 1031 937 1081 961 q 935 913 982 913 q 900 917 917 913 q 878 927 886 919 q 869 946 869 935 q 881 969 869 956 q 924 999 897 989 q 976 1006 951 1008 l 978 1006 q 997 1028 992 1006 q 1001 1053 1001 1040 q 985 1099 1001 1081 m 501 204 q 628 357 565 257 q 731 574 690 457 q 771 792 771 690 q 715 975 771 903 q 536 1061 658 1047 q 286 778 418 1038 q 174 390 174 556 q 188 281 174 332 q 249 179 206 214 q 351 144 293 144 q 501 204 429 144 m 733 1132 q 868 1003 824 1092 q 913 800 913 914 q 892 640 913 728 q 736 300 846 457 q 471 75 626 143 q 311 40 390 40 q 126 100 204 40 q 32 271 49 160 q 26 353 26 308 q 83 638 26 492 q 229 911 140 785 q 403 1090 301 1014 q 610 1165 506 1165 q 731 1133 672 1165 l 733 1132 z "},"Ő":{"ha":833,"x_min":26,"x_max":949,"o":"m 501 204 q 628 357 565 257 q 731 574 690 457 q 771 792 771 690 q 715 975 771 903 q 536 1061 658 1047 q 286 778 418 1038 q 174 390 174 556 q 188 281 174 332 q 249 179 206 214 q 351 144 293 144 q 501 204 429 144 m 733 1132 q 868 1003 824 1092 q 913 800 913 914 q 892 640 913 728 q 736 300 846 457 q 471 75 626 143 q 311 40 390 40 q 126 100 204 40 q 32 271 49 160 q 26 353 26 308 q 83 638 26 492 q 229 911 140 785 q 403 1090 301 1014 q 610 1165 506 1165 q 731 1133 672 1165 l 733 1132 m 681 1507 q 711 1525 692 1518 q 749 1532 731 1532 q 775 1526 764 1532 q 792 1504 792 1519 q 771 1467 792 1488 q 646 1353 688 1389 q 614 1335 633 1342 q 578 1328 594 1328 q 550 1333 561 1328 q 533 1356 533 1340 q 554 1393 533 1372 q 681 1507 615 1450 m 932 1497 q 949 1475 949 1490 q 928 1436 949 1457 l 888 1399 q 819 1339 817 1336 q 753 1315 789 1315 q 731 1318 738 1315 q 713 1328 719 1321 q 707 1346 707 1336 q 718 1369 707 1358 q 811 1456 732 1382 l 836 1478 q 867 1496 847 1489 q 906 1503 888 1503 q 932 1497 921 1503 z "},"Ō":{"ha":833,"x_min":26,"x_max":913,"o":"m 501 204 q 628 357 565 257 q 731 574 690 457 q 771 792 771 690 q 715 975 771 903 q 536 1061 658 1047 q 286 778 418 1038 q 174 390 174 556 q 188 281 174 332 q 249 179 206 214 q 351 144 293 144 q 501 204 429 144 m 733 1132 q 868 1003 824 1092 q 913 800 913 914 q 892 640 913 728 q 736 300 846 457 q 471 75 626 143 q 311 40 390 40 q 126 100 204 40 q 32 271 49 160 q 26 353 26 308 q 83 638 26 492 q 229 911 140 785 q 403 1090 301 1014 q 610 1165 506 1165 q 731 1133 672 1165 l 733 1132 m 510 1407 q 485 1414 493 1407 q 476 1433 476 1421 q 483 1457 476 1443 q 523 1490 497 1478 q 575 1504 549 1503 l 758 1506 q 850 1504 819 1506 q 874 1497 865 1504 q 883 1476 883 1489 q 875 1453 883 1465 q 837 1419 863 1432 q 785 1406 811 1407 l 704 1406 q 510 1407 575 1406 z "},"Ṓ":{"ha":833,"x_min":26,"x_max":963,"o":"m 501 204 q 628 357 565 257 q 731 574 690 457 q 771 792 771 690 q 715 975 771 903 q 536 1061 658 1047 q 286 778 418 1038 q 174 390 174 556 q 188 281 174 332 q 249 179 206 214 q 351 144 293 144 q 501 204 429 144 m 733 1132 q 868 1003 824 1092 q 913 800 913 914 q 892 640 913 728 q 736 300 846 457 q 471 75 626 143 q 311 40 390 40 q 126 100 204 40 q 32 271 49 160 q 26 353 26 308 q 83 638 26 492 q 229 911 140 785 q 403 1090 301 1014 q 610 1165 506 1165 q 731 1133 672 1165 l 733 1132 m 517 1290 q 492 1297 500 1290 q 483 1317 483 1304 q 490 1340 483 1326 q 530 1374 504 1361 q 582 1388 556 1386 l 765 1389 q 857 1388 826 1389 q 881 1380 872 1388 q 890 1360 890 1372 q 882 1336 890 1349 q 844 1303 869 1315 q 792 1289 818 1290 l 711 1289 q 517 1290 582 1289 m 697 1528 q 679 1550 679 1536 q 703 1589 679 1568 q 846 1719 772 1654 q 878 1738 858 1731 q 917 1746 899 1746 q 944 1740 933 1746 q 963 1717 963 1732 q 940 1678 963 1697 q 797 1549 890 1631 q 765 1530 785 1538 q 725 1522 744 1522 q 697 1528 708 1522 z "},"Ṑ":{"ha":833,"x_min":26,"x_max":913,"o":"m 501 204 q 628 357 565 257 q 731 574 690 457 q 771 792 771 690 q 715 975 771 903 q 536 1061 658 1047 q 286 778 418 1038 q 174 390 174 556 q 188 281 174 332 q 249 179 206 214 q 351 144 293 144 q 501 204 429 144 m 733 1132 q 868 1003 824 1092 q 913 800 913 914 q 892 640 913 728 q 736 300 846 457 q 471 75 626 143 q 311 40 390 40 q 126 100 204 40 q 32 271 49 160 q 26 353 26 308 q 83 638 26 492 q 229 911 140 785 q 403 1090 301 1014 q 610 1165 506 1165 q 731 1133 672 1165 l 733 1132 m 483 1281 q 458 1288 467 1281 q 450 1307 450 1294 q 457 1331 450 1317 q 497 1364 471 1351 q 549 1378 522 1376 l 732 1379 q 824 1378 793 1379 q 848 1370 839 1378 q 857 1350 857 1363 q 849 1326 857 1339 q 810 1293 836 1306 q 758 1279 785 1281 l 678 1279 q 483 1281 549 1279 m 549 1699 q 540 1721 540 1710 q 574 1767 540 1746 q 643 1789 608 1789 q 682 1774 671 1789 q 743 1699 724 1724 l 856 1563 q 864 1542 864 1553 q 829 1494 864 1517 q 760 1472 794 1472 q 721 1488 733 1472 l 549 1699 z "},"Ø":{"ha":833,"x_min":26,"x_max":913,"o":"m 658 994 q 694 1011 668 1004 q 742 1018 721 1018 q 774 1003 774 1018 q 761 979 774 994 q 434 586 563 747 q 193 250 306 425 q 156 222 182 233 q 106 211 131 211 q 67 235 67 211 q 76 260 67 246 q 360 667 218 483 q 658 994 501 851 m 501 204 q 628 357 565 257 q 731 574 690 457 q 771 792 771 690 q 715 975 771 903 q 536 1061 658 1047 q 286 778 418 1038 q 174 390 174 556 q 188 281 174 332 q 249 179 206 214 q 351 144 293 144 q 501 204 429 144 m 733 1132 q 868 1003 824 1092 q 913 800 913 914 q 892 640 913 728 q 736 300 846 457 q 471 75 626 143 q 311 40 390 40 q 126 100 204 40 q 32 271 49 160 q 26 353 26 308 q 83 638 26 492 q 229 911 140 785 q 403 1090 301 1014 q 610 1165 506 1165 q 731 1133 672 1165 l 733 1132 z "},"Ǿ":{"ha":917,"x_min":26,"x_max":913,"o":"m 658 994 q 694 1011 668 1004 q 742 1018 721 1018 q 774 1003 774 1018 q 761 979 774 994 q 434 586 563 747 q 193 250 306 425 q 156 222 182 233 q 106 211 131 211 q 67 235 67 211 q 76 260 67 246 q 360 667 218 483 q 658 994 501 851 m 501 204 q 628 357 565 257 q 731 574 690 457 q 771 792 771 690 q 715 975 771 903 q 536 1061 658 1047 q 286 778 418 1038 q 174 390 174 556 q 188 281 174 332 q 249 179 206 214 q 351 144 293 144 q 501 204 429 144 m 733 1132 q 868 1003 824 1092 q 913 800 913 914 q 892 640 913 728 q 736 300 846 457 q 471 75 626 143 q 311 40 390 40 q 126 100 204 40 q 32 271 49 160 q 26 353 26 308 q 83 638 26 492 q 229 911 140 785 q 403 1090 301 1014 q 610 1165 506 1165 q 731 1133 672 1165 l 733 1132 m 436 1308 q 418 1331 418 1317 q 442 1369 418 1349 q 585 1500 511 1435 q 617 1519 597 1511 q 656 1526 638 1526 q 683 1521 672 1526 q 701 1497 701 1513 q 679 1458 701 1478 q 536 1329 629 1411 q 503 1310 524 1318 q 464 1303 483 1303 q 436 1308 447 1303 z "},"Õ":{"ha":878,"x_min":26,"x_max":919,"o":"m 501 204 q 628 357 565 257 q 731 574 690 457 q 771 792 771 690 q 715 975 771 903 q 536 1061 658 1047 q 286 778 418 1038 q 174 390 174 556 q 188 281 174 332 q 249 179 206 214 q 351 144 293 144 q 501 204 429 144 m 733 1132 q 868 1003 824 1092 q 913 800 913 914 q 892 640 913 728 q 736 300 846 457 q 471 75 626 143 q 311 40 390 40 q 126 100 204 40 q 32 271 49 160 q 26 353 26 308 q 83 638 26 492 q 229 911 140 785 q 403 1090 301 1014 q 610 1165 506 1165 q 731 1133 672 1165 l 733 1132 m 801 1331 q 674 1358 733 1326 q 615 1403 650 1371 q 600 1419 613 1406 q 576 1440 588 1433 q 563 1436 565 1447 q 537 1408 557 1418 q 489 1399 517 1399 q 433 1410 457 1399 q 415 1442 410 1422 q 469 1512 428 1488 q 561 1536 510 1536 q 604 1531 586 1536 q 715 1471 658 1519 q 735 1451 721 1465 q 761 1428 749 1436 q 765 1426 764 1428 q 769 1425 767 1425 q 774 1436 774 1432 q 768 1446 774 1442 q 764 1461 764 1454 q 783 1485 764 1476 q 831 1494 803 1494 q 878 1487 856 1494 q 908 1465 900 1479 q 919 1431 919 1446 q 881 1365 919 1394 q 801 1331 842 1336 z "},"Ṍ":{"ha":833,"x_min":26,"x_max":913,"o":"m 501 204 q 628 357 565 257 q 731 574 690 457 q 771 792 771 690 q 715 975 771 903 q 536 1061 658 1047 q 286 778 418 1038 q 174 390 174 556 q 188 281 174 332 q 249 179 206 214 q 351 144 293 144 q 501 204 429 144 m 733 1132 q 868 1003 824 1092 q 913 800 913 914 q 892 640 913 728 q 736 300 846 457 q 471 75 626 143 q 311 40 390 40 q 126 100 204 40 q 32 271 49 160 q 26 353 26 308 q 83 638 26 492 q 229 911 140 785 q 403 1090 301 1014 q 610 1165 506 1165 q 731 1133 672 1165 l 733 1132 m 779 1235 q 651 1267 711 1232 q 596 1314 628 1282 q 543 1349 550 1369 q 519 1322 538 1331 q 474 1314 500 1314 q 416 1326 440 1314 q 397 1358 392 1339 q 449 1425 410 1403 q 539 1447 489 1447 q 590 1442 568 1447 q 699 1378 642 1429 q 716 1358 703 1374 q 743 1333 729 1342 q 750 1331 749 1331 q 756 1340 756 1335 q 750 1351 756 1346 q 746 1365 746 1360 q 763 1388 746 1381 q 807 1396 781 1396 q 858 1388 835 1396 q 890 1365 882 1381 q 900 1332 900 1347 q 860 1267 900 1296 q 779 1235 819 1239 m 601 1522 q 583 1544 583 1531 q 607 1583 583 1563 q 750 1714 676 1649 q 783 1733 763 1725 q 821 1740 803 1740 q 849 1735 838 1740 q 867 1711 867 1726 q 844 1672 867 1692 q 701 1543 794 1625 q 669 1524 689 1532 q 629 1517 649 1517 q 601 1522 613 1517 z "},"Ṏ":{"ha":944,"x_min":26,"x_max":1008,"o":"m 501 204 q 628 357 565 257 q 731 574 690 457 q 771 792 771 690 q 715 975 771 903 q 536 1061 658 1047 q 286 778 418 1038 q 174 390 174 556 q 188 281 174 332 q 249 179 206 214 q 351 144 293 144 q 501 204 429 144 m 733 1132 q 868 1003 824 1092 q 913 800 913 914 q 892 640 913 728 q 736 300 846 457 q 471 75 626 143 q 311 40 390 40 q 126 100 204 40 q 32 271 49 160 q 26 353 26 308 q 83 638 26 492 q 229 911 140 785 q 403 1090 301 1014 q 610 1165 506 1165 q 731 1133 672 1165 l 733 1132 m 846 1243 q 817 1240 826 1240 q 717 1264 764 1240 q 678 1288 697 1272 q 656 1306 660 1303 q 620 1338 636 1325 q 601 1335 604 1350 q 574 1305 597 1315 q 522 1294 551 1294 q 472 1305 492 1294 q 454 1333 451 1315 q 508 1408 465 1382 q 607 1435 551 1435 q 639 1432 619 1435 q 753 1378 693 1425 q 773 1359 758 1374 q 801 1338 788 1344 q 806 1336 804 1338 q 810 1335 807 1335 q 813 1344 813 1343 q 807 1357 813 1353 q 801 1372 801 1364 q 823 1397 801 1388 q 875 1407 844 1407 q 918 1401 899 1407 q 946 1382 938 1394 q 958 1344 958 1364 q 922 1280 958 1310 q 846 1243 885 1250 m 633 1557 q 606 1585 611 1567 q 603 1601 603 1596 q 608 1626 603 1610 q 644 1663 618 1646 q 690 1678 667 1675 l 701 1678 q 733 1674 717 1678 q 744 1665 739 1672 q 750 1651 749 1658 q 749 1639 750 1643 q 749 1638 749 1639 q 750 1638 749 1638 q 763 1615 763 1629 q 740 1579 763 1594 q 664 1550 697 1550 q 633 1557 650 1550 m 1001 1643 q 1007 1631 1004 1639 q 988 1585 1008 1608 q 948 1561 971 1569 q 901 1553 925 1553 q 847 1571 869 1550 q 831 1610 833 1585 q 842 1635 831 1622 q 868 1656 854 1647 l 893 1668 q 919 1682 897 1671 q 942 1688 928 1685 q 961 1689 947 1689 q 1001 1672 992 1689 q 1006 1658 1006 1667 q 1001 1643 1006 1651 z "},"Œ":{"ha":1451,"x_min":0,"x_max":1454,"o":"m 1406 1169 q 1439 1160 1424 1169 q 1451 1135 1454 1151 q 1428 1101 1447 1115 q 1386 1081 1408 1088 q 1325 1074 1367 1076 l 1289 1069 l 1183 1061 l 1083 1053 q 1075 1052 1076 1053 q 1072 1044 1074 1051 l 1069 1033 q 1064 1010 1068 1028 q 1053 961 1056 974 q 972 557 1007 771 q 1201 551 1049 557 q 1226 551 1207 551 q 1258 545 1244 551 q 1275 526 1272 539 q 1266 494 1279 508 q 1233 469 1253 479 q 1194 458 1214 460 q 1143 457 1175 456 q 1040 460 1110 457 q 989 461 1007 460 q 976 462 985 461 q 961 461 967 463 q 957 460 957 461 q 956 457 957 458 q 954 443 954 454 q 940 344 949 411 q 915 139 925 239 q 1183 154 1036 143 l 1243 158 l 1261 160 q 1289 154 1276 160 q 1307 128 1307 146 q 1299 103 1307 117 q 1279 83 1290 90 q 1241 66 1261 71 q 1201 60 1221 61 q 1171 57 1181 58 q 1054 47 1132 53 q 817 40 896 39 q 763 47 785 40 q 749 81 742 54 q 760 101 750 92 l 769 110 q 770 116 771 113 q 771 122 769 119 l 776 179 q 738 143 751 154 q 567 39 660 78 q 381 0 475 0 q 333 3 364 0 q 143 83 225 14 q 31 247 69 146 q 0 419 0 329 q 54 675 0 542 q 158 868 92 767 q 288 1039 231 978 q 463 1150 367 1125 q 531 1160 501 1160 q 574 1156 553 1160 q 601 1148 592 1151 q 617 1136 611 1144 q 621 1121 621 1131 q 613 1097 621 1108 q 774 1010 701 1069 q 896 868 847 950 q 928 1008 903 904 q 938 1051 931 1019 q 961 1138 951 1110 q 997 1174 971 1161 q 1051 1190 1024 1188 l 1064 1192 q 1089 1186 1079 1192 q 1100 1165 1100 1181 q 1097 1146 1100 1157 q 1185 1153 1156 1151 q 1406 1169 1332 1167 m 736 308 q 808 507 793 407 q 815 586 815 551 q 792 731 815 661 q 724 857 769 800 q 590 972 668 929 q 506 1008 550 996 q 482 1015 499 1011 q 454 1026 465 1018 q 443 1046 443 1033 q 386 992 411 1022 q 328 915 361 963 q 236 769 271 836 q 146 478 153 615 q 164 326 142 400 q 235 196 186 251 q 354 114 289 135 q 424 103 383 103 q 504 117 463 103 q 736 308 643 164 z "},"P":{"ha":710,"x_min":19,"x_max":801,"o":"m 390 660 q 667 863 667 768 q 599 945 667 917 q 419 997 531 974 q 358 1011 393 1001 l 319 1024 q 247 617 274 792 q 390 660 297 622 m 669 1036 q 767 975 733 1013 q 801 893 801 938 q 732 764 801 829 q 509 613 639 676 q 250 528 379 550 q 233 525 239 525 q 182 103 199 293 q 143 57 179 76 q 71 38 107 38 q 39 46 51 38 q 28 71 26 54 q 85 538 50 293 q 19 636 19 565 q 33 707 19 667 q 67 738 40 725 q 121 754 93 751 q 189 1082 144 890 q 115 1206 121 1131 q 147 1251 114 1231 q 215 1271 181 1271 q 264 1236 263 1271 q 288 1179 265 1206 q 308 1181 294 1181 q 347 1150 353 1181 l 343 1136 q 439 1097 385 1113 q 568 1064 493 1081 q 669 1036 646 1046 z "},"Þ":{"ha":833,"x_min":142,"x_max":693,"o":"m 378 708 q 481 728 429 728 q 594 699 543 728 q 672 610 646 669 q 693 517 693 563 q 633 365 693 435 q 485 253 574 296 q 313 203 396 210 q 290 32 299 89 q 253 -13 288 6 q 185 -32 219 -32 q 153 -24 164 -32 q 143 3 142 -15 l 151 61 q 274 981 238 694 q 310 1024 276 1006 q 378 1043 344 1043 q 410 1035 399 1043 q 419 1010 421 1026 l 378 708 m 417 322 q 509 391 472 346 q 546 492 546 436 q 540 535 546 517 q 510 589 532 565 q 457 622 488 613 q 428 628 442 628 q 371 578 393 628 q 360 563 367 569 l 331 344 q 367 349 350 349 q 403 342 389 349 q 417 322 417 335 z "},"Q":{"ha":764,"x_min":32,"x_max":803,"o":"m 633 657 q 644 736 639 685 q 650 842 650 788 q 597 1067 650 1008 q 581 1076 589 1068 q 565 1083 574 1083 q 461 997 529 1083 q 324 800 393 911 q 332 715 322 754 l 332 715 q 397 512 354 608 q 501 319 439 415 q 633 657 599 472 m 271 138 q 293 133 282 133 q 403 196 340 133 q 213 554 271 374 q 182 363 182 449 q 192 268 182 311 q 271 138 215 158 m 714 1150 q 719 1142 717 1147 q 785 1022 768 1094 q 803 864 803 950 q 743 522 803 699 q 575 218 683 344 l 624 154 q 631 135 631 146 q 594 89 631 110 q 524 68 558 68 q 489 81 500 68 l 463 114 q 357 56 411 78 q 247 33 299 33 q 147 58 193 33 q 74 135 101 83 q 32 317 32 211 q 82 583 32 431 q 176 794 117 690 q 272 1023 190 918 q 469 1172 353 1128 q 600 1193 535 1197 l 618 1194 q 714 1150 675 1194 z "},"R":{"ha":722,"x_min":3,"x_max":726,"o":"m 725 886 q 493 611 710 707 q 600 458 579 565 q 608 347 608 415 q 606 226 608 307 l 604 174 q 643 69 604 79 q 675 43 675 63 q 638 -3 675 21 q 568 -26 600 -26 q 557 -25 561 -26 q 472 38 494 -11 q 450 161 450 86 q 453 235 450 188 q 456 296 456 279 q 448 415 457 364 q 407 501 439 465 q 292 550 367 546 q 244 540 279 547 l 160 94 q 117 49 154 68 q 44 31 81 31 q 14 39 25 31 q 6 63 3 47 q 94 519 58 338 q 54 543 54 518 q 72 580 54 558 q 111 611 89 601 l 179 972 q 193 1042 185 994 q 158 1036 175 1036 q 128 1044 139 1036 q 117 1065 117 1053 q 131 1094 117 1079 q 172 1121 146 1110 q 301 1154 226 1146 q 429 1163 372 1163 q 654 1104 582 1163 q 726 926 726 1046 q 725 886 726 900 m 572 828 q 581 881 581 857 q 510 1006 581 960 q 342 1058 439 1051 l 263 640 q 292 643 272 640 q 475 704 401 663 q 572 828 549 746 z "},"Ŕ":{"ha":833,"x_min":6,"x_max":726,"o":"m 725 886 q 493 611 710 707 q 600 458 579 565 q 608 347 608 415 q 606 226 608 307 l 604 174 q 643 69 604 79 q 675 43 675 63 q 638 -3 675 21 q 568 -26 600 -26 q 557 -25 561 -26 q 472 38 494 -11 q 450 161 450 86 q 453 235 450 188 q 456 296 456 279 q 448 415 457 364 q 407 501 439 465 q 292 550 367 546 q 244 540 279 547 l 160 94 q 117 49 154 68 q 44 31 81 31 q 14 39 25 31 q 6 63 3 47 q 94 519 58 338 q 54 543 54 518 q 72 580 54 558 q 111 611 89 601 l 179 972 q 193 1042 185 994 q 158 1036 175 1036 q 128 1044 139 1036 q 117 1065 117 1053 q 131 1094 117 1079 q 172 1121 146 1110 q 301 1154 226 1146 q 429 1163 372 1163 q 654 1104 582 1163 q 726 926 726 1046 q 725 886 726 900 m 572 828 q 581 881 581 857 q 510 1006 581 960 q 342 1058 439 1051 l 263 640 q 292 643 272 640 q 475 704 401 663 q 572 828 549 746 m 417 1329 q 399 1351 399 1338 q 422 1390 399 1369 q 565 1521 492 1456 q 598 1540 578 1532 q 636 1547 618 1547 q 664 1542 653 1547 q 682 1518 682 1533 q 660 1479 682 1499 q 517 1350 610 1432 q 484 1331 504 1339 q 444 1324 464 1324 q 417 1329 428 1324 z "},"Ř":{"ha":833,"x_min":6,"x_max":726,"o":"m 725 886 q 493 611 710 707 q 600 458 579 565 q 608 347 608 415 q 606 226 608 307 l 604 174 q 643 69 604 79 q 675 43 675 63 q 638 -3 675 21 q 568 -26 600 -26 q 557 -25 561 -26 q 472 38 494 -11 q 450 161 450 86 q 453 235 450 188 q 456 296 456 279 q 448 415 457 364 q 407 501 439 465 q 292 550 367 546 q 244 540 279 547 l 160 94 q 117 49 154 68 q 44 31 81 31 q 14 39 25 31 q 6 63 3 47 q 94 519 58 338 q 54 543 54 518 q 72 580 54 558 q 111 611 89 601 l 179 972 q 193 1042 185 994 q 158 1036 175 1036 q 128 1044 139 1036 q 117 1065 117 1053 q 131 1094 117 1079 q 172 1121 146 1110 q 301 1154 226 1146 q 429 1163 372 1163 q 654 1104 582 1163 q 726 926 726 1046 q 725 886 726 900 m 572 828 q 581 881 581 857 q 510 1006 581 960 q 342 1058 439 1051 l 263 640 q 292 643 272 640 q 475 704 401 663 q 572 828 549 746 m 278 1469 q 269 1490 269 1481 q 303 1534 269 1514 q 369 1554 336 1554 q 407 1540 394 1554 l 489 1447 l 596 1553 q 634 1580 613 1569 q 678 1590 656 1590 q 694 1589 689 1590 q 717 1576 708 1586 q 726 1556 726 1567 q 715 1532 726 1543 l 668 1483 q 600 1416 644 1460 q 522 1342 556 1372 q 490 1323 510 1331 q 453 1315 471 1315 q 429 1319 439 1315 q 411 1329 418 1322 q 394 1340 397 1336 l 278 1469 z "},"S":{"ha":832,"x_min":26,"x_max":814,"o":"m 726 526 q 814 369 814 450 q 778 264 814 317 q 478 38 650 81 q 378 26 433 26 q 128 92 247 26 q 49 171 71 122 q 26 286 26 219 q 38 422 26 333 q 76 446 42 446 q 156 421 115 446 q 192 365 196 396 q 185 316 190 354 q 179 246 179 278 q 214 149 179 174 q 304 124 249 124 q 419 147 360 124 q 522 207 465 165 q 617 301 578 249 q 657 404 657 354 q 629 478 657 444 q 551 539 601 510 q 417 607 500 568 q 252 692 314 656 q 146 780 190 729 q 101 894 101 831 q 108 946 101 924 q 273 1126 142 1071 q 557 1181 404 1181 q 674 1172 624 1181 q 757 1136 724 1164 q 794 1050 794 1106 q 784 984 794 1017 q 753 896 774 951 q 735 850 738 858 q 689 826 726 826 q 615 847 651 826 q 579 894 579 868 q 581 906 579 901 l 601 965 q 621 1024 615 1004 l 631 1082 l 631 1082 q 351 1011 456 1085 q 287 947 310 983 q 264 872 264 910 q 329 760 264 807 q 434 697 376 726 q 504 661 492 668 q 634 593 585 621 q 726 526 683 565 z "},"Ś":{"ha":833,"x_min":26,"x_max":814,"o":"m 726 526 q 814 369 814 450 q 778 264 814 317 q 478 38 650 81 q 378 26 433 26 q 128 92 247 26 q 49 171 71 122 q 26 286 26 219 q 38 422 26 333 q 76 446 42 446 q 156 421 115 446 q 192 365 196 396 q 185 316 190 354 q 179 246 179 278 q 214 149 179 174 q 304 124 249 124 q 419 147 360 124 q 522 207 465 165 q 617 301 578 249 q 657 404 657 354 q 629 478 657 444 q 551 539 601 510 q 417 607 500 568 q 252 692 314 656 q 146 780 190 729 q 101 894 101 831 q 108 946 101 924 q 273 1126 142 1071 q 557 1181 404 1181 q 674 1172 624 1181 q 757 1136 724 1164 q 794 1050 794 1106 q 784 984 794 1017 q 753 896 774 951 q 735 850 738 858 q 689 826 726 826 q 615 847 651 826 q 579 894 579 868 q 581 906 579 901 l 601 965 q 621 1024 615 1004 l 631 1082 l 631 1082 q 351 1011 456 1085 q 287 947 310 983 q 264 872 264 910 q 329 760 264 807 q 434 697 376 726 q 504 661 492 668 q 634 593 585 621 q 726 526 683 565 m 474 1360 q 456 1382 456 1368 q 479 1421 456 1400 q 622 1551 549 1486 q 655 1570 635 1563 q 693 1578 675 1578 q 721 1572 710 1578 q 739 1549 739 1564 q 717 1510 739 1529 q 574 1381 667 1463 q 541 1362 561 1369 q 501 1354 521 1354 q 474 1360 485 1354 z "},"Š":{"ha":833,"x_min":26,"x_max":853,"o":"m 726 526 q 814 369 814 450 q 778 264 814 317 q 478 38 650 81 q 378 26 433 26 q 128 92 247 26 q 49 171 71 122 q 26 286 26 219 q 38 422 26 333 q 76 446 42 446 q 156 421 115 446 q 192 365 196 396 q 185 316 190 354 q 179 246 179 278 q 214 149 179 174 q 304 124 249 124 q 419 147 360 124 q 522 207 465 165 q 617 301 578 249 q 657 404 657 354 q 629 478 657 444 q 551 539 601 510 q 417 607 500 568 q 252 692 314 656 q 146 780 190 729 q 101 894 101 831 q 108 946 101 924 q 273 1126 142 1071 q 557 1181 404 1181 q 674 1172 624 1181 q 757 1136 724 1164 q 794 1050 794 1106 q 784 984 794 1017 q 753 896 774 951 q 735 850 738 858 q 689 826 726 826 q 615 847 651 826 q 579 894 579 868 q 581 906 579 901 l 601 965 q 621 1024 615 1004 l 631 1082 l 631 1082 q 351 1011 456 1085 q 287 947 310 983 q 264 872 264 910 q 329 760 264 807 q 434 697 376 726 q 504 661 492 668 q 634 593 585 621 q 726 526 683 565 m 404 1494 q 396 1515 396 1506 q 429 1559 396 1539 q 496 1579 463 1579 q 533 1565 521 1579 l 615 1472 l 722 1578 q 760 1605 739 1594 q 804 1615 782 1615 q 821 1614 815 1615 q 844 1601 835 1611 q 853 1581 853 1592 q 842 1557 853 1568 l 794 1508 q 726 1441 771 1485 q 649 1367 682 1397 q 617 1348 636 1356 q 579 1340 597 1340 q 556 1344 565 1340 q 538 1354 544 1347 q 521 1365 524 1361 l 404 1494 z "},"Ş":{"ha":833,"x_min":26,"x_max":814,"o":"m 726 526 q 814 369 814 450 q 778 264 814 317 q 478 38 650 81 q 378 26 433 26 q 128 92 247 26 q 49 171 71 122 q 26 286 26 219 q 38 422 26 333 q 76 446 42 446 q 156 421 115 446 q 192 365 196 396 q 185 316 190 354 q 179 246 179 278 q 214 149 179 174 q 304 124 249 124 q 419 147 360 124 q 522 207 465 165 q 617 301 578 249 q 657 404 657 354 q 629 478 657 444 q 551 539 601 510 q 417 607 500 568 q 252 692 314 656 q 146 780 190 729 q 101 894 101 831 q 108 946 101 924 q 273 1126 142 1071 q 557 1181 404 1181 q 674 1172 624 1181 q 757 1136 724 1164 q 794 1050 794 1106 q 784 984 794 1017 q 753 896 774 951 q 735 850 738 858 q 689 826 726 826 q 615 847 651 826 q 579 894 579 868 q 581 906 579 901 l 601 965 q 621 1024 615 1004 l 631 1082 l 631 1082 q 351 1011 456 1085 q 287 947 310 983 q 264 872 264 910 q 329 760 264 807 q 434 697 376 726 q 504 661 492 668 q 634 593 585 621 q 726 526 683 565 m 569 -197 q 450 -283 518 -251 q 311 -315 382 -315 q 247 -308 282 -315 q 217 -278 217 -301 q 226 -253 217 -264 q 263 -226 240 -236 q 310 -215 286 -215 q 324 -217 319 -215 q 354 -219 335 -219 q 417 -204 390 -219 l 288 -131 q 271 -106 271 -121 q 281 -79 271 -90 l 351 19 q 390 47 364 38 q 440 56 417 57 q 467 47 454 54 q 481 26 481 39 q 476 14 481 21 l 422 -65 l 563 -144 q 581 -172 581 -156 q 569 -197 581 -183 z "},"Ŝ":{"ha":833,"x_min":26,"x_max":814,"o":"m 726 526 q 814 369 814 450 q 778 264 814 317 q 478 38 650 81 q 378 26 433 26 q 128 92 247 26 q 49 171 71 122 q 26 286 26 219 q 38 422 26 333 q 76 446 42 446 q 156 421 115 446 q 192 365 196 396 q 185 316 190 354 q 179 246 179 278 q 214 149 179 174 q 304 124 249 124 q 419 147 360 124 q 522 207 465 165 q 617 301 578 249 q 657 404 657 354 q 629 478 657 444 q 551 539 601 510 q 417 607 500 568 q 252 692 314 656 q 146 780 190 729 q 101 894 101 831 q 108 946 101 924 q 273 1126 142 1071 q 557 1181 404 1181 q 674 1172 624 1181 q 757 1136 724 1164 q 794 1050 794 1106 q 784 984 794 1017 q 753 896 774 951 q 735 850 738 858 q 689 826 726 826 q 615 847 651 826 q 579 894 579 868 q 581 906 579 901 l 601 965 q 621 1024 615 1004 l 631 1082 l 631 1082 q 351 1011 456 1085 q 287 947 310 983 q 264 872 264 910 q 329 760 264 807 q 434 697 376 726 q 504 661 492 668 q 634 593 585 621 q 726 526 683 565 m 506 1556 q 544 1582 518 1569 q 593 1594 571 1594 q 628 1579 617 1594 l 779 1376 q 786 1357 786 1365 q 753 1314 786 1333 q 689 1294 721 1294 q 654 1307 663 1294 q 547 1450 582 1401 l 456 1353 q 418 1326 440 1336 q 374 1315 396 1315 q 357 1317 363 1315 q 326 1347 326 1324 q 336 1371 326 1360 q 506 1556 392 1433 z "},"ẞ":{"ha":833,"x_min":35,"x_max":814,"o":"m 604 667 q 752 615 694 658 q 811 488 810 572 q 741 297 814 378 q 559 169 668 215 q 342 110 450 122 l 328 108 q 292 118 304 108 q 279 142 279 128 q 294 172 279 157 q 332 196 308 188 q 367 207 350 203 q 396 215 383 211 q 536 264 481 240 q 631 333 592 288 q 671 451 671 379 q 507 571 671 571 q 425 565 478 571 q 385 553 406 557 q 365 551 378 551 q 336 560 347 551 q 321 578 321 564 q 325 593 321 585 q 342 622 329 608 q 374 642 356 635 q 481 699 425 663 q 538 769 538 735 q 489 815 538 797 q 444 822 471 822 q 251 751 371 822 l 229 536 q 209 340 224 479 q 185 92 194 201 q 147 47 182 67 q 79 28 113 28 q 47 36 58 28 q 36 61 35 44 q 81 468 54 204 l 106 711 q 86 733 86 721 q 111 768 86 749 l 113 768 l 121 842 q 156 885 124 867 q 221 904 189 904 q 264 869 268 904 l 263 861 q 493 924 394 924 q 633 876 578 924 q 678 792 678 838 q 604 667 678 731 z "},"Ə":{"ha":833,"x_min":0,"x_max":760,"o":"m 228 867 q 313 876 268 876 q 536 805 433 876 q 699 619 639 733 q 760 382 760 504 q 688 149 760 251 q 559 37 635 74 q 399 0 483 0 q 206 47 299 0 q 57 179 114 94 q 0 371 0 264 q 1 408 0 396 q 35 450 3 432 q 100 468 68 468 q 118 465 107 468 q 131 468 126 468 l 161 469 l 169 469 q 197 463 186 469 q 614 431 475 446 q 548 599 597 519 q 426 726 499 678 q 268 775 353 775 q 222 771 246 775 q 201 769 215 769 q 172 778 182 769 q 161 800 161 786 q 180 840 161 819 q 228 867 199 860 m 146 365 q 205 233 160 296 q 311 133 250 171 q 432 94 372 94 q 528 128 485 94 q 600 232 572 163 q 621 339 618 282 q 607 336 613 336 q 197 361 472 339 l 146 365 z "},"T":{"ha":675,"x_min":1,"x_max":846,"o":"m 815 1135 q 846 1115 846 1133 q 813 1069 846 1094 q 756 1043 781 1043 q 490 1036 636 1043 q 326 158 372 563 q 359 149 346 157 q 372 129 372 142 q 347 93 372 113 l 293 51 q 256 33 283 42 q 206 25 229 25 q 167 60 163 25 q 344 1021 215 517 l 343 1026 q 47 996 185 1013 q 14 1002 26 993 q 3 1031 1 1011 q 27 1063 4 1050 q 76 1082 50 1075 q 374 1135 210 1121 l 382 1158 q 421 1192 388 1178 q 486 1207 454 1207 q 519 1199 507 1207 q 526 1175 531 1190 l 518 1143 l 583 1144 q 815 1135 685 1144 z "},"Ŧ":{"ha":675,"x_min":-39,"x_max":804,"o":"m 774 893 q 804 874 804 892 q 772 827 804 853 q 714 801 739 801 q 449 794 594 801 l 432 726 q 367 444 385 538 q 326 158 349 350 q 359 149 346 157 q 372 129 372 142 q 347 93 372 113 l 293 51 q 256 33 283 42 q 206 25 229 25 q 167 60 163 25 q 215 405 192 289 q 303 779 238 521 l 301 785 q 261 782 274 782 q 6 754 92 768 q -27 760 -15 751 q -39 786 -39 768 q 35 840 -39 818 q 332 893 160 879 l 340 917 q 380 951 347 936 q 444 965 413 965 q 477 957 465 965 q 485 933 489 949 l 476 901 l 542 903 q 774 893 642 903 m 129 467 q 104 474 113 467 q 96 493 96 481 q 103 517 96 503 q 142 550 117 538 q 194 564 168 563 l 378 565 q 469 564 439 565 q 494 556 485 564 q 503 536 503 549 q 494 513 503 525 q 456 479 482 492 q 404 465 431 467 l 324 465 q 129 467 194 465 z "},"Ť":{"ha":833,"x_min":3,"x_max":846,"o":"m 815 1135 q 846 1115 846 1133 q 813 1069 846 1094 q 756 1043 781 1043 q 490 1036 636 1043 q 326 158 372 563 q 359 149 346 157 q 372 129 372 142 q 347 93 372 113 l 293 51 q 256 33 283 42 q 206 25 229 25 q 167 60 163 25 q 344 1021 215 517 l 343 1026 q 47 996 185 1013 q 14 1002 26 993 q 3 1031 1 1011 q 27 1063 4 1050 q 76 1082 50 1075 q 374 1135 210 1121 l 382 1158 q 421 1192 388 1178 q 486 1207 454 1207 q 519 1199 507 1207 q 526 1175 531 1190 l 518 1143 l 583 1144 q 815 1135 685 1144 m 279 1518 q 271 1539 271 1529 q 304 1583 271 1563 q 371 1603 338 1603 q 408 1589 396 1603 l 490 1496 l 597 1601 q 635 1628 614 1618 q 679 1639 657 1639 q 696 1638 690 1639 q 719 1625 710 1635 q 728 1604 728 1615 q 717 1581 728 1592 l 669 1532 q 601 1465 646 1508 q 524 1390 557 1421 q 492 1372 511 1379 q 454 1364 472 1364 q 431 1368 440 1364 q 413 1378 419 1371 q 396 1389 399 1385 l 279 1518 z "},"U":{"ha":810,"x_min":15,"x_max":821,"o":"m 675 1071 q 710 1115 676 1096 q 778 1133 744 1133 q 819 1101 821 1133 q 731 342 796 678 q 704 237 717 276 q 665 161 692 197 q 594 100 639 125 q 433 48 521 58 q 224 39 346 38 l 186 39 q 60 57 104 39 q 15 138 15 75 q 17 160 15 151 q 69 403 29 247 l 86 471 q 177 822 138 678 q 265 1106 217 967 q 303 1141 272 1126 q 363 1156 333 1156 q 394 1148 382 1156 q 407 1125 407 1140 q 404 1110 407 1121 q 260 599 344 925 q 193 317 214 418 q 169 206 178 250 q 167 182 167 186 q 182 151 167 158 q 238 143 197 144 l 271 142 q 372 138 317 138 q 550 192 511 138 q 584 278 574 225 q 601 404 594 331 l 608 464 q 675 1071 656 765 z "},"Ú":{"ha":833,"x_min":15,"x_max":819,"o":"m 675 1071 q 710 1115 676 1096 q 778 1133 744 1133 q 819 1101 821 1133 q 731 342 796 678 q 704 237 717 276 q 665 161 692 197 q 594 100 639 125 q 433 48 521 58 q 224 39 346 38 l 186 39 q 60 57 104 39 q 15 138 15 75 q 17 160 15 151 q 69 403 29 247 l 86 471 q 177 822 138 678 q 265 1106 217 967 q 303 1141 272 1126 q 363 1156 333 1156 q 394 1148 382 1156 q 407 1125 407 1140 q 404 1110 407 1121 q 260 599 344 925 q 193 317 214 418 q 169 206 178 250 q 167 182 167 186 q 182 151 167 158 q 238 143 197 144 l 271 142 q 372 138 317 138 q 550 192 511 138 q 584 278 574 225 q 601 404 594 331 l 608 464 q 675 1071 656 765 m 493 1344 q 475 1367 475 1353 q 499 1406 475 1385 q 642 1536 568 1471 q 674 1555 654 1547 q 713 1563 694 1563 q 740 1557 729 1563 q 758 1533 758 1549 q 736 1494 758 1514 q 593 1365 686 1447 q 560 1347 581 1354 q 521 1339 540 1339 q 493 1344 504 1339 z "},"Ŭ":{"ha":833,"x_min":15,"x_max":846,"o":"m 675 1071 q 710 1115 676 1096 q 778 1133 744 1133 q 819 1101 821 1133 q 731 342 796 678 q 704 237 717 276 q 665 161 692 197 q 594 100 639 125 q 433 48 521 58 q 224 39 346 38 l 186 39 q 60 57 104 39 q 15 138 15 75 q 17 160 15 151 q 69 403 29 247 l 86 471 q 177 822 138 678 q 265 1106 217 967 q 303 1141 272 1126 q 363 1156 333 1156 q 394 1148 382 1156 q 407 1125 407 1140 q 404 1110 407 1121 q 260 599 344 925 q 193 317 214 418 q 169 206 178 250 q 167 182 167 186 q 182 151 167 158 q 238 143 197 144 l 271 142 q 372 138 317 138 q 550 192 511 138 q 584 278 574 225 q 601 404 594 331 l 608 464 q 675 1071 656 765 m 704 1546 q 735 1581 708 1567 q 792 1594 763 1594 q 833 1583 817 1594 q 846 1551 849 1572 q 797 1452 838 1496 q 700 1385 757 1408 q 585 1361 643 1361 q 460 1401 511 1361 q 401 1518 408 1440 q 429 1559 400 1543 q 493 1575 458 1575 q 529 1568 515 1575 q 544 1546 543 1561 q 570 1478 549 1510 q 626 1449 592 1447 q 677 1481 657 1450 q 704 1546 697 1513 z "},"Û":{"ha":833,"x_min":15,"x_max":835,"o":"m 675 1071 q 710 1115 676 1096 q 778 1133 744 1133 q 819 1101 821 1133 q 731 342 796 678 q 704 237 717 276 q 665 161 692 197 q 594 100 639 125 q 433 48 521 58 q 224 39 346 38 l 186 39 q 60 57 104 39 q 15 138 15 75 q 17 160 15 151 q 69 403 29 247 l 86 471 q 177 822 138 678 q 265 1106 217 967 q 303 1141 272 1126 q 363 1156 333 1156 q 394 1148 382 1156 q 407 1125 407 1140 q 404 1110 407 1121 q 260 599 344 925 q 193 317 214 418 q 169 206 178 250 q 167 182 167 186 q 182 151 167 158 q 238 143 197 144 l 271 142 q 372 138 317 138 q 550 192 511 138 q 584 278 574 225 q 601 404 594 331 l 608 464 q 675 1071 656 765 m 554 1586 q 593 1613 567 1600 q 642 1625 619 1625 q 676 1610 665 1625 l 828 1407 q 835 1388 835 1396 q 802 1344 835 1364 q 738 1325 769 1325 q 703 1338 711 1325 q 596 1481 631 1432 l 504 1383 q 467 1356 489 1367 q 422 1346 444 1346 q 406 1347 411 1346 q 375 1378 375 1354 q 385 1401 375 1390 q 554 1586 440 1464 z "},"Ü":{"ha":833,"x_min":15,"x_max":819,"o":"m 675 1071 q 710 1115 676 1096 q 778 1133 744 1133 q 819 1101 821 1133 q 731 342 796 678 q 704 237 717 276 q 665 161 692 197 q 594 100 639 125 q 433 48 521 58 q 224 39 346 38 l 186 39 q 60 57 104 39 q 15 138 15 75 q 17 160 15 151 q 69 403 29 247 l 86 471 q 177 822 138 678 q 265 1106 217 967 q 303 1141 272 1126 q 363 1156 333 1156 q 394 1148 382 1156 q 407 1125 407 1140 q 404 1110 407 1121 q 260 599 344 925 q 193 317 214 418 q 169 206 178 250 q 167 182 167 186 q 182 151 167 158 q 238 143 197 144 l 271 142 q 372 138 317 138 q 550 192 511 138 q 584 278 574 225 q 601 404 594 331 l 608 464 q 675 1071 656 765 m 425 1339 q 397 1367 403 1349 q 394 1383 394 1378 q 400 1408 394 1392 q 436 1444 410 1428 q 482 1460 458 1457 l 493 1460 q 525 1456 508 1460 q 535 1447 531 1454 q 542 1433 540 1440 q 540 1421 542 1425 q 540 1420 540 1421 q 542 1419 540 1419 q 554 1397 554 1411 q 532 1361 554 1376 q 456 1332 489 1332 q 425 1339 442 1332 m 793 1425 q 799 1413 796 1421 q 779 1367 800 1390 q 740 1343 763 1351 q 693 1335 717 1335 q 639 1353 661 1332 q 622 1392 625 1367 q 634 1417 622 1404 q 660 1438 646 1429 l 685 1450 q 711 1464 689 1453 q 733 1469 719 1467 q 753 1471 739 1471 q 793 1454 783 1471 q 797 1440 797 1449 q 793 1425 797 1433 z "},"Ù":{"ha":833,"x_min":15,"x_max":819,"o":"m 675 1071 q 710 1115 676 1096 q 778 1133 744 1133 q 819 1101 821 1133 q 731 342 796 678 q 704 237 717 276 q 665 161 692 197 q 594 100 639 125 q 433 48 521 58 q 224 39 346 38 l 186 39 q 60 57 104 39 q 15 138 15 75 q 17 160 15 151 q 69 403 29 247 l 86 471 q 177 822 138 678 q 265 1106 217 967 q 303 1141 272 1126 q 363 1156 333 1156 q 394 1148 382 1156 q 407 1125 407 1140 q 404 1110 407 1121 q 260 599 344 925 q 193 317 214 418 q 169 206 178 250 q 167 182 167 186 q 182 151 167 158 q 238 143 197 144 l 271 142 q 372 138 317 138 q 550 192 511 138 q 584 278 574 225 q 601 404 594 331 l 608 464 q 675 1071 656 765 m 422 1543 q 414 1565 414 1554 q 448 1612 414 1590 q 517 1633 482 1633 q 556 1618 544 1633 q 617 1543 597 1568 l 729 1407 q 738 1386 738 1397 q 703 1339 738 1361 q 633 1317 668 1317 q 594 1332 607 1317 l 422 1543 z "},"Ư":{"ha":810,"x_min":15,"x_max":1044,"o":"m 675 1071 q 710 1115 676 1096 q 778 1133 744 1133 q 819 1101 821 1133 q 731 342 796 678 q 704 237 717 276 q 665 161 692 197 q 594 100 639 125 q 433 48 521 58 q 224 39 346 38 l 186 39 q 60 57 104 39 q 15 138 15 75 q 17 160 15 151 q 69 403 29 247 l 86 471 q 177 822 138 678 q 265 1106 217 967 q 303 1141 272 1126 q 363 1156 333 1156 q 394 1148 382 1156 q 407 1125 407 1140 q 404 1110 407 1121 q 260 599 344 925 q 193 317 214 418 q 169 206 178 250 q 167 182 167 186 q 182 151 167 158 q 238 143 197 144 l 271 142 q 372 138 317 138 q 550 192 511 138 q 584 278 574 225 q 601 404 594 331 l 608 464 q 675 1071 656 765 m 885 1136 q 878 1154 878 1143 q 911 1198 878 1178 q 976 1218 944 1218 q 1010 1206 1000 1218 q 1044 1122 1044 1167 q 1013 1038 1044 1078 q 932 974 981 999 q 836 950 883 950 q 801 954 818 950 q 779 965 788 957 q 771 983 771 972 q 782 1007 771 993 q 825 1036 797 1026 q 878 1043 853 1046 l 879 1043 q 899 1065 889 1043 q 903 1089 903 1076 q 885 1136 903 1115 z "},"Ű":{"ha":833,"x_min":15,"x_max":875,"o":"m 675 1071 q 710 1115 676 1096 q 778 1133 744 1133 q 819 1101 821 1133 q 731 342 796 678 q 704 237 717 276 q 665 161 692 197 q 594 100 639 125 q 433 48 521 58 q 224 39 346 38 l 186 39 q 60 57 104 39 q 15 138 15 75 q 17 160 15 151 q 69 403 29 247 l 86 471 q 177 822 138 678 q 265 1106 217 967 q 303 1141 272 1126 q 363 1156 333 1156 q 394 1148 382 1156 q 407 1125 407 1140 q 404 1110 407 1121 q 260 599 344 925 q 193 317 214 418 q 169 206 178 250 q 167 182 167 186 q 182 151 167 158 q 238 143 197 144 l 271 142 q 372 138 317 138 q 550 192 511 138 q 584 278 574 225 q 601 404 594 331 l 608 464 q 675 1071 656 765 m 607 1513 q 638 1531 618 1524 q 675 1538 657 1538 q 701 1532 690 1538 q 718 1510 718 1525 q 697 1472 718 1493 q 572 1358 614 1394 q 540 1340 560 1347 q 504 1333 521 1333 q 476 1339 488 1333 q 460 1361 460 1346 q 481 1399 460 1378 q 607 1513 542 1456 m 858 1503 q 875 1481 875 1496 q 854 1442 875 1463 l 814 1404 q 746 1344 743 1342 q 679 1321 715 1321 q 657 1324 664 1321 q 640 1334 646 1326 q 633 1351 633 1342 q 644 1375 633 1364 q 738 1461 658 1388 l 763 1483 q 794 1501 774 1494 q 832 1508 814 1508 q 858 1503 847 1508 z "},"Ū":{"ha":833,"x_min":15,"x_max":821,"o":"m 675 1071 q 710 1115 676 1096 q 778 1133 744 1133 q 819 1101 821 1133 q 731 342 796 678 q 704 237 717 276 q 665 161 692 197 q 594 100 639 125 q 433 48 521 58 q 224 39 346 38 l 186 39 q 60 57 104 39 q 15 138 15 75 q 17 160 15 151 q 69 403 29 247 l 86 471 q 177 822 138 678 q 265 1106 217 967 q 303 1141 272 1126 q 363 1156 333 1156 q 394 1148 382 1156 q 407 1125 407 1140 q 404 1110 407 1121 q 260 599 344 925 q 193 317 214 418 q 169 206 178 250 q 167 182 167 186 q 182 151 167 158 q 238 143 197 144 l 271 142 q 372 138 317 138 q 550 192 511 138 q 584 278 574 225 q 601 404 594 331 l 608 464 q 675 1071 656 765 m 447 1378 q 422 1385 431 1378 q 414 1404 414 1392 q 421 1428 414 1414 q 460 1461 435 1449 q 513 1475 486 1474 l 696 1476 q 788 1475 757 1476 q 812 1467 803 1475 q 821 1447 821 1460 q 813 1424 821 1436 q 774 1390 800 1403 q 722 1376 749 1378 l 642 1376 q 447 1378 513 1376 z "},"Ṻ":{"ha":833,"x_min":15,"x_max":821,"o":"m 675 1071 q 710 1115 676 1096 q 778 1133 744 1133 q 819 1101 821 1133 q 731 342 796 678 q 704 237 717 276 q 665 161 692 197 q 594 100 639 125 q 433 48 521 58 q 224 39 346 38 l 186 39 q 60 57 104 39 q 15 138 15 75 q 17 160 15 151 q 69 403 29 247 l 86 471 q 177 822 138 678 q 265 1106 217 967 q 303 1141 272 1126 q 363 1156 333 1156 q 394 1148 382 1156 q 407 1125 407 1140 q 404 1110 407 1121 q 260 599 344 925 q 193 317 214 418 q 169 206 178 250 q 167 182 167 186 q 182 151 167 158 q 238 143 197 144 l 271 142 q 372 138 317 138 q 550 192 511 138 q 584 278 574 225 q 601 404 594 331 l 608 464 q 675 1071 656 765 m 407 1272 q 380 1278 389 1271 q 371 1300 371 1286 q 375 1321 371 1308 q 412 1358 388 1343 q 463 1375 436 1372 l 556 1383 q 738 1399 654 1394 q 763 1392 753 1400 q 772 1372 772 1385 q 767 1350 772 1367 q 732 1313 757 1328 q 681 1296 707 1299 q 407 1272 593 1286 m 439 1489 q 411 1517 417 1499 q 408 1533 408 1528 q 414 1558 408 1542 q 450 1594 424 1578 q 496 1610 472 1607 l 507 1610 q 539 1606 522 1610 q 549 1597 544 1604 q 556 1583 554 1590 q 554 1571 556 1575 q 554 1570 554 1571 q 556 1569 554 1569 q 568 1547 568 1561 q 546 1511 568 1526 q 469 1482 503 1482 q 439 1489 456 1482 m 807 1575 q 813 1563 810 1571 q 793 1517 814 1540 q 753 1493 776 1501 q 707 1485 731 1485 q 653 1503 675 1482 q 636 1542 639 1517 q 648 1567 636 1554 q 674 1588 660 1579 l 699 1600 q 725 1614 703 1603 q 747 1619 733 1617 q 767 1621 753 1621 q 807 1604 797 1621 q 811 1590 811 1599 q 807 1575 811 1583 z "},"Ų":{"ha":833,"x_min":15,"x_max":821,"o":"m 675 1071 q 710 1115 676 1096 q 778 1133 744 1133 q 819 1101 821 1133 q 731 342 796 678 q 704 237 717 276 q 665 161 692 197 q 594 100 639 125 q 433 48 521 58 q 224 39 346 38 l 186 39 q 60 57 104 39 q 15 138 15 75 q 17 160 15 151 q 69 403 29 247 l 86 471 q 177 822 138 678 q 265 1106 217 967 q 303 1141 272 1126 q 363 1156 333 1156 q 394 1148 382 1156 q 407 1125 407 1140 q 404 1110 407 1121 q 260 599 344 925 q 193 317 214 418 q 169 206 178 250 q 167 182 167 186 q 182 151 167 158 q 238 143 197 144 l 271 142 q 372 138 317 138 q 550 192 511 138 q 584 278 574 225 q 601 404 594 331 l 608 464 q 675 1071 656 765 m 472 -56 q 490 -67 483 -58 q 497 -85 497 -75 q 486 -108 497 -97 q 411 -159 453 -142 q 324 -174 369 -176 q 260 -156 289 -171 q 215 -111 231 -140 q 206 -71 206 -93 q 239 18 206 -25 q 306 73 265 53 q 392 96 346 93 q 423 90 408 99 q 438 68 438 82 q 435 56 438 64 q 363 11 418 19 q 349 -10 353 0 q 342 -39 342 -24 q 346 -58 342 -50 q 378 -81 357 -76 l 381 -81 l 383 -78 q 414 -60 396 -67 q 450 -53 432 -53 q 472 -56 458 -53 m 364 11 q 367 14 368 13 l 364 11 z "},"Ů":{"ha":833,"x_min":15,"x_max":819,"o":"m 675 1071 q 710 1115 676 1096 q 778 1133 744 1133 q 819 1101 821 1133 q 731 342 796 678 q 704 237 717 276 q 665 161 692 197 q 594 100 639 125 q 433 48 521 58 q 224 39 346 38 l 186 39 q 60 57 104 39 q 15 138 15 75 q 17 160 15 151 q 69 403 29 247 l 86 471 q 177 822 138 678 q 265 1106 217 967 q 303 1141 272 1126 q 363 1156 333 1156 q 394 1148 382 1156 q 407 1125 407 1140 q 404 1110 407 1121 q 260 599 344 925 q 193 317 214 418 q 169 206 178 250 q 167 182 167 186 q 182 151 167 158 q 238 143 197 144 l 271 142 q 372 138 317 138 q 550 192 511 138 q 584 278 574 225 q 601 404 594 331 l 608 464 q 675 1071 656 765 m 690 1590 q 759 1540 733 1576 q 785 1458 785 1503 q 776 1413 785 1436 q 700 1326 757 1360 q 585 1292 643 1292 q 501 1316 536 1290 q 465 1386 465 1342 q 468 1410 465 1393 q 505 1481 476 1450 q 572 1528 533 1513 q 578 1551 571 1539 q 594 1571 585 1563 q 663 1594 625 1594 q 690 1590 675 1594 m 626 1383 q 643 1404 638 1385 q 647 1440 649 1424 q 640 1463 646 1449 q 613 1454 628 1457 l 607 1446 q 601 1424 601 1436 q 603 1413 601 1417 q 613 1394 604 1404 q 626 1383 621 1383 z "},"Ũ":{"ha":810,"x_min":15,"x_max":867,"o":"m 675 1071 q 710 1115 676 1096 q 778 1133 744 1133 q 819 1101 821 1133 q 731 342 796 678 q 704 237 717 276 q 665 161 692 197 q 594 100 639 125 q 433 48 521 58 q 224 39 346 38 l 186 39 q 60 57 104 39 q 15 138 15 75 q 17 160 15 151 q 69 403 29 247 l 86 471 q 177 822 138 678 q 265 1106 217 967 q 303 1141 272 1126 q 363 1156 333 1156 q 394 1148 382 1156 q 407 1125 407 1140 q 404 1110 407 1121 q 260 599 344 925 q 193 317 214 418 q 169 206 178 250 q 167 182 167 186 q 182 151 167 158 q 238 143 197 144 l 271 142 q 372 138 317 138 q 550 192 511 138 q 584 278 574 225 q 601 404 594 331 l 608 464 q 675 1071 656 765 m 763 1306 q 715 1300 742 1300 q 632 1315 674 1300 q 568 1351 610 1324 q 529 1381 546 1369 q 511 1376 513 1392 q 483 1341 510 1354 q 424 1328 456 1328 q 381 1337 397 1328 q 365 1361 364 1346 q 425 1450 372 1419 q 540 1476 478 1481 q 658 1432 596 1472 q 681 1414 665 1426 q 710 1396 697 1401 l 718 1394 q 721 1403 721 1400 q 714 1415 721 1411 q 707 1432 707 1425 q 733 1461 707 1450 q 790 1472 758 1472 q 850 1453 835 1472 q 867 1413 867 1435 q 833 1348 867 1379 q 763 1306 799 1317 z "},"Ṹ":{"ha":833,"x_min":15,"x_max":824,"o":"m 675 1071 q 710 1115 676 1096 q 778 1133 744 1133 q 819 1101 821 1133 q 731 342 796 678 q 704 237 717 276 q 665 161 692 197 q 594 100 639 125 q 433 48 521 58 q 224 39 346 38 l 186 39 q 60 57 104 39 q 15 138 15 75 q 17 160 15 151 q 69 403 29 247 l 86 471 q 177 822 138 678 q 265 1106 217 967 q 303 1141 272 1126 q 363 1156 333 1156 q 394 1148 382 1156 q 407 1125 407 1140 q 404 1110 407 1121 q 260 599 344 925 q 193 317 214 418 q 169 206 178 250 q 167 182 167 186 q 182 151 167 158 q 238 143 197 144 l 271 142 q 372 138 317 138 q 550 192 511 138 q 584 278 574 225 q 601 404 594 331 l 608 464 q 675 1071 656 765 m 719 1278 q 672 1272 699 1272 q 589 1288 631 1272 q 525 1324 567 1296 q 486 1353 503 1342 q 468 1349 469 1364 q 440 1313 467 1326 q 381 1300 413 1300 q 338 1309 354 1300 q 322 1333 321 1318 q 382 1422 329 1392 q 497 1449 435 1453 q 615 1404 553 1444 q 638 1386 622 1399 q 667 1368 654 1374 l 675 1367 q 678 1375 678 1372 q 671 1388 678 1383 q 664 1404 664 1397 q 690 1433 664 1422 q 747 1444 715 1444 q 807 1425 792 1444 q 824 1385 824 1407 q 790 1320 824 1351 q 719 1278 756 1289 m 547 1558 q 529 1581 529 1567 q 553 1619 529 1599 q 696 1750 622 1685 q 728 1769 708 1761 q 767 1776 749 1776 q 794 1771 783 1776 q 813 1747 813 1763 q 790 1708 813 1728 q 647 1579 740 1661 q 615 1560 635 1568 q 575 1553 594 1553 q 547 1558 558 1553 z "},"V":{"ha":676,"x_min":54,"x_max":707,"o":"m 690 1140 q 707 1111 707 1129 q 685 1074 707 1092 q 565 923 611 1015 q 469 690 519 831 l 457 656 q 369 393 411 532 q 321 229 328 254 q 278 85 297 147 q 237 48 272 67 q 171 29 201 29 q 131 56 136 29 q 54 821 54 433 q 63 1079 54 950 q 99 1124 64 1104 q 169 1143 135 1143 q 201 1135 189 1143 q 211 1111 213 1126 q 204 854 204 968 q 229 411 204 615 q 331 707 296 617 q 401 878 372 813 q 476 1010 431 944 q 583 1118 522 1076 q 663 1149 628 1149 q 690 1140 678 1149 z "},"W":{"ha":797,"x_min":26,"x_max":956,"o":"m 810 1132 q 851 1165 819 1151 q 913 1178 882 1178 q 956 1153 956 1178 q 950 1133 956 1143 q 800 797 864 969 q 654 365 736 625 q 564 88 596 179 q 524 50 557 68 q 461 32 490 32 q 421 61 426 32 q 368 535 376 285 l 176 93 q 133 56 168 74 q 68 39 97 39 q 38 49 49 39 q 29 78 26 58 q 85 574 49 243 l 139 1069 q 176 1113 142 1094 q 244 1132 211 1132 q 276 1124 265 1132 q 286 1099 288 1115 q 225 543 264 893 q 381 901 278 663 q 424 938 389 921 q 489 954 458 954 q 519 944 508 954 q 528 915 529 935 q 513 625 513 765 q 521 415 513 519 q 657 806 590 633 q 810 1132 724 978 z "},"Ẃ":{"ha":833,"x_min":29,"x_max":956,"o":"m 810 1132 q 851 1165 819 1151 q 913 1178 882 1178 q 956 1153 956 1178 q 950 1133 956 1143 q 800 797 864 969 q 654 365 736 625 q 564 88 596 179 q 524 50 557 68 q 461 32 490 32 q 421 61 426 32 q 368 535 376 285 l 176 93 q 133 56 168 74 q 68 39 97 39 q 38 49 49 39 q 29 78 26 58 q 85 574 49 243 l 139 1069 q 176 1113 142 1094 q 244 1132 211 1132 q 276 1124 265 1132 q 286 1099 288 1115 q 225 543 264 893 q 381 901 278 663 q 424 938 389 921 q 489 954 458 954 q 519 944 508 954 q 528 915 529 935 q 513 625 513 765 q 521 415 513 519 q 657 806 590 633 q 810 1132 724 978 m 451 1311 q 433 1333 433 1319 q 457 1372 433 1351 q 600 1503 526 1438 q 633 1522 613 1514 q 671 1529 653 1529 q 699 1524 688 1529 q 717 1500 717 1515 q 694 1461 717 1481 q 551 1332 644 1414 q 519 1313 539 1321 q 479 1306 499 1306 q 451 1311 463 1306 z "},"Ŵ":{"ha":833,"x_min":29,"x_max":956,"o":"m 810 1132 q 851 1165 819 1151 q 913 1178 882 1178 q 956 1153 956 1178 q 950 1133 956 1143 q 800 797 864 969 q 654 365 736 625 q 564 88 596 179 q 524 50 557 68 q 461 32 490 32 q 421 61 426 32 q 368 535 376 285 l 176 93 q 133 56 168 74 q 68 39 97 39 q 38 49 49 39 q 29 78 26 58 q 85 574 49 243 l 139 1069 q 176 1113 142 1094 q 244 1132 211 1132 q 276 1124 265 1132 q 286 1099 288 1115 q 225 543 264 893 q 381 901 278 663 q 424 938 389 921 q 489 954 458 954 q 519 944 508 954 q 528 915 529 935 q 513 625 513 765 q 521 415 513 519 q 657 806 590 633 q 810 1132 724 978 m 553 1553 q 592 1579 565 1567 q 640 1592 618 1592 q 675 1576 664 1592 l 826 1374 q 833 1354 833 1363 q 801 1311 833 1331 q 736 1292 768 1292 q 701 1304 710 1292 q 594 1447 629 1399 l 503 1350 q 465 1323 488 1333 q 421 1313 443 1313 q 404 1314 410 1313 q 374 1344 374 1321 q 383 1368 374 1357 q 553 1553 439 1431 z "},"Ẅ":{"ha":833,"x_min":29,"x_max":956,"o":"m 810 1132 q 851 1165 819 1151 q 913 1178 882 1178 q 956 1153 956 1178 q 950 1133 956 1143 q 800 797 864 969 q 654 365 736 625 q 564 88 596 179 q 524 50 557 68 q 461 32 490 32 q 421 61 426 32 q 368 535 376 285 l 176 93 q 133 56 168 74 q 68 39 97 39 q 38 49 49 39 q 29 78 26 58 q 85 574 49 243 l 139 1069 q 176 1113 142 1094 q 244 1132 211 1132 q 276 1124 265 1132 q 286 1099 288 1115 q 225 543 264 893 q 381 901 278 663 q 424 938 389 921 q 489 954 458 954 q 519 944 508 954 q 528 915 529 935 q 513 625 513 765 q 521 415 513 519 q 657 806 590 633 q 810 1132 724 978 m 419 1343 q 392 1371 397 1353 q 389 1388 389 1382 q 394 1413 389 1396 q 431 1449 404 1432 q 476 1464 453 1461 l 488 1464 q 519 1460 503 1464 q 530 1451 525 1458 q 536 1438 535 1444 q 535 1425 536 1429 q 535 1424 535 1425 q 536 1424 535 1424 q 549 1401 549 1415 q 526 1365 549 1381 q 450 1336 483 1336 q 419 1343 436 1336 m 788 1429 q 793 1417 790 1425 q 774 1371 794 1394 q 734 1347 757 1356 q 688 1339 711 1339 q 633 1357 656 1336 q 617 1396 619 1371 q 628 1421 617 1408 q 654 1442 640 1433 l 679 1454 q 706 1468 683 1457 q 728 1474 714 1471 q 747 1475 733 1475 q 788 1458 778 1475 q 792 1444 792 1453 q 788 1429 792 1438 z "},"Ẁ":{"ha":833,"x_min":29,"x_max":956,"o":"m 810 1132 q 851 1165 819 1151 q 913 1178 882 1178 q 956 1153 956 1178 q 950 1133 956 1143 q 800 797 864 969 q 654 365 736 625 q 564 88 596 179 q 524 50 557 68 q 461 32 490 32 q 421 61 426 32 q 368 535 376 285 l 176 93 q 133 56 168 74 q 68 39 97 39 q 38 49 49 39 q 29 78 26 58 q 85 574 49 243 l 139 1069 q 176 1113 142 1094 q 244 1132 211 1132 q 276 1124 265 1132 q 286 1099 288 1115 q 225 543 264 893 q 381 901 278 663 q 424 938 389 921 q 489 954 458 954 q 519 944 508 954 q 528 915 529 935 q 513 625 513 765 q 521 415 513 519 q 657 806 590 633 q 810 1132 724 978 m 356 1504 q 347 1526 347 1515 q 381 1573 347 1551 q 450 1594 415 1594 q 489 1579 478 1594 q 550 1504 531 1529 l 663 1368 q 671 1347 671 1358 q 636 1300 671 1322 q 567 1278 601 1278 q 528 1293 540 1278 l 356 1504 z "},"X":{"ha":971,"x_min":43,"x_max":1097,"o":"m 1065 1208 q 1097 1175 1097 1196 q 1086 1151 1097 1163 q 583 585 854 906 q 697 414 635 501 q 771 310 760 326 l 833 221 q 840 201 840 210 q 803 153 840 175 q 732 131 767 131 q 694 146 704 131 l 636 229 q 478 457 544 357 q 183 89 311 256 q 144 64 171 74 q 90 54 117 54 q 56 61 69 54 q 43 81 43 68 q 56 108 43 92 q 414 558 231 338 l 386 604 q 268 847 317 726 l 253 883 q 226 949 236 921 q 217 1004 217 978 q 226 1054 217 1031 q 268 1091 235 1076 q 333 1106 301 1106 q 379 1076 379 1106 q 375 1060 379 1071 q 371 1038 371 1050 q 386 971 371 1010 q 426 882 401 932 l 443 849 q 522 689 474 781 q 963 1169 753 957 q 1003 1199 979 1186 q 1049 1211 1028 1211 q 1065 1208 1054 1211 z "},"Y":{"ha":851,"x_min":-44,"x_max":819,"o":"m 792 1053 q 813 855 806 929 q 819 700 819 781 q 675 211 819 376 q 491 68 594 119 q 282 17 388 17 q 112 56 193 17 q -36 172 31 94 q -44 193 -44 183 q -9 240 -44 218 q 61 261 26 261 q 99 247 86 261 q 324 117 207 117 q 429 144 378 117 q 534 222 488 174 q 607 331 581 271 q 669 689 669 472 q 548 564 618 610 q 393 518 478 518 q 250 581 293 518 q 207 746 207 643 q 227 919 207 832 q 281 1115 247 1006 q 326 1156 288 1138 q 396 1174 364 1174 q 423 1167 414 1174 q 428 1147 432 1160 l 419 1114 q 389 997 404 1057 q 365 883 374 936 q 354 765 354 806 q 408 629 354 658 q 443 619 426 619 q 545 710 500 619 q 615 915 590 801 q 636 1078 639 1029 q 667 1124 635 1104 q 733 1143 699 1143 q 783 1107 779 1143 l 783 1097 l 788 1085 l 792 1053 z "},"Ý":{"ha":833,"x_min":-44,"x_max":819,"o":"m 792 1053 q 813 855 806 929 q 819 700 819 781 q 675 211 819 376 q 491 68 594 119 q 282 17 388 17 q 112 56 193 17 q -36 172 31 94 q -44 193 -44 183 q -9 240 -44 218 q 61 261 26 261 q 99 247 86 261 q 324 117 207 117 q 429 144 378 117 q 534 222 488 174 q 607 331 581 271 q 669 689 669 472 q 548 564 618 610 q 393 518 478 518 q 250 581 293 518 q 207 746 207 643 q 227 919 207 832 q 281 1115 247 1006 q 326 1156 288 1138 q 396 1174 364 1174 q 423 1167 414 1174 q 428 1147 432 1160 l 419 1114 q 389 997 404 1057 q 365 883 374 936 q 354 765 354 806 q 408 629 354 658 q 443 619 426 619 q 545 710 500 619 q 615 915 590 801 q 636 1078 639 1029 q 667 1124 635 1104 q 733 1143 699 1143 q 783 1107 779 1143 l 783 1097 l 788 1085 l 792 1053 m 543 1376 q 525 1399 525 1385 q 549 1438 525 1417 q 692 1568 618 1503 q 724 1587 704 1579 q 763 1594 744 1594 q 790 1589 779 1594 q 808 1565 808 1581 q 786 1526 808 1546 q 643 1397 736 1479 q 610 1378 631 1386 q 571 1371 590 1371 q 543 1376 554 1371 z "},"Ŷ":{"ha":833,"x_min":-44,"x_max":831,"o":"m 792 1053 q 813 855 806 929 q 819 700 819 781 q 675 211 819 376 q 491 68 594 119 q 282 17 388 17 q 112 56 193 17 q -36 172 31 94 q -44 193 -44 183 q -9 240 -44 218 q 61 261 26 261 q 99 247 86 261 q 324 117 207 117 q 429 144 378 117 q 534 222 488 174 q 607 331 581 271 q 669 689 669 472 q 548 564 618 610 q 393 518 478 518 q 250 581 293 518 q 207 746 207 643 q 227 919 207 832 q 281 1115 247 1006 q 326 1156 288 1138 q 396 1174 364 1174 q 423 1167 414 1174 q 428 1147 432 1160 l 419 1114 q 389 997 404 1057 q 365 883 374 936 q 354 765 354 806 q 408 629 354 658 q 443 619 426 619 q 545 710 500 619 q 615 915 590 801 q 636 1078 639 1029 q 667 1124 635 1104 q 733 1143 699 1143 q 783 1107 779 1143 l 783 1097 l 788 1085 l 792 1053 m 550 1640 q 589 1667 563 1654 q 638 1679 615 1679 q 672 1664 661 1679 l 824 1461 q 831 1442 831 1450 q 798 1399 831 1418 q 733 1379 765 1379 q 699 1392 707 1379 q 592 1535 626 1486 l 500 1438 q 463 1410 485 1421 q 418 1400 440 1400 q 401 1401 407 1400 q 371 1432 371 1408 q 381 1456 371 1444 q 550 1640 436 1518 z "},"Ÿ":{"ha":833,"x_min":-44,"x_max":819,"o":"m 792 1053 q 813 855 806 929 q 819 700 819 781 q 675 211 819 376 q 491 68 594 119 q 282 17 388 17 q 112 56 193 17 q -36 172 31 94 q -44 193 -44 183 q -9 240 -44 218 q 61 261 26 261 q 99 247 86 261 q 324 117 207 117 q 429 144 378 117 q 534 222 488 174 q 607 331 581 271 q 669 689 669 472 q 548 564 618 610 q 393 518 478 518 q 250 581 293 518 q 207 746 207 643 q 227 919 207 832 q 281 1115 247 1006 q 326 1156 288 1138 q 396 1174 364 1174 q 423 1167 414 1174 q 428 1147 432 1160 l 419 1114 q 389 997 404 1057 q 365 883 374 936 q 354 765 354 806 q 408 629 354 658 q 443 619 426 619 q 545 710 500 619 q 615 915 590 801 q 636 1078 639 1029 q 667 1124 635 1104 q 733 1143 699 1143 q 783 1107 779 1143 l 783 1097 l 788 1085 l 792 1053 m 440 1463 q 413 1490 418 1472 q 410 1507 410 1501 q 415 1532 410 1515 q 451 1568 425 1551 q 497 1583 474 1581 l 508 1583 q 540 1579 524 1583 q 551 1571 546 1578 q 557 1557 556 1564 q 556 1544 557 1549 q 556 1544 556 1544 q 557 1543 556 1543 q 569 1521 569 1535 q 547 1485 569 1500 q 471 1456 504 1456 q 440 1463 457 1456 m 808 1549 q 814 1536 811 1544 q 794 1490 815 1514 q 755 1467 778 1475 q 708 1458 732 1458 q 654 1476 676 1456 q 638 1515 640 1490 q 649 1540 638 1528 q 675 1561 661 1553 l 700 1574 q 726 1588 704 1576 q 749 1593 735 1590 q 768 1594 754 1594 q 808 1578 799 1594 q 813 1564 813 1572 q 808 1549 813 1557 z "},"Ẏ":{"ha":833,"x_min":-44,"x_max":819,"o":"m 792 1053 q 813 855 806 929 q 819 700 819 781 q 675 211 819 376 q 491 68 594 119 q 282 17 388 17 q 112 56 193 17 q -36 172 31 94 q -44 193 -44 183 q -9 240 -44 218 q 61 261 26 261 q 99 247 86 261 q 324 117 207 117 q 429 144 378 117 q 534 222 488 174 q 607 331 581 271 q 669 689 669 472 q 548 564 618 610 q 393 518 478 518 q 250 581 293 518 q 207 746 207 643 q 227 919 207 832 q 281 1115 247 1006 q 326 1156 288 1138 q 396 1174 364 1174 q 423 1167 414 1174 q 428 1147 432 1160 l 419 1114 q 389 997 404 1057 q 365 883 374 936 q 354 765 354 806 q 408 629 354 658 q 443 619 426 619 q 545 710 500 619 q 615 915 590 801 q 636 1078 639 1029 q 667 1124 635 1104 q 733 1143 699 1143 q 783 1107 779 1143 l 783 1097 l 788 1085 l 792 1053 m 606 1542 q 644 1533 626 1542 q 667 1506 661 1524 q 668 1494 668 1501 q 656 1463 668 1478 q 638 1447 650 1454 q 583 1403 629 1421 q 543 1394 558 1394 l 532 1396 q 514 1403 524 1397 q 503 1415 504 1408 q 497 1450 497 1431 q 503 1481 497 1468 q 545 1524 515 1507 q 606 1542 575 1540 z "},"Ỳ":{"ha":833,"x_min":-44,"x_max":819,"o":"m 792 1053 q 813 855 806 929 q 819 700 819 781 q 675 211 819 376 q 491 68 594 119 q 282 17 388 17 q 112 56 193 17 q -36 172 31 94 q -44 193 -44 183 q -9 240 -44 218 q 61 261 26 261 q 99 247 86 261 q 324 117 207 117 q 429 144 378 117 q 534 222 488 174 q 607 331 581 271 q 669 689 669 472 q 548 564 618 610 q 393 518 478 518 q 250 581 293 518 q 207 746 207 643 q 227 919 207 832 q 281 1115 247 1006 q 326 1156 288 1138 q 396 1174 364 1174 q 423 1167 414 1174 q 428 1147 432 1160 l 419 1114 q 389 997 404 1057 q 365 883 374 936 q 354 765 354 806 q 408 629 354 658 q 443 619 426 619 q 545 710 500 619 q 615 915 590 801 q 636 1078 639 1029 q 667 1124 635 1104 q 733 1143 699 1143 q 783 1107 779 1143 l 783 1097 l 788 1085 l 792 1053 m 414 1583 q 406 1606 406 1594 q 440 1652 406 1631 q 508 1674 474 1674 q 547 1658 536 1674 q 608 1583 589 1608 l 721 1447 q 729 1426 729 1438 q 694 1379 729 1401 q 625 1357 660 1357 q 586 1372 599 1357 l 414 1583 z "},"Z":{"ha":886,"x_min":-25,"x_max":958,"o":"m 913 1122 q 944 1113 929 1122 q 958 1088 958 1103 q 953 1072 958 1079 q 842 944 919 1022 l 807 908 l 565 649 l 689 657 q 733 650 718 658 q 747 626 747 642 q 726 588 747 607 q 674 565 704 568 l 475 550 q 249 300 340 406 l 225 274 l 154 188 q 372 218 264 200 q 640 267 479 236 q 749 286 676 272 q 768 288 756 288 q 798 278 788 288 q 808 256 808 269 q 793 221 808 238 q 753 199 778 204 q 40 82 336 104 q -5 90 15 81 q -25 122 -25 99 q 0 183 -25 150 q 67 260 25 217 q 78 273 72 268 q 86 282 83 278 q 318 539 199 413 q 213 532 282 538 q 168 539 183 531 q 153 563 153 547 q 176 601 153 582 q 229 624 199 621 q 407 638 349 632 l 664 913 l 772 1029 q 500 1004 681 1026 q 331 985 400 992 q 194 978 263 979 q 154 999 154 978 q 173 1032 154 1014 q 214 1056 192 1050 q 342 1079 279 1072 q 519 1096 406 1086 l 614 1104 l 676 1110 q 765 1118 689 1111 q 913 1122 842 1125 z "},"Ź":{"ha":833,"x_min":-25,"x_max":958,"o":"m 913 1122 q 944 1113 929 1122 q 958 1088 958 1103 q 953 1072 958 1079 q 842 944 919 1022 l 807 908 l 565 649 l 689 657 q 733 650 718 658 q 747 626 747 642 q 726 588 747 607 q 674 565 704 568 l 475 550 q 249 300 340 406 l 225 274 l 154 188 q 372 218 264 200 q 640 267 479 236 q 749 286 676 272 q 768 288 756 288 q 798 278 788 288 q 808 256 808 269 q 793 221 808 238 q 753 199 778 204 q 40 82 336 104 q -5 90 15 81 q -25 122 -25 99 q 0 183 -25 150 q 67 260 25 217 q 78 273 72 268 q 86 282 83 278 q 318 539 199 413 q 213 532 282 538 q 168 539 183 531 q 153 563 153 547 q 176 601 153 582 q 229 624 199 621 q 407 638 349 632 l 664 913 l 772 1029 q 500 1004 681 1026 q 331 985 400 992 q 194 978 263 979 q 154 999 154 978 q 173 1032 154 1014 q 214 1056 192 1050 q 342 1079 279 1072 q 519 1096 406 1086 l 614 1104 l 676 1110 q 765 1118 689 1111 q 913 1122 842 1125 m 510 1358 q 492 1381 492 1367 q 515 1419 492 1399 q 658 1550 585 1485 q 691 1569 671 1561 q 729 1576 711 1576 q 757 1571 746 1576 q 775 1547 775 1563 q 753 1508 775 1528 q 610 1379 703 1461 q 577 1360 597 1368 q 538 1353 557 1353 q 510 1358 521 1353 z "},"Ž":{"ha":833,"x_min":-25,"x_max":958,"o":"m 913 1122 q 944 1113 929 1122 q 958 1088 958 1103 q 953 1072 958 1079 q 842 944 919 1022 l 807 908 l 565 649 l 689 657 q 733 650 718 658 q 747 626 747 642 q 726 588 747 607 q 674 565 704 568 l 475 550 q 249 300 340 406 l 225 274 l 154 188 q 372 218 264 200 q 640 267 479 236 q 749 286 676 272 q 768 288 756 288 q 798 278 788 288 q 808 256 808 269 q 793 221 808 238 q 753 199 778 204 q 40 82 336 104 q -5 90 15 81 q -25 122 -25 99 q 0 183 -25 150 q 67 260 25 217 q 78 273 72 268 q 86 282 83 278 q 318 539 199 413 q 213 532 282 538 q 168 539 183 531 q 153 563 153 547 q 176 601 153 582 q 229 624 199 621 q 407 638 349 632 l 664 913 l 772 1029 q 500 1004 681 1026 q 331 985 400 992 q 194 978 263 979 q 154 999 154 978 q 173 1032 154 1014 q 214 1056 192 1050 q 342 1079 279 1072 q 519 1096 406 1086 l 614 1104 l 676 1110 q 765 1118 689 1111 q 913 1122 842 1125 m 419 1439 q 411 1460 411 1450 q 444 1503 411 1483 q 511 1524 478 1524 q 549 1510 536 1524 l 631 1417 l 738 1522 q 776 1549 754 1539 q 819 1560 797 1560 q 836 1558 831 1560 q 859 1546 850 1556 q 868 1525 868 1536 q 857 1501 868 1513 l 810 1453 q 742 1385 786 1429 q 664 1311 697 1342 q 632 1292 651 1300 q 594 1285 613 1285 q 571 1289 581 1285 q 553 1299 560 1292 q 536 1310 539 1306 l 419 1439 z "},"Ż":{"ha":833,"x_min":-25,"x_max":958,"o":"m 913 1122 q 944 1113 929 1122 q 958 1088 958 1103 q 953 1072 958 1079 q 842 944 919 1022 l 807 908 l 565 649 l 689 657 q 733 650 718 658 q 747 626 747 642 q 726 588 747 607 q 674 565 704 568 l 475 550 q 249 300 340 406 l 225 274 l 154 188 q 372 218 264 200 q 640 267 479 236 q 749 286 676 272 q 768 288 756 288 q 798 278 788 288 q 808 256 808 269 q 793 221 808 238 q 753 199 778 204 q 40 82 336 104 q -5 90 15 81 q -25 122 -25 99 q 0 183 -25 150 q 67 260 25 217 q 78 273 72 268 q 86 282 83 278 q 318 539 199 413 q 213 532 282 538 q 168 539 183 531 q 153 563 153 547 q 176 601 153 582 q 229 624 199 621 q 407 638 349 632 l 664 913 l 772 1029 q 500 1004 681 1026 q 331 985 400 992 q 194 978 263 979 q 154 999 154 978 q 173 1032 154 1014 q 214 1056 192 1050 q 342 1079 279 1072 q 519 1096 406 1086 l 614 1104 l 676 1110 q 765 1118 689 1111 q 913 1122 842 1125 m 647 1460 q 685 1451 668 1460 q 708 1424 703 1442 q 710 1413 710 1419 q 697 1381 710 1396 q 679 1365 692 1372 q 625 1321 671 1339 q 585 1313 600 1313 l 574 1314 q 556 1321 565 1315 q 544 1333 546 1326 q 539 1368 539 1349 q 544 1399 539 1386 q 587 1442 557 1425 q 647 1460 617 1458 z "},"Ķ":{"ha":833,"x_min":13,"x_max":843,"o":"m 290 -147 q 327 -116 299 -129 q 383 -103 356 -103 q 421 -128 421 -103 q 418 -143 421 -137 q 267 -344 371 -260 q 234 -362 253 -354 q 199 -369 215 -369 q 172 -364 183 -369 q 156 -340 156 -354 q 176 -303 156 -321 q 290 -147 251 -239 m 724 1108 q 753 1122 733 1117 q 794 1128 774 1128 q 829 1122 815 1128 q 843 1106 843 1117 q 829 1082 843 1096 l 282 550 l 264 535 q 569 636 461 636 q 692 551 668 636 q 699 494 699 519 q 690 422 699 458 q 667 336 682 385 q 642 242 649 274 q 635 175 635 211 q 638 140 635 163 q 672 132 658 139 q 685 114 685 125 q 658 76 685 99 l 624 47 q 588 28 613 38 q 540 18 563 18 q 499 43 508 18 q 483 136 483 85 q 491 217 483 176 q 514 319 499 258 q 540 439 533 389 q 544 481 544 476 q 535 517 544 504 q 503 531 526 531 q 437 513 475 531 q 390 490 399 494 q 236 415 331 465 q 164 96 201 246 q 121 53 158 71 q 50 35 83 35 q 20 42 31 35 q 14 65 10 50 q 21 97 19 89 q 49 219 29 133 q 82 371 68 304 q 58 399 58 381 q 96 442 58 419 q 168 1113 168 813 q 203 1156 168 1136 q 274 1176 239 1176 q 305 1168 293 1176 q 317 1144 317 1160 q 285 694 318 933 q 724 1108 482 893 z "},"Ļ":{"ha":833,"x_min":10,"x_max":564,"o":"m 222 -147 q 259 -116 231 -129 q 315 -103 288 -103 q 353 -128 353 -103 q 350 -143 353 -137 q 199 -344 303 -260 q 166 -362 185 -354 q 131 -369 147 -369 q 104 -364 115 -369 q 88 -340 88 -354 q 108 -303 88 -321 q 222 -147 183 -239 m 554 114 q 564 99 564 108 q 528 59 564 79 q 458 39 492 39 q 431 46 439 39 q 391 76 424 51 q 325 117 358 100 q 267 133 292 133 q 220 117 244 133 q 174 83 196 101 q 142 56 151 64 q 97 32 124 42 q 47 22 69 22 q 17 29 28 22 q 11 51 7 36 l 50 218 q 257 1088 168 731 q 298 1128 263 1111 q 367 1146 333 1146 q 394 1139 385 1146 q 400 1118 404 1132 q 278 589 358 942 l 186 193 q 276 222 233 217 q 308 225 299 225 q 426 197 369 225 q 554 114 482 168 z "},"Ņ":{"ha":833,"x_min":14,"x_max":901,"o":"m 319 -117 q 356 -85 328 -99 q 413 -72 385 -72 q 450 -97 450 -72 q 447 -112 450 -107 q 296 -314 400 -229 q 263 -331 282 -324 q 228 -339 244 -339 q 201 -333 213 -339 q 185 -310 185 -324 q 206 -272 185 -290 q 319 -117 281 -208 m 835 1176 q 854 1178 842 1178 q 890 1169 878 1178 q 901 1146 901 1160 q 879 1105 901 1125 q 825 1079 857 1085 l 819 1072 q 790 1029 807 1060 q 738 892 764 981 q 676 554 703 767 q 646 244 660 415 q 644 214 644 235 q 636 141 642 169 q 615 93 631 113 q 572 65 603 79 q 514 50 540 50 q 472 78 479 50 q 399 378 442 181 q 378 468 392 408 q 353 572 364 528 l 315 715 q 294 539 307 628 q 247 272 272 379 q 164 81 221 165 q 122 42 149 57 q 67 28 94 28 q 31 35 47 28 q 14 57 14 43 q 19 74 14 67 q 97 272 71 165 q 144 535 122 378 q 176 968 176 769 q 174 1089 176 1049 q 206 1135 172 1115 q 275 1156 239 1156 q 317 1142 303 1156 q 366 1070 349 1110 q 410 953 383 1031 q 497 650 444 853 q 524 546 507 615 q 543 678 529 589 q 591 906 565 811 q 676 1081 617 1000 q 835 1176 736 1163 z "},"Ŗ":{"ha":833,"x_min":6,"x_max":726,"o":"m 271 -147 q 308 -116 279 -129 q 364 -103 336 -103 q 401 -128 401 -103 q 399 -143 401 -137 q 247 -344 351 -260 q 215 -362 233 -354 q 179 -369 196 -369 q 153 -364 164 -369 q 136 -340 136 -354 q 157 -303 136 -321 q 271 -147 232 -239 m 725 886 q 493 611 710 707 q 600 458 579 565 q 608 347 608 415 q 606 226 608 307 l 604 174 q 643 69 604 79 q 675 43 675 63 q 638 -3 675 21 q 568 -26 600 -26 q 557 -25 561 -26 q 472 38 494 -11 q 450 161 450 86 q 453 235 450 188 q 456 296 456 279 q 448 415 457 364 q 407 501 439 465 q 292 550 367 546 q 244 540 279 547 l 160 94 q 117 49 154 68 q 44 31 81 31 q 14 39 25 31 q 6 63 3 47 q 94 519 58 338 q 54 543 54 518 q 72 580 54 558 q 111 611 89 601 l 179 972 q 193 1042 185 994 q 158 1036 175 1036 q 128 1044 139 1036 q 117 1065 117 1053 q 131 1094 117 1079 q 172 1121 146 1110 q 301 1154 226 1146 q 429 1163 372 1163 q 654 1104 582 1163 q 726 926 726 1046 q 725 886 726 900 m 572 828 q 581 881 581 857 q 510 1006 581 960 q 342 1058 439 1051 l 263 640 q 292 643 272 640 q 475 704 401 663 q 572 828 549 746 z "},"Ţ":{"ha":833,"x_min":1,"x_max":846,"o":"m 815 1135 q 846 1115 846 1133 q 813 1069 846 1094 q 756 1043 781 1043 q 490 1036 636 1043 q 326 158 372 563 q 359 149 346 157 q 372 129 372 142 q 347 93 372 113 l 293 51 q 256 33 283 42 q 206 25 229 25 q 167 60 163 25 q 344 1021 215 517 l 343 1026 q 47 996 185 1013 q 14 1002 26 993 q 3 1031 1 1011 q 27 1063 4 1050 q 76 1082 50 1075 q 374 1135 210 1121 l 382 1158 q 421 1192 388 1178 q 486 1207 454 1207 q 519 1199 507 1207 q 526 1175 531 1190 l 518 1143 l 583 1144 q 815 1135 685 1144 m 444 -99 q 325 -185 393 -153 q 186 -217 257 -217 q 122 -210 157 -217 q 92 -179 92 -203 q 101 -154 92 -165 q 138 -127 115 -137 q 185 -117 161 -117 q 199 -118 194 -117 q 229 -121 210 -121 q 292 -106 265 -121 l 163 -32 q 146 -7 146 -22 q 156 19 146 8 l 226 118 q 265 146 239 136 q 315 154 292 156 q 342 145 329 153 q 356 125 356 138 q 351 113 356 119 l 297 33 l 438 -46 q 456 -74 456 -57 q 444 -99 456 -85 z "},"Ǆ":{"ha":1801,"x_min":-46,"x_max":1926,"o":"m 815 615 q 768 735 815 681 q 649 842 721 789 q 344 1011 515 936 q 289 657 325 893 q 256 449 279 594 q 213 189 233 303 q 429 281 338 239 q 604 374 521 324 q 756 483 696 426 q 815 615 815 540 m 815 883 q 960 646 960 769 q 956 607 960 628 q 871 456 939 522 q 700 324 803 389 q 35 28 429 153 q -1 22 17 22 q -34 31 -22 22 q -46 54 -46 40 q -33 83 -46 68 q 6 107 -19 97 l 65 131 q 60 153 56 140 l 126 557 q 210 1061 165 810 l 211 1068 q 117 1107 181 1082 q 97 1129 97 1115 q 135 1173 97 1150 q 207 1196 174 1196 q 226 1193 221 1196 q 566 1043 431 1110 q 815 883 701 976 m 1881 1122 q 1912 1113 1897 1122 q 1926 1088 1926 1103 q 1921 1072 1926 1079 q 1810 944 1888 1022 l 1775 908 l 1533 649 l 1657 657 q 1701 650 1686 658 q 1715 626 1715 642 q 1694 588 1715 607 q 1642 565 1672 568 l 1443 550 q 1217 300 1308 406 l 1193 274 l 1122 188 q 1340 218 1232 200 q 1608 267 1447 236 q 1717 286 1644 272 q 1736 288 1724 288 q 1766 278 1756 288 q 1776 256 1776 269 q 1761 221 1776 238 q 1721 199 1746 204 q 1008 82 1304 104 q 963 90 983 81 q 943 122 943 99 q 968 183 943 150 q 1035 260 993 217 q 1046 273 1040 268 q 1054 282 1051 278 q 1286 539 1167 413 q 1181 532 1250 538 q 1136 539 1151 531 q 1121 563 1121 547 q 1144 601 1121 582 q 1197 624 1167 621 q 1375 638 1317 632 l 1632 913 l 1740 1029 q 1468 1004 1649 1026 q 1299 985 1368 992 q 1163 978 1231 979 q 1122 999 1122 978 q 1141 1032 1122 1014 q 1182 1056 1160 1050 q 1310 1079 1247 1072 q 1488 1096 1374 1086 l 1582 1104 l 1644 1110 q 1733 1118 1657 1111 q 1881 1122 1810 1125 m 1388 1439 q 1379 1460 1379 1450 q 1413 1503 1379 1483 q 1479 1524 1446 1524 q 1517 1510 1504 1524 l 1599 1417 l 1706 1522 q 1744 1549 1722 1539 q 1788 1560 1765 1560 q 1804 1558 1799 1560 q 1827 1546 1818 1556 q 1836 1525 1836 1536 q 1825 1501 1836 1513 l 1778 1453 q 1710 1385 1754 1429 q 1632 1311 1665 1342 q 1600 1292 1619 1300 q 1563 1285 1581 1285 q 1539 1289 1549 1285 q 1521 1299 1528 1292 q 1504 1310 1507 1306 l 1388 1439 z "},"ǅ":{"ha":1815,"x_min":-46,"x_max":1788,"o":"m 815 615 q 768 735 815 681 q 649 842 721 789 q 344 1011 515 936 q 289 657 325 893 q 256 449 279 594 q 213 189 233 303 q 429 281 338 239 q 604 374 521 324 q 756 483 696 426 q 815 615 815 540 m 815 883 q 960 646 960 769 q 956 607 960 628 q 871 456 939 522 q 700 324 803 389 q 35 28 429 153 q -1 22 17 22 q -34 31 -22 22 q -46 54 -46 40 q -33 83 -46 68 q 6 107 -19 97 l 65 131 q 60 153 56 140 l 126 557 q 210 1061 165 810 l 211 1068 q 117 1107 181 1082 q 97 1129 97 1115 q 135 1173 97 1150 q 207 1196 174 1196 q 226 1193 221 1196 q 566 1043 431 1110 q 815 883 701 976 m 1743 232 q 1776 226 1765 233 q 1788 206 1788 219 q 1766 162 1788 185 q 1719 135 1744 139 q 1499 108 1646 125 q 1060 51 1208 75 q 1014 59 1036 49 q 992 88 992 69 q 1003 114 992 101 q 1308 497 1117 265 l 1200 490 q 1166 499 1179 489 q 1153 525 1153 508 q 1182 569 1153 554 q 1243 586 1211 583 q 1394 600 1294 592 l 1592 832 q 1508 833 1564 833 q 1101 801 1313 833 q 1081 800 1093 800 q 1042 826 1042 800 q 1062 865 1042 844 q 1111 890 1082 885 q 1536 933 1308 933 q 1721 926 1619 933 q 1755 915 1739 925 q 1771 889 1771 904 q 1758 864 1771 879 q 1538 610 1646 739 q 1658 617 1635 617 q 1688 608 1676 617 q 1700 582 1700 599 q 1672 538 1700 553 q 1611 519 1643 522 l 1451 507 q 1185 169 1314 340 q 1743 232 1460 211 m 1240 1235 q 1232 1256 1232 1246 q 1265 1299 1232 1279 q 1332 1319 1299 1319 q 1369 1306 1357 1319 l 1451 1213 l 1558 1318 q 1597 1345 1575 1335 q 1640 1356 1618 1356 q 1657 1354 1651 1356 q 1680 1342 1671 1351 q 1689 1321 1689 1332 q 1678 1297 1689 1308 l 1631 1249 q 1563 1181 1607 1225 q 1485 1107 1518 1138 q 1453 1088 1472 1096 q 1415 1081 1433 1081 q 1392 1085 1401 1081 q 1374 1094 1381 1088 q 1357 1106 1360 1101 l 1240 1235 z "},"Ǉ":{"ha":1435,"x_min":10,"x_max":1578,"o":"m 554 114 q 564 99 564 108 q 528 59 564 79 q 458 39 492 39 q 431 46 439 39 q 391 76 424 51 q 325 117 358 100 q 267 133 292 133 q 220 117 244 133 q 174 83 196 101 q 142 56 151 64 q 97 32 124 42 q 47 22 69 22 q 17 29 28 22 q 11 51 7 36 l 50 218 q 257 1088 168 731 q 298 1128 263 1111 q 367 1146 333 1146 q 394 1139 385 1146 q 400 1118 404 1132 q 278 589 358 942 l 186 193 q 276 222 233 217 q 308 225 299 225 q 426 197 369 225 q 554 114 482 168 m 1517 1174 q 1538 1176 1531 1176 q 1566 1169 1554 1176 q 1578 1147 1578 1163 q 1490 1082 1578 1108 q 1318 1043 1388 1057 q 1339 848 1332 926 q 1346 689 1346 769 q 1342 583 1346 638 q 1300 349 1331 454 q 1196 168 1269 244 q 1061 72 1133 103 q 914 40 989 40 q 700 107 799 40 q 560 276 601 174 q 571 309 553 292 q 618 338 589 326 q 672 349 647 349 q 714 329 706 349 q 803 202 744 256 q 939 140 863 149 q 960 139 946 139 q 1163 382 1106 139 q 1190 649 1190 500 q 1157 1021 1190 800 q 1053 1017 1106 1017 q 926 1025 989 1017 q 900 1042 900 1029 q 944 1083 900 1058 q 1010 1110 988 1107 l 1101 1118 q 1333 1140 1244 1129 q 1517 1174 1422 1150 z "},"ǈ":{"ha":944,"x_min":10,"x_max":901,"o":"m 554 114 q 564 99 564 108 q 528 59 564 79 q 458 39 492 39 q 431 46 439 39 q 391 76 424 51 q 325 117 358 100 q 267 133 292 133 q 220 117 244 133 q 174 83 196 101 q 142 56 151 64 q 97 32 124 42 q 47 22 69 22 q 17 29 28 22 q 11 51 7 36 l 50 218 q 257 1088 168 731 q 298 1128 263 1111 q 367 1146 333 1146 q 394 1139 385 1146 q 400 1118 404 1132 q 278 589 358 942 l 186 193 q 276 222 233 217 q 308 225 299 225 q 426 197 369 225 q 554 114 482 168 m 756 846 q 790 892 757 872 q 857 911 822 911 q 890 902 876 911 q 901 875 903 893 q 729 -326 885 256 q 645 -511 699 -437 q 497 -596 592 -585 q 472 -597 489 -597 q 330 -515 374 -597 q 269 -310 286 -432 q 297 -253 264 -278 q 368 -229 331 -229 q 419 -268 414 -229 q 442 -403 429 -349 q 489 -475 454 -457 q 507 -481 503 -481 q 542 -456 529 -481 q 561 -408 554 -431 q 569 -379 568 -385 q 619 -197 599 -290 q 664 28 640 -103 q 756 846 736 419 m 728 1000 q 739 986 729 992 q 758 979 749 981 q 772 978 763 978 q 811 986 794 978 q 853 1012 836 996 q 867 1050 871 1028 l 854 1106 q 843 1119 853 1114 q 824 1125 833 1124 q 808 1126 819 1126 q 769 1119 790 1126 q 715 1054 706 1092 l 728 1000 z "},"Ǌ":{"ha":1678,"x_min":14,"x_max":1821,"o":"m 835 1176 q 854 1178 842 1178 q 890 1169 878 1178 q 901 1146 901 1160 q 879 1105 901 1125 q 825 1079 857 1085 l 819 1072 q 790 1029 807 1060 q 738 892 764 981 q 676 554 703 767 q 646 244 660 415 q 644 214 644 235 q 636 141 642 169 q 615 93 631 113 q 572 65 603 79 q 514 50 540 50 q 472 78 479 50 q 399 378 442 181 q 378 468 392 408 q 353 572 364 528 l 315 715 q 294 539 307 628 q 247 272 272 379 q 164 81 221 165 q 122 42 149 57 q 67 28 94 28 q 31 35 47 28 q 14 57 14 43 q 19 74 14 67 q 97 272 71 165 q 144 535 122 378 q 176 968 176 769 q 174 1089 176 1049 q 206 1135 172 1115 q 275 1156 239 1156 q 317 1142 303 1156 q 366 1070 349 1110 q 410 953 383 1031 q 497 650 444 853 q 524 546 507 615 q 543 678 529 589 q 591 906 565 811 q 676 1081 617 1000 q 835 1176 736 1163 m 1760 1174 q 1781 1176 1774 1176 q 1809 1169 1797 1176 q 1821 1147 1821 1163 q 1733 1082 1821 1108 q 1561 1043 1631 1057 q 1582 848 1575 926 q 1589 689 1589 769 q 1585 583 1589 638 q 1543 349 1574 454 q 1439 168 1513 244 q 1304 72 1376 103 q 1157 40 1232 40 q 943 107 1042 40 q 803 276 844 174 q 814 309 796 292 q 861 338 832 326 q 915 349 890 349 q 957 329 949 349 q 1047 202 988 256 q 1182 140 1106 149 q 1203 139 1189 139 q 1406 382 1349 139 q 1433 649 1433 500 q 1400 1021 1433 800 q 1296 1017 1349 1017 q 1169 1025 1232 1017 q 1143 1042 1143 1029 q 1187 1083 1143 1058 q 1253 1110 1231 1107 l 1344 1118 q 1576 1140 1488 1129 q 1760 1174 1665 1150 z "},"ǋ":{"ha":1188,"x_min":14,"x_max":1144,"o":"m 835 1176 q 854 1178 842 1178 q 890 1169 878 1178 q 901 1146 901 1160 q 879 1105 901 1125 q 825 1079 857 1085 l 819 1072 q 790 1029 807 1060 q 738 892 764 981 q 676 554 703 767 q 646 244 660 415 q 644 214 644 235 q 636 141 642 169 q 615 93 631 113 q 572 65 603 79 q 514 50 540 50 q 472 78 479 50 q 399 378 442 181 q 378 468 392 408 q 353 572 364 528 l 315 715 q 294 539 307 628 q 247 272 272 379 q 164 81 221 165 q 122 42 149 57 q 67 28 94 28 q 31 35 47 28 q 14 57 14 43 q 19 74 14 67 q 97 272 71 165 q 144 535 122 378 q 176 968 176 769 q 174 1089 176 1049 q 206 1135 172 1115 q 275 1156 239 1156 q 317 1142 303 1156 q 366 1070 349 1110 q 410 953 383 1031 q 497 650 444 853 q 524 546 507 615 q 543 678 529 589 q 591 906 565 811 q 676 1081 617 1000 q 835 1176 736 1163 m 999 846 q 1033 892 1000 872 q 1100 911 1065 911 q 1133 902 1119 911 q 1144 875 1146 893 q 972 -326 1128 256 q 888 -511 942 -437 q 740 -596 835 -585 q 715 -597 732 -597 q 573 -515 617 -597 q 513 -310 529 -432 q 540 -253 507 -278 q 611 -229 574 -229 q 663 -268 657 -229 q 685 -403 672 -349 q 732 -475 697 -457 q 750 -481 746 -481 q 785 -456 772 -481 q 804 -408 797 -431 q 813 -379 811 -385 q 863 -197 842 -290 q 907 28 883 -103 q 999 846 979 419 m 971 1000 q 982 986 972 992 q 1001 979 992 981 q 1015 978 1006 978 q 1054 986 1038 978 q 1097 1012 1079 996 q 1110 1050 1114 1028 l 1097 1106 q 1086 1119 1096 1114 q 1067 1125 1076 1124 q 1051 1126 1063 1126 q 1013 1119 1033 1126 q 958 1054 949 1092 l 971 1000 z "},"Ǫ":{"ha":833,"x_min":26,"x_max":913,"o":"m 501 204 q 628 357 565 257 q 731 574 690 457 q 771 792 771 690 q 715 975 771 903 q 536 1061 658 1047 q 286 778 418 1038 q 174 390 174 556 q 188 281 174 332 q 249 179 206 214 q 351 144 293 144 q 501 204 429 144 m 733 1132 q 868 1003 824 1092 q 913 800 913 914 q 892 640 913 728 q 736 300 846 457 q 471 75 626 143 q 311 40 390 40 q 126 100 204 40 q 32 271 49 160 q 26 353 26 308 q 83 638 26 492 q 229 911 140 785 q 403 1090 301 1014 q 610 1165 506 1165 q 731 1133 672 1165 l 733 1132 m 457 -31 q 475 -42 468 -33 q 482 -60 482 -50 q 471 -83 482 -72 q 396 -134 438 -117 q 308 -149 354 -151 q 244 -131 274 -146 q 200 -86 215 -115 q 190 -46 190 -68 q 224 43 190 0 q 290 98 250 78 q 376 121 331 118 q 408 115 393 124 q 422 93 422 107 q 419 81 422 89 q 347 36 403 44 q 333 15 338 25 q 326 -14 326 1 q 331 -33 326 -25 q 363 -56 342 -51 l 365 -56 l 368 -53 q 399 -35 381 -42 q 435 -28 417 -28 q 457 -31 443 -28 m 349 36 q 351 39 353 38 l 349 36 z "},"Ȁ":{"ha":879,"x_min":-126,"x_max":751,"o":"m 389 1508 q 432 1517 411 1517 q 474 1497 463 1517 q 556 1351 500 1449 q 543 1315 565 1333 q 500 1289 521 1296 q 458 1281 478 1281 q 417 1300 428 1281 l 389 1349 q 333 1446 342 1432 q 345 1482 322 1463 q 389 1508 368 1501 m 690 1532 q 729 1435 699 1513 q 717 1399 736 1415 q 674 1372 697 1382 q 631 1364 651 1364 q 592 1383 600 1364 l 569 1440 l 553 1481 q 566 1519 546 1501 q 608 1543 586 1536 q 651 1553 635 1553 q 690 1532 683 1553 m 331 561 q 510 575 428 575 l 496 899 q 401 707 463 839 q 331 561 349 594 m 746 64 q 735 24 751 43 q 690 -6 718 6 q 636 -18 661 -18 q 590 7 596 -18 q 517 479 540 206 q 268 456 392 481 q 25 54 138 238 q -22 22 14 35 q -87 8 -57 8 q -126 29 -126 8 q -121 47 -126 38 q 85 403 -10 242 l 61 394 q 21 386 39 386 q -8 394 3 386 q -18 415 -18 403 q -5 444 -18 429 q 33 469 8 458 q 150 515 99 499 q 310 808 225 644 q 474 1101 407 996 q 485 1113 478 1107 l 483 1119 q 519 1165 483 1144 q 590 1185 554 1185 q 636 1151 635 1185 l 640 1058 q 673 495 653 724 q 746 64 693 267 z "},"Ȃ":{"ha":879,"x_min":-126,"x_max":831,"o":"m 676 1522 q 788 1468 744 1517 q 831 1356 831 1419 q 819 1294 831 1328 q 781 1262 813 1275 q 719 1249 750 1249 q 690 1256 700 1249 q 683 1279 679 1264 q 689 1325 689 1297 q 674 1387 689 1360 q 629 1424 660 1414 q 611 1426 618 1426 q 568 1406 586 1426 q 540 1356 550 1385 q 502 1323 535 1336 q 439 1310 469 1310 q 409 1317 419 1310 q 403 1338 399 1324 q 499 1471 426 1418 q 654 1524 571 1524 l 676 1522 m 331 561 q 510 575 428 575 l 496 899 q 401 707 463 839 q 331 561 349 594 m 746 64 q 735 24 751 43 q 690 -6 718 6 q 636 -18 661 -18 q 590 7 596 -18 q 517 479 540 206 q 268 456 392 481 q 25 54 138 238 q -22 22 14 35 q -87 8 -57 8 q -126 29 -126 8 q -121 47 -126 38 q 85 403 -10 242 l 61 394 q 21 386 39 386 q -8 394 3 386 q -18 415 -18 403 q -5 444 -18 429 q 33 469 8 458 q 150 515 99 499 q 310 808 225 644 q 474 1101 407 996 q 485 1113 478 1107 l 483 1119 q 519 1165 483 1144 q 590 1185 554 1185 q 636 1151 635 1185 l 640 1058 q 673 495 653 724 q 746 64 693 267 z "},"Ȅ":{"ha":833,"x_min":-19,"x_max":947,"o":"m 431 1482 q 474 1490 453 1490 q 515 1471 504 1490 q 597 1325 542 1422 q 585 1288 607 1307 q 542 1263 563 1269 q 500 1254 519 1254 q 458 1274 469 1254 l 431 1322 q 375 1419 383 1406 q 387 1456 364 1436 q 431 1482 410 1475 m 732 1506 q 771 1408 740 1486 q 758 1372 778 1389 q 715 1346 739 1356 q 672 1338 693 1338 q 633 1357 642 1338 l 611 1414 l 594 1454 q 608 1492 588 1475 q 650 1517 628 1510 q 693 1526 676 1526 q 732 1506 725 1526 m 915 1142 q 947 1118 947 1136 q 928 1087 947 1104 q 883 1058 908 1069 q 839 1050 857 1047 q 697 1060 772 1060 q 396 1022 565 1060 q 294 644 344 850 q 578 681 456 681 q 631 679 613 681 q 660 653 660 678 q 630 608 660 625 q 568 590 600 592 q 272 549 419 578 q 196 179 232 379 q 472 186 349 186 q 774 171 636 186 q 803 143 803 167 q 794 115 803 131 q 752 85 781 94 q 696 79 724 76 q 503 86 615 86 q 315 82 410 86 q 174 79 221 79 q 127 46 160 60 q 67 32 94 32 q 35 40 46 32 q 26 64 24 49 q 29 79 26 68 l 26 79 q -19 103 -19 79 q 0 136 -19 118 q 44 165 19 154 q 133 599 88 400 q 240 983 179 799 l 229 982 q 203 990 213 982 q 194 1011 194 999 q 208 1044 194 1028 q 246 1069 222 1061 l 272 1078 l 279 1096 q 317 1131 286 1117 q 378 1146 347 1146 q 422 1119 418 1146 q 729 1158 588 1158 q 915 1142 824 1158 z "},"Ȇ":{"ha":879,"x_min":-19,"x_max":947,"o":"m 715 1547 q 834 1497 786 1547 q 882 1375 882 1447 q 881 1349 882 1358 q 841 1304 878 1326 q 776 1282 804 1282 q 750 1307 749 1282 q 733 1393 754 1353 q 669 1439 713 1433 q 618 1417 636 1443 q 594 1356 600 1392 q 554 1312 592 1333 q 488 1290 517 1290 q 464 1311 463 1290 q 503 1421 469 1369 q 587 1506 536 1472 q 697 1546 638 1540 l 715 1547 m 915 1142 q 947 1118 947 1136 q 928 1087 947 1104 q 883 1058 908 1069 q 839 1050 857 1047 q 697 1060 772 1060 q 396 1022 565 1060 q 294 644 344 850 q 578 681 456 681 q 631 679 613 681 q 660 653 660 678 q 630 608 660 625 q 568 590 600 592 q 272 549 419 578 q 196 179 232 379 q 472 186 349 186 q 774 171 636 186 q 803 143 803 167 q 794 115 803 131 q 752 85 781 94 q 696 79 724 76 q 503 86 615 86 q 315 82 410 86 q 174 79 221 79 q 127 46 160 60 q 67 32 94 32 q 35 40 46 32 q 26 64 24 49 q 29 79 26 68 l 26 79 q -19 103 -19 79 q 0 136 -19 118 q 44 165 19 154 q 133 599 88 400 q 240 983 179 799 l 229 982 q 203 990 213 982 q 194 1011 194 999 q 208 1044 194 1028 q 246 1069 222 1061 l 272 1078 l 279 1096 q 317 1131 286 1117 q 378 1146 347 1146 q 422 1119 418 1146 q 729 1158 588 1158 q 915 1142 824 1158 z "},"Ȉ":{"ha":833,"x_min":-43,"x_max":807,"o":"m 307 1476 q 350 1485 329 1485 q 392 1465 381 1485 q 474 1319 418 1417 q 461 1283 483 1301 q 418 1257 439 1264 q 376 1249 396 1249 q 335 1268 346 1249 l 307 1317 q 251 1414 260 1400 q 263 1450 240 1431 q 307 1476 286 1469 m 608 1500 q 647 1403 617 1481 q 635 1367 654 1383 q 592 1340 615 1350 q 549 1332 569 1332 q 510 1351 518 1332 l 488 1408 l 471 1449 q 484 1487 464 1469 q 526 1511 504 1504 q 569 1521 553 1521 q 608 1500 601 1521 m 740 1176 q 760 1178 746 1178 q 793 1169 779 1178 q 807 1143 807 1161 q 783 1107 807 1122 q 731 1085 758 1092 q 540 1046 631 1057 q 476 622 519 839 q 367 161 432 404 q 561 171 497 164 q 607 147 607 175 q 583 103 607 126 q 533 78 560 81 q 169 53 340 53 q -12 61 76 53 q -43 78 -43 65 q -3 119 -43 94 q 56 146 36 144 q 222 158 136 156 q 332 624 289 415 q 394 1035 375 833 q 199 1047 283 1032 q 169 1067 169 1053 q 208 1108 169 1085 q 267 1132 246 1131 q 418 1140 344 1139 l 494 1144 l 504 1144 q 740 1176 646 1151 z "},"Ȋ":{"ha":746,"x_min":-43,"x_max":807,"o":"m 588 1536 q 681 1518 639 1540 q 747 1456 722 1496 q 771 1367 771 1415 q 768 1336 771 1356 q 729 1293 765 1314 q 664 1272 693 1272 q 638 1297 636 1272 q 622 1383 642 1343 q 558 1431 603 1424 q 507 1409 525 1435 q 483 1347 489 1383 q 444 1304 481 1325 q 378 1283 407 1283 q 357 1289 364 1283 q 351 1307 350 1294 q 392 1416 358 1365 q 477 1499 425 1467 q 588 1536 529 1532 m 740 1176 q 760 1178 746 1178 q 793 1169 779 1178 q 807 1143 807 1161 q 783 1107 807 1122 q 731 1085 758 1092 q 540 1046 631 1057 q 476 622 519 839 q 367 161 432 404 q 561 171 497 164 q 607 147 607 175 q 583 103 607 126 q 533 78 560 81 q 169 53 340 53 q -12 61 76 53 q -43 78 -43 65 q -3 119 -43 94 q 56 146 36 144 q 222 158 136 156 q 332 624 289 415 q 394 1035 375 833 q 199 1047 283 1032 q 169 1067 169 1053 q 208 1108 169 1085 q 267 1132 246 1131 q 418 1140 344 1139 l 494 1144 l 504 1144 q 740 1176 646 1151 z "},"Ȍ":{"ha":833,"x_min":26,"x_max":913,"o":"m 469 1490 q 513 1499 492 1499 q 554 1479 543 1499 q 636 1333 581 1431 q 624 1297 646 1315 q 581 1271 601 1278 q 539 1263 558 1263 q 497 1282 508 1263 l 469 1331 q 414 1428 422 1414 q 426 1464 403 1444 q 469 1490 449 1483 m 771 1514 q 810 1417 779 1494 q 797 1381 817 1397 q 754 1354 778 1364 q 711 1346 732 1346 q 672 1365 681 1346 l 650 1422 l 633 1463 q 647 1501 626 1483 q 689 1525 667 1518 q 732 1535 715 1535 q 771 1514 764 1535 m 501 204 q 628 357 565 257 q 731 574 690 457 q 771 792 771 690 q 715 975 771 903 q 536 1061 658 1047 q 286 778 418 1038 q 174 390 174 556 q 188 281 174 332 q 249 179 206 214 q 351 144 293 144 q 501 204 429 144 m 733 1132 q 868 1003 824 1092 q 913 800 913 914 q 892 640 913 728 q 736 300 846 457 q 471 75 626 143 q 311 40 390 40 q 126 100 204 40 q 32 271 49 160 q 26 353 26 308 q 83 638 26 492 q 229 911 140 785 q 403 1090 301 1014 q 610 1165 506 1165 q 731 1133 672 1165 l 733 1132 z "},"Ȏ":{"ha":878,"x_min":26,"x_max":913,"o":"m 758 1506 q 869 1450 826 1499 q 911 1336 911 1401 q 901 1276 911 1304 q 863 1244 894 1258 q 801 1231 831 1231 q 772 1238 782 1231 q 765 1261 761 1246 q 771 1306 771 1279 q 756 1369 771 1342 q 711 1407 742 1396 q 693 1410 697 1410 q 650 1389 668 1410 q 622 1339 632 1368 q 583 1306 615 1319 q 521 1293 551 1293 q 491 1300 501 1293 q 485 1321 481 1307 q 581 1453 508 1400 q 738 1507 653 1507 l 758 1506 m 501 204 q 628 357 565 257 q 731 574 690 457 q 771 792 771 690 q 715 975 771 903 q 536 1061 658 1047 q 286 778 418 1038 q 174 390 174 556 q 188 281 174 332 q 249 179 206 214 q 351 144 293 144 q 501 204 429 144 m 733 1132 q 868 1003 824 1092 q 913 800 913 914 q 892 640 913 728 q 736 300 846 457 q 471 75 626 143 q 311 40 390 40 q 126 100 204 40 q 32 271 49 160 q 26 353 26 308 q 83 638 26 492 q 229 911 140 785 q 403 1090 301 1014 q 610 1165 506 1165 q 731 1133 672 1165 l 733 1132 z "},"Ȑ":{"ha":833,"x_min":3,"x_max":726,"o":"m 274 1493 q 317 1501 296 1501 q 358 1482 347 1501 q 440 1336 385 1433 q 428 1299 450 1318 q 385 1274 406 1281 q 343 1265 363 1265 q 301 1285 313 1265 l 274 1333 q 218 1431 226 1417 q 230 1467 207 1447 q 274 1493 253 1486 m 575 1517 q 614 1419 583 1497 q 601 1383 621 1400 q 558 1357 582 1367 q 515 1349 536 1349 q 476 1368 485 1349 l 454 1425 l 438 1465 q 451 1503 431 1486 q 493 1528 471 1521 q 536 1538 519 1538 q 575 1517 568 1538 m 725 886 q 493 611 710 707 q 600 458 579 565 q 608 347 608 415 q 606 226 608 307 l 604 174 q 643 69 604 79 q 675 43 675 63 q 638 -3 675 21 q 568 -26 600 -26 q 557 -25 561 -26 q 472 38 494 -11 q 450 161 450 86 q 453 235 450 188 q 456 296 456 279 q 448 415 457 364 q 407 501 439 465 q 292 550 367 546 q 244 540 279 547 l 160 94 q 117 49 154 68 q 44 31 81 31 q 14 39 25 31 q 6 63 3 47 q 94 519 58 338 q 54 543 54 518 q 72 580 54 558 q 111 611 89 601 l 179 972 q 193 1042 185 994 q 158 1036 175 1036 q 128 1044 139 1036 q 117 1065 117 1053 q 131 1094 117 1079 q 172 1121 146 1110 q 301 1154 226 1146 q 429 1163 372 1163 q 654 1104 582 1163 q 726 926 726 1046 q 725 886 726 900 m 572 828 q 581 881 581 857 q 510 1006 581 960 q 342 1058 439 1051 l 263 640 q 292 643 272 640 q 475 704 401 663 q 572 828 549 746 z "},"Ȓ":{"ha":722,"x_min":3,"x_max":726,"o":"m 501 1531 q 594 1513 553 1535 q 660 1450 636 1490 q 685 1361 685 1410 q 682 1331 685 1350 q 643 1288 679 1308 q 578 1267 607 1267 q 550 1292 549 1267 q 535 1378 554 1338 q 472 1425 515 1418 q 421 1404 439 1429 q 396 1343 403 1379 q 356 1300 393 1321 q 290 1279 319 1279 q 264 1301 263 1279 q 305 1410 271 1360 q 391 1494 339 1461 q 501 1531 443 1526 m 725 886 q 493 611 710 707 q 600 458 579 565 q 608 347 608 415 q 606 226 608 307 l 604 174 q 643 69 604 79 q 675 43 675 63 q 638 -3 675 21 q 568 -26 600 -26 q 557 -25 561 -26 q 472 38 494 -11 q 450 161 450 86 q 453 235 450 188 q 456 296 456 279 q 448 415 457 364 q 407 501 439 465 q 292 550 367 546 q 244 540 279 547 l 160 94 q 117 49 154 68 q 44 31 81 31 q 14 39 25 31 q 6 63 3 47 q 94 519 58 338 q 54 543 54 518 q 72 580 54 558 q 111 611 89 601 l 179 972 q 193 1042 185 994 q 158 1036 175 1036 q 128 1044 139 1036 q 117 1065 117 1053 q 131 1094 117 1079 q 172 1121 146 1110 q 301 1154 226 1146 q 429 1163 372 1163 q 654 1104 582 1163 q 726 926 726 1046 q 725 886 726 900 m 572 828 q 581 881 581 857 q 510 1006 581 960 q 342 1058 439 1051 l 263 640 q 292 643 272 640 q 475 704 401 663 q 572 828 549 746 z "},"Ȕ":{"ha":810,"x_min":15,"x_max":821,"o":"m 401 1476 q 444 1485 424 1485 q 486 1465 475 1485 q 568 1319 513 1417 q 556 1283 578 1301 q 513 1257 533 1264 q 471 1249 490 1249 q 429 1268 440 1249 l 401 1317 q 346 1414 354 1400 q 358 1450 335 1431 q 401 1476 381 1469 m 703 1500 q 742 1403 711 1481 q 729 1367 749 1383 q 686 1340 710 1350 q 643 1332 664 1332 q 604 1351 613 1332 l 582 1408 l 565 1449 q 578 1487 558 1469 q 621 1511 599 1504 q 664 1521 647 1521 q 703 1500 696 1521 m 675 1071 q 710 1115 676 1096 q 778 1133 744 1133 q 819 1101 821 1133 q 731 342 796 678 q 704 237 717 276 q 665 161 692 197 q 594 100 639 125 q 433 48 521 58 q 224 39 346 38 l 186 39 q 60 57 104 39 q 15 138 15 75 q 17 160 15 151 q 69 403 29 247 l 86 471 q 177 822 138 678 q 265 1106 217 967 q 303 1141 272 1126 q 363 1156 333 1156 q 394 1148 382 1156 q 407 1125 407 1140 q 404 1110 407 1121 q 260 599 344 925 q 193 317 214 418 q 169 206 178 250 q 167 182 167 186 q 182 151 167 158 q 238 143 197 144 l 271 142 q 372 138 317 138 q 550 192 511 138 q 584 278 574 225 q 601 404 594 331 l 608 464 q 675 1071 656 765 z "},"Ȗ":{"ha":810,"x_min":15,"x_max":821,"o":"m 661 1511 q 772 1457 729 1506 q 815 1344 815 1408 q 804 1283 815 1317 q 765 1250 797 1264 q 704 1236 733 1236 q 674 1244 685 1236 q 668 1267 664 1251 q 674 1313 674 1285 q 660 1375 674 1349 q 614 1413 646 1401 q 596 1415 603 1415 q 554 1394 572 1415 q 525 1344 536 1374 q 487 1312 519 1325 q 424 1299 454 1299 q 394 1306 404 1299 q 388 1326 383 1313 q 483 1459 411 1406 q 640 1513 556 1513 l 661 1511 m 675 1071 q 710 1115 676 1096 q 778 1133 744 1133 q 819 1101 821 1133 q 731 342 796 678 q 704 237 717 276 q 665 161 692 197 q 594 100 639 125 q 433 48 521 58 q 224 39 346 38 l 186 39 q 60 57 104 39 q 15 138 15 75 q 17 160 15 151 q 69 403 29 247 l 86 471 q 177 822 138 678 q 265 1106 217 967 q 303 1141 272 1126 q 363 1156 333 1156 q 394 1148 382 1156 q 407 1125 407 1140 q 404 1110 407 1121 q 260 599 344 925 q 193 317 214 418 q 169 206 178 250 q 167 182 167 186 q 182 151 167 158 q 238 143 197 144 l 271 142 q 372 138 317 138 q 550 192 511 138 q 584 278 574 225 q 601 404 594 331 l 608 464 q 675 1071 656 765 z "},"Ș":{"ha":833,"x_min":26,"x_max":814,"o":"m 346 -107 q 383 -76 354 -89 q 439 -62 411 -62 q 476 -87 476 -62 q 474 -103 476 -97 q 322 -304 426 -219 q 290 -322 308 -314 q 254 -329 271 -329 q 228 -324 239 -329 q 211 -300 211 -314 q 232 -262 211 -281 q 346 -107 307 -199 m 726 526 q 814 369 814 450 q 778 264 814 317 q 478 38 650 81 q 378 26 433 26 q 128 92 247 26 q 49 171 71 122 q 26 286 26 219 q 38 422 26 333 q 76 446 42 446 q 156 421 115 446 q 192 365 196 396 q 185 316 190 354 q 179 246 179 278 q 214 149 179 174 q 304 124 249 124 q 419 147 360 124 q 522 207 465 165 q 617 301 578 249 q 657 404 657 354 q 629 478 657 444 q 551 539 601 510 q 417 607 500 568 q 252 692 314 656 q 146 780 190 729 q 101 894 101 831 q 108 946 101 924 q 273 1126 142 1071 q 557 1181 404 1181 q 674 1172 624 1181 q 757 1136 724 1164 q 794 1050 794 1106 q 784 984 794 1017 q 753 896 774 951 q 735 850 738 858 q 689 826 726 826 q 615 847 651 826 q 579 894 579 868 q 581 906 579 901 l 601 965 q 621 1024 615 1004 l 631 1082 l 631 1082 q 351 1011 456 1085 q 287 947 310 983 q 264 872 264 910 q 329 760 264 807 q 434 697 376 726 q 504 661 492 668 q 634 593 585 621 q 726 526 683 565 z "},"Ț":{"ha":708,"x_min":3,"x_max":846,"o":"m 178 -147 q 215 -116 186 -129 q 271 -103 243 -103 q 308 -128 308 -103 q 306 -143 308 -137 q 154 -344 258 -260 q 122 -362 140 -354 q 86 -369 103 -369 q 60 -364 71 -369 q 43 -340 43 -354 q 64 -303 43 -321 q 178 -147 139 -239 m 815 1135 q 846 1115 846 1133 q 813 1069 846 1094 q 756 1043 781 1043 q 490 1036 636 1043 q 326 158 372 563 q 359 149 346 157 q 372 129 372 142 q 347 93 372 113 l 293 51 q 256 33 283 42 q 206 25 229 25 q 167 60 163 25 q 344 1021 215 517 l 343 1026 q 47 996 185 1013 q 14 1002 26 993 q 3 1031 1 1011 q 27 1063 4 1050 q 76 1082 50 1075 q 374 1135 210 1121 l 382 1158 q 421 1192 388 1178 q 486 1207 454 1207 q 519 1199 507 1207 q 526 1175 531 1190 l 518 1143 l 583 1144 q 815 1135 685 1144 z "},"Ȫ":{"ha":833,"x_min":26,"x_max":913,"o":"m 501 204 q 628 357 565 257 q 731 574 690 457 q 771 792 771 690 q 715 975 771 903 q 536 1061 658 1047 q 286 778 418 1038 q 174 390 174 556 q 188 281 174 332 q 249 179 206 214 q 351 144 293 144 q 501 204 429 144 m 733 1132 q 868 1003 824 1092 q 913 800 913 914 q 892 640 913 728 q 736 300 846 457 q 471 75 626 143 q 311 40 390 40 q 126 100 204 40 q 32 271 49 160 q 26 353 26 308 q 83 638 26 492 q 229 911 140 785 q 403 1090 301 1014 q 610 1165 506 1165 q 731 1133 672 1165 l 733 1132 m 465 1253 q 438 1281 443 1263 q 435 1297 435 1292 q 440 1322 435 1306 q 476 1358 450 1342 q 522 1374 499 1371 l 533 1374 q 565 1369 549 1374 q 576 1361 571 1368 q 582 1347 581 1354 q 581 1335 582 1339 q 581 1334 581 1335 q 582 1333 581 1333 q 594 1311 594 1325 q 572 1275 594 1290 q 496 1246 529 1246 q 465 1253 482 1246 m 833 1339 q 839 1326 836 1335 q 819 1281 840 1304 q 780 1257 803 1265 q 733 1249 757 1249 q 679 1267 701 1246 q 663 1306 665 1281 q 674 1331 663 1318 q 700 1351 686 1343 l 725 1364 q 751 1378 729 1367 q 774 1383 760 1381 q 793 1385 779 1385 q 833 1368 824 1385 q 838 1354 838 1363 q 833 1339 838 1347 m 524 1494 q 497 1501 506 1493 q 488 1522 488 1508 q 492 1543 488 1531 q 528 1580 504 1565 q 579 1597 553 1594 l 672 1606 q 854 1621 771 1617 q 879 1615 869 1622 q 889 1594 889 1607 q 883 1572 889 1589 q 849 1535 874 1550 q 797 1518 824 1521 q 524 1494 710 1508 z "},"Ȭ":{"ha":833,"x_min":26,"x_max":939,"o":"m 501 204 q 628 357 565 257 q 731 574 690 457 q 771 792 771 690 q 715 975 771 903 q 536 1061 658 1047 q 286 778 418 1038 q 174 390 174 556 q 188 281 174 332 q 249 179 206 214 q 351 144 293 144 q 501 204 429 144 m 733 1132 q 868 1003 824 1092 q 913 800 913 914 q 892 640 913 728 q 736 300 846 457 q 471 75 626 143 q 311 40 390 40 q 126 100 204 40 q 32 271 49 160 q 26 353 26 308 q 83 638 26 492 q 229 911 140 785 q 403 1090 301 1014 q 610 1165 506 1165 q 731 1133 672 1165 l 733 1132 m 831 1299 q 783 1293 810 1293 q 700 1308 742 1293 q 636 1344 678 1317 q 597 1374 614 1363 q 579 1369 581 1385 q 551 1334 578 1347 q 492 1321 524 1321 q 449 1330 465 1321 q 433 1354 432 1339 q 493 1443 440 1413 q 608 1469 546 1474 q 726 1425 664 1465 q 749 1407 733 1419 q 778 1389 765 1394 l 786 1388 q 789 1396 789 1393 q 782 1408 789 1404 q 775 1425 775 1418 q 801 1454 775 1443 q 858 1465 826 1465 q 918 1446 903 1465 q 935 1406 935 1428 q 901 1341 935 1372 q 831 1299 867 1310 m 565 1635 q 540 1642 549 1635 q 532 1661 532 1649 q 539 1685 532 1671 q 578 1718 553 1706 q 631 1732 604 1731 l 814 1733 q 906 1732 875 1733 q 930 1724 921 1732 q 939 1704 939 1717 q 931 1681 939 1693 q 892 1647 918 1660 q 840 1633 867 1635 l 760 1633 q 565 1635 631 1633 z "},"Ȱ":{"ha":833,"x_min":26,"x_max":969,"o":"m 501 204 q 628 357 565 257 q 731 574 690 457 q 771 792 771 690 q 715 975 771 903 q 536 1061 658 1047 q 286 778 418 1038 q 174 390 174 556 q 188 281 174 332 q 249 179 206 214 q 351 144 293 144 q 501 204 429 144 m 733 1132 q 868 1003 824 1092 q 913 800 913 914 q 892 640 913 728 q 736 300 846 457 q 471 75 626 143 q 311 40 390 40 q 126 100 204 40 q 32 271 49 160 q 26 353 26 308 q 83 638 26 492 q 229 911 140 785 q 403 1090 301 1014 q 610 1165 506 1165 q 731 1133 672 1165 l 733 1132 m 726 1421 q 765 1412 747 1421 q 788 1385 782 1403 q 789 1374 789 1381 q 776 1342 789 1357 q 758 1326 771 1333 q 704 1282 750 1300 q 664 1274 679 1274 l 653 1275 q 635 1282 644 1276 q 624 1294 625 1288 q 618 1329 618 1310 q 624 1360 618 1347 q 666 1403 636 1386 q 726 1421 696 1419 m 604 1575 q 577 1581 586 1574 q 568 1603 568 1589 q 572 1624 568 1611 q 609 1660 585 1646 q 660 1678 633 1675 l 753 1686 q 935 1701 851 1697 q 960 1695 950 1703 q 969 1675 969 1688 q 964 1653 969 1669 q 929 1616 954 1631 q 878 1599 904 1601 q 604 1575 790 1589 z "},"Ȳ":{"ha":851,"x_min":-44,"x_max":819,"o":"m 792 1053 q 813 855 806 929 q 819 700 819 781 q 675 211 819 376 q 491 68 594 119 q 282 17 388 17 q 112 56 193 17 q -36 172 31 94 q -44 193 -44 183 q -9 240 -44 218 q 61 261 26 261 q 99 247 86 261 q 324 117 207 117 q 429 144 378 117 q 534 222 488 174 q 607 331 581 271 q 669 689 669 472 q 548 564 618 610 q 393 518 478 518 q 250 581 293 518 q 207 746 207 643 q 227 919 207 832 q 281 1115 247 1006 q 326 1156 288 1138 q 396 1174 364 1174 q 423 1167 414 1174 q 428 1147 432 1160 l 419 1114 q 389 997 404 1057 q 365 883 374 936 q 354 765 354 806 q 408 629 354 658 q 443 619 426 619 q 545 710 500 619 q 615 915 590 801 q 636 1078 639 1029 q 667 1124 635 1104 q 733 1143 699 1143 q 783 1107 779 1143 l 783 1097 l 788 1085 l 792 1053 m 422 1404 q 394 1408 404 1401 q 385 1431 385 1415 q 388 1449 385 1435 q 421 1489 397 1472 q 469 1511 444 1506 l 561 1528 q 740 1558 681 1550 q 767 1553 757 1561 q 778 1531 778 1546 q 774 1513 778 1524 q 742 1472 765 1489 q 693 1450 719 1456 q 422 1404 569 1426 z "},"Ạ":{"ha":833,"x_min":-126,"x_max":747,"o":"m 331 561 q 510 575 428 575 l 496 899 q 401 707 463 839 q 331 561 349 594 m 746 64 q 735 24 751 43 q 690 -6 718 6 q 636 -18 661 -18 q 590 7 596 -18 q 517 479 540 206 q 268 456 392 481 q 25 54 138 238 q -22 22 14 35 q -87 8 -57 8 q -126 29 -126 8 q -121 47 -126 38 q 85 403 -10 242 l 61 394 q 21 386 39 386 q -8 394 3 386 q -18 415 -18 403 q -5 444 -18 429 q 33 469 8 458 q 150 515 99 499 q 310 808 225 644 q 474 1101 407 996 q 485 1113 478 1107 l 483 1119 q 519 1165 483 1144 q 590 1185 554 1185 q 636 1151 635 1185 l 640 1058 q 673 495 653 724 q 746 64 693 267 m 354 -103 q 403 -135 390 -107 q 404 -143 404 -137 q 393 -171 404 -157 q 358 -196 382 -185 q 316 -226 340 -215 q 265 -236 292 -236 q 217 -214 231 -239 q 213 -192 213 -207 q 232 -151 213 -174 l 242 -143 q 274 -115 249 -131 q 331 -99 300 -99 q 354 -103 344 -99 z "},"Ả":{"ha":833,"x_min":-126,"x_max":765,"o":"m 331 561 q 510 575 428 575 l 496 899 q 401 707 463 839 q 331 561 349 594 m 746 64 q 735 24 751 43 q 690 -6 718 6 q 636 -18 661 -18 q 590 7 596 -18 q 517 479 540 206 q 268 456 392 481 q 25 54 138 238 q -22 22 14 35 q -87 8 -57 8 q -126 29 -126 8 q -121 47 -126 38 q 85 403 -10 242 l 61 394 q 21 386 39 386 q -8 394 3 386 q -18 415 -18 403 q -5 444 -18 429 q 33 469 8 458 q 150 515 99 499 q 310 808 225 644 q 474 1101 407 996 q 485 1113 478 1107 l 483 1119 q 519 1165 483 1144 q 590 1185 554 1185 q 636 1151 635 1185 l 640 1058 q 673 495 653 724 q 746 64 693 267 m 519 1389 q 579 1429 543 1414 q 651 1444 615 1444 q 742 1406 708 1444 q 765 1347 765 1376 q 753 1311 765 1328 q 719 1284 742 1297 q 690 1267 697 1271 q 626 1233 649 1242 q 585 1226 608 1226 q 551 1236 563 1226 q 544 1253 544 1246 q 567 1289 544 1269 q 625 1329 581 1300 q 610 1349 621 1342 l 599 1354 l 594 1356 l 592 1356 q 581 1351 586 1356 q 547 1343 568 1343 q 518 1350 528 1343 q 507 1365 507 1357 q 519 1389 507 1376 z "},"Ấ":{"ha":833,"x_min":-126,"x_max":1032,"o":"m 331 561 q 510 575 428 575 l 496 899 q 401 707 463 839 q 331 561 349 594 m 746 64 q 735 24 751 43 q 690 -6 718 6 q 636 -18 661 -18 q 590 7 596 -18 q 517 479 540 206 q 268 456 392 481 q 25 54 138 238 q -22 22 14 35 q -87 8 -57 8 q -126 29 -126 8 q -121 47 -126 38 q 85 403 -10 242 l 61 394 q 21 386 39 386 q -8 394 3 386 q -18 415 -18 403 q -5 444 -18 429 q 33 469 8 458 q 150 515 99 499 q 310 808 225 644 q 474 1101 407 996 q 485 1113 478 1107 l 483 1119 q 519 1165 483 1144 q 590 1185 554 1185 q 636 1151 635 1185 l 640 1058 q 673 495 653 724 q 746 64 693 267 m 558 1485 q 597 1511 571 1499 q 646 1524 624 1524 q 681 1508 669 1524 l 832 1306 q 839 1286 839 1294 q 806 1243 839 1263 q 742 1224 774 1224 q 707 1236 715 1224 q 600 1379 635 1331 l 508 1282 q 471 1255 493 1265 q 426 1244 449 1244 q 410 1246 415 1244 q 379 1276 379 1253 q 389 1300 379 1289 q 558 1485 444 1363 m 767 1538 q 749 1560 749 1546 q 772 1599 749 1578 q 915 1729 842 1664 q 948 1748 928 1740 q 986 1756 968 1756 q 1014 1750 1003 1756 q 1032 1726 1032 1742 q 1010 1688 1032 1707 q 867 1558 960 1640 q 834 1540 854 1547 q 794 1532 814 1532 q 767 1538 778 1532 z "},"Ầ":{"ha":833,"x_min":-126,"x_max":950,"o":"m 331 561 q 510 575 428 575 l 496 899 q 401 707 463 839 q 331 561 349 594 m 746 64 q 735 24 751 43 q 690 -6 718 6 q 636 -18 661 -18 q 590 7 596 -18 q 517 479 540 206 q 268 456 392 481 q 25 54 138 238 q -22 22 14 35 q -87 8 -57 8 q -126 29 -126 8 q -121 47 -126 38 q 85 403 -10 242 l 61 394 q 21 386 39 386 q -8 394 3 386 q -18 415 -18 403 q -5 444 -18 429 q 33 469 8 458 q 150 515 99 499 q 310 808 225 644 q 474 1101 407 996 q 485 1113 478 1107 l 483 1119 q 519 1165 483 1144 q 590 1185 554 1185 q 636 1151 635 1185 l 640 1058 q 673 495 653 724 q 746 64 693 267 m 561 1499 q 600 1525 574 1513 q 649 1538 626 1538 q 683 1522 672 1538 l 835 1319 q 842 1300 842 1308 q 809 1257 842 1276 q 744 1238 776 1238 q 710 1250 718 1238 q 603 1393 638 1344 l 511 1296 q 474 1269 496 1279 q 429 1258 451 1258 q 413 1260 418 1258 q 382 1290 382 1267 q 392 1314 382 1303 q 561 1499 447 1376 m 635 1800 q 626 1822 626 1811 q 660 1869 626 1847 q 729 1890 694 1890 q 768 1875 757 1890 q 829 1800 810 1825 l 942 1664 q 950 1643 950 1654 q 915 1596 950 1618 q 846 1574 881 1574 q 807 1589 819 1574 l 635 1800 z "},"Ẩ":{"ha":833,"x_min":-126,"x_max":1006,"o":"m 331 561 q 510 575 428 575 l 496 899 q 401 707 463 839 q 331 561 349 594 m 746 64 q 735 24 751 43 q 690 -6 718 6 q 636 -18 661 -18 q 590 7 596 -18 q 517 479 540 206 q 268 456 392 481 q 25 54 138 238 q -22 22 14 35 q -87 8 -57 8 q -126 29 -126 8 q -121 47 -126 38 q 85 403 -10 242 l 61 394 q 21 386 39 386 q -8 394 3 386 q -18 415 -18 403 q -5 444 -18 429 q 33 469 8 458 q 150 515 99 499 q 310 808 225 644 q 474 1101 407 996 q 485 1113 478 1107 l 483 1119 q 519 1165 483 1144 q 590 1185 554 1185 q 636 1151 635 1185 l 640 1058 q 673 495 653 724 q 746 64 693 267 m 586 1531 q 625 1557 599 1544 q 674 1569 651 1569 q 708 1554 697 1569 l 860 1351 q 867 1332 867 1340 q 834 1289 867 1308 q 769 1269 801 1269 q 735 1282 743 1269 q 628 1425 663 1376 l 536 1328 q 499 1301 521 1311 q 454 1290 476 1290 q 438 1292 443 1290 q 407 1322 407 1299 q 417 1346 407 1335 q 586 1531 472 1408 m 760 1751 q 819 1792 783 1776 q 892 1807 856 1807 q 982 1768 949 1807 q 1006 1710 1006 1739 q 993 1674 1006 1690 q 960 1647 982 1660 q 931 1629 938 1633 q 867 1596 889 1604 q 825 1589 849 1589 q 792 1599 803 1589 q 785 1615 785 1608 q 807 1651 785 1632 q 865 1692 821 1663 q 850 1711 861 1704 l 839 1717 l 835 1718 l 832 1718 q 821 1714 826 1718 q 788 1706 808 1706 q 758 1713 768 1706 q 747 1728 747 1719 q 760 1751 747 1739 z "},"Ẫ":{"ha":833,"x_min":-126,"x_max":936,"o":"m 331 561 q 510 575 428 575 l 496 899 q 401 707 463 839 q 331 561 349 594 m 746 64 q 735 24 751 43 q 690 -6 718 6 q 636 -18 661 -18 q 590 7 596 -18 q 517 479 540 206 q 268 456 392 481 q 25 54 138 238 q -22 22 14 35 q -87 8 -57 8 q -126 29 -126 8 q -121 47 -126 38 q 85 403 -10 242 l 61 394 q 21 386 39 386 q -8 394 3 386 q -18 415 -18 403 q -5 444 -18 429 q 33 469 8 458 q 150 515 99 499 q 310 808 225 644 q 474 1101 407 996 q 485 1113 478 1107 l 483 1119 q 519 1165 483 1144 q 590 1185 554 1185 q 636 1151 635 1185 l 640 1058 q 673 495 653 724 q 746 64 693 267 m 561 1504 q 600 1531 574 1518 q 649 1543 626 1543 q 683 1528 672 1543 l 835 1325 q 842 1306 842 1314 q 809 1263 842 1282 q 744 1243 776 1243 q 710 1256 718 1243 q 603 1399 638 1350 l 511 1301 q 474 1274 496 1285 q 429 1264 451 1264 q 413 1265 418 1264 q 382 1296 382 1272 q 392 1319 382 1308 q 561 1504 447 1382 m 832 1607 q 785 1601 811 1601 q 701 1617 743 1601 q 638 1653 679 1625 q 599 1682 615 1671 q 581 1678 582 1693 q 552 1642 579 1656 q 493 1629 525 1629 q 450 1638 467 1629 q 435 1663 433 1647 q 494 1751 442 1721 q 610 1778 547 1782 q 728 1733 665 1774 q 751 1715 735 1728 q 779 1697 767 1703 l 788 1696 q 790 1704 790 1701 q 783 1717 790 1713 q 776 1733 776 1726 q 802 1763 776 1751 q 860 1774 828 1774 q 919 1754 904 1774 q 936 1714 936 1736 q 902 1649 936 1681 q 832 1607 868 1618 z "},"Ậ":{"ha":833,"x_min":-126,"x_max":833,"o":"m 331 561 q 510 575 428 575 l 496 899 q 401 707 463 839 q 331 561 349 594 m 746 64 q 735 24 751 43 q 690 -6 718 6 q 636 -18 661 -18 q 590 7 596 -18 q 517 479 540 206 q 268 456 392 481 q 25 54 138 238 q -22 22 14 35 q -87 8 -57 8 q -126 29 -126 8 q -121 47 -126 38 q 85 403 -10 242 l 61 394 q 21 386 39 386 q -8 394 3 386 q -18 415 -18 403 q -5 444 -18 429 q 33 469 8 458 q 150 515 99 499 q 310 808 225 644 q 474 1101 407 996 q 485 1113 478 1107 l 483 1119 q 519 1165 483 1144 q 590 1185 554 1185 q 636 1151 635 1185 l 640 1058 q 673 495 653 724 q 746 64 693 267 m 351 -74 q 400 -106 388 -78 q 401 -114 401 -108 q 390 -142 401 -128 q 356 -167 379 -156 q 313 -197 338 -186 q 263 -207 289 -207 q 214 -185 228 -210 q 210 -162 210 -178 q 229 -122 210 -144 l 239 -114 q 271 -86 246 -101 q 328 -69 297 -69 q 351 -74 342 -69 m 553 1507 q 592 1533 565 1521 q 640 1546 618 1546 q 675 1531 664 1546 l 826 1328 q 833 1308 833 1317 q 801 1265 833 1285 q 736 1246 768 1246 q 701 1258 710 1246 q 594 1401 629 1353 l 503 1304 q 465 1277 488 1288 q 421 1267 443 1267 q 404 1268 410 1267 q 374 1299 374 1275 q 383 1322 374 1311 q 553 1507 439 1385 z "},"Ắ":{"ha":833,"x_min":-126,"x_max":879,"o":"m 331 561 q 510 575 428 575 l 496 899 q 401 707 463 839 q 331 561 349 594 m 746 64 q 735 24 751 43 q 690 -6 718 6 q 636 -18 661 -18 q 590 7 596 -18 q 517 479 540 206 q 268 456 392 481 q 25 54 138 238 q -22 22 14 35 q -87 8 -57 8 q -126 29 -126 8 q -121 47 -126 38 q 85 403 -10 242 l 61 394 q 21 386 39 386 q -8 394 3 386 q -18 415 -18 403 q -5 444 -18 429 q 33 469 8 458 q 150 515 99 499 q 310 808 225 644 q 474 1101 407 996 q 485 1113 478 1107 l 483 1119 q 519 1165 483 1144 q 590 1185 554 1185 q 636 1151 635 1185 l 640 1058 q 673 495 653 724 q 746 64 693 267 m 704 1472 q 735 1507 708 1493 q 792 1521 763 1521 q 833 1510 817 1521 q 846 1478 849 1499 q 797 1378 838 1422 q 700 1311 757 1335 q 585 1288 643 1288 q 460 1327 511 1288 q 401 1444 408 1367 q 429 1485 400 1469 q 493 1501 458 1501 q 529 1494 515 1501 q 544 1472 543 1488 q 570 1405 549 1436 q 626 1375 592 1374 q 677 1408 657 1376 q 704 1472 697 1439 m 614 1593 q 596 1615 596 1601 q 619 1654 596 1633 q 763 1785 689 1719 q 795 1803 775 1796 q 833 1811 815 1811 q 861 1806 850 1811 q 879 1782 879 1797 q 857 1743 879 1763 q 714 1614 807 1696 q 681 1595 701 1603 q 642 1588 661 1588 q 614 1593 625 1588 z "},"Ằ":{"ha":833,"x_min":-126,"x_max":879,"o":"m 331 561 q 510 575 428 575 l 496 899 q 401 707 463 839 q 331 561 349 594 m 746 64 q 735 24 751 43 q 690 -6 718 6 q 636 -18 661 -18 q 590 7 596 -18 q 517 479 540 206 q 268 456 392 481 q 25 54 138 238 q -22 22 14 35 q -87 8 -57 8 q -126 29 -126 8 q -121 47 -126 38 q 85 403 -10 242 l 61 394 q 21 386 39 386 q -8 394 3 386 q -18 415 -18 403 q -5 444 -18 429 q 33 469 8 458 q 150 515 99 499 q 310 808 225 644 q 474 1101 407 996 q 485 1113 478 1107 l 483 1119 q 519 1165 483 1144 q 590 1185 554 1185 q 636 1151 635 1185 l 640 1058 q 673 495 653 724 q 746 64 693 267 m 738 1461 q 769 1496 742 1482 q 825 1510 796 1510 q 866 1499 850 1510 q 879 1467 882 1488 q 831 1367 871 1411 q 733 1300 790 1324 q 618 1276 676 1276 q 493 1316 544 1276 q 435 1433 442 1356 q 463 1474 433 1458 q 526 1490 492 1490 q 563 1483 549 1490 q 578 1461 576 1476 q 603 1394 582 1425 q 660 1364 625 1363 q 710 1397 690 1365 q 738 1461 731 1428 m 482 1799 q 474 1821 474 1810 q 508 1867 474 1846 q 576 1889 542 1889 q 615 1874 604 1889 q 676 1799 657 1824 l 789 1663 q 797 1642 797 1653 q 763 1594 797 1617 q 693 1572 728 1572 q 654 1588 667 1572 l 482 1799 z "},"Ẳ":{"ha":833,"x_min":-126,"x_max":876,"o":"m 331 561 q 510 575 428 575 l 496 899 q 401 707 463 839 q 331 561 349 594 m 746 64 q 735 24 751 43 q 690 -6 718 6 q 636 -18 661 -18 q 590 7 596 -18 q 517 479 540 206 q 268 456 392 481 q 25 54 138 238 q -22 22 14 35 q -87 8 -57 8 q -126 29 -126 8 q -121 47 -126 38 q 85 403 -10 242 l 61 394 q 21 386 39 386 q -8 394 3 386 q -18 415 -18 403 q -5 444 -18 429 q 33 469 8 458 q 150 515 99 499 q 310 808 225 644 q 474 1101 407 996 q 485 1113 478 1107 l 483 1119 q 519 1165 483 1144 q 590 1185 554 1185 q 636 1151 635 1185 l 640 1058 q 673 495 653 724 q 746 64 693 267 m 735 1532 q 766 1567 739 1553 q 822 1581 793 1581 q 863 1569 847 1581 q 876 1538 879 1558 q 828 1438 868 1482 q 731 1371 788 1394 q 615 1347 674 1347 q 490 1387 542 1347 q 432 1504 439 1426 q 460 1545 431 1529 q 524 1561 489 1561 q 560 1554 546 1561 q 575 1532 574 1547 q 601 1465 579 1496 q 657 1435 622 1433 q 708 1467 688 1436 q 735 1532 728 1499 m 621 1786 q 681 1826 644 1811 q 753 1842 717 1842 q 843 1803 810 1842 q 867 1744 867 1774 q 854 1708 867 1725 q 821 1681 843 1694 q 792 1664 799 1668 q 728 1631 750 1639 q 686 1624 710 1624 q 653 1633 664 1624 q 646 1650 646 1643 q 668 1686 646 1667 q 726 1726 682 1697 q 711 1746 722 1739 l 700 1751 l 696 1753 l 693 1753 q 682 1749 688 1753 q 649 1740 669 1740 q 619 1747 629 1740 q 608 1763 608 1754 q 621 1786 608 1774 z "},"Ẵ":{"ha":833,"x_min":-126,"x_max":968,"o":"m 331 561 q 510 575 428 575 l 496 899 q 401 707 463 839 q 331 561 349 594 m 746 64 q 735 24 751 43 q 690 -6 718 6 q 636 -18 661 -18 q 590 7 596 -18 q 517 479 540 206 q 268 456 392 481 q 25 54 138 238 q -22 22 14 35 q -87 8 -57 8 q -126 29 -126 8 q -121 47 -126 38 q 85 403 -10 242 l 61 394 q 21 386 39 386 q -8 394 3 386 q -18 415 -18 403 q -5 444 -18 429 q 33 469 8 458 q 150 515 99 499 q 310 808 225 644 q 474 1101 407 996 q 485 1113 478 1107 l 483 1119 q 519 1165 483 1144 q 590 1185 554 1185 q 636 1151 635 1185 l 640 1058 q 673 495 653 724 q 746 64 693 267 m 715 1483 q 747 1518 719 1504 q 803 1532 774 1532 q 844 1521 828 1532 q 857 1489 860 1510 q 808 1390 849 1433 q 711 1322 768 1346 q 596 1299 654 1299 q 471 1338 522 1299 q 413 1456 419 1378 q 440 1497 411 1481 q 504 1513 469 1513 q 540 1506 526 1513 q 556 1483 554 1499 q 581 1416 560 1447 q 638 1386 603 1385 q 688 1419 668 1388 q 715 1483 708 1450 m 864 1663 q 817 1657 843 1657 q 733 1672 775 1657 q 669 1708 711 1681 q 631 1738 647 1726 q 613 1733 614 1749 q 584 1698 611 1711 q 525 1685 557 1685 q 482 1694 499 1685 q 467 1718 465 1703 q 526 1807 474 1776 q 642 1833 579 1838 q 760 1789 697 1829 q 783 1771 767 1783 q 811 1753 799 1758 l 819 1751 q 822 1760 822 1757 q 815 1772 822 1768 q 808 1789 808 1782 q 834 1818 808 1807 q 892 1829 860 1829 q 951 1810 936 1829 q 968 1769 968 1792 q 934 1705 968 1736 q 864 1663 900 1674 z "},"Ặ":{"ha":833,"x_min":-126,"x_max":858,"o":"m 331 561 q 510 575 428 575 l 496 899 q 401 707 463 839 q 331 561 349 594 m 746 64 q 735 24 751 43 q 690 -6 718 6 q 636 -18 661 -18 q 590 7 596 -18 q 517 479 540 206 q 268 456 392 481 q 25 54 138 238 q -22 22 14 35 q -87 8 -57 8 q -126 29 -126 8 q -121 47 -126 38 q 85 403 -10 242 l 61 394 q 21 386 39 386 q -8 394 3 386 q -18 415 -18 403 q -5 444 -18 429 q 33 469 8 458 q 150 515 99 499 q 310 808 225 644 q 474 1101 407 996 q 485 1113 478 1107 l 483 1119 q 519 1165 483 1144 q 590 1185 554 1185 q 636 1151 635 1185 l 640 1058 q 673 495 653 724 q 746 64 693 267 m 368 -86 q 417 -118 404 -90 q 418 -126 418 -121 q 407 -154 418 -140 q 372 -179 396 -168 q 330 -209 354 -199 q 279 -219 306 -219 q 231 -197 244 -222 q 226 -175 226 -190 q 246 -135 226 -157 l 256 -126 q 288 -99 263 -114 q 344 -82 314 -82 q 368 -86 358 -82 m 717 1496 q 748 1531 721 1517 q 804 1544 775 1544 q 845 1533 829 1544 q 858 1501 861 1522 q 810 1402 850 1446 q 713 1335 769 1358 q 597 1311 656 1311 q 472 1351 524 1311 q 414 1468 421 1390 q 442 1509 413 1493 q 506 1525 471 1525 q 542 1518 528 1525 q 557 1496 556 1511 q 583 1428 561 1460 q 639 1399 604 1397 q 690 1431 669 1400 q 717 1496 710 1463 z "},"Ẹ":{"ha":833,"x_min":-19,"x_max":947,"o":"m 915 1142 q 947 1118 947 1136 q 928 1087 947 1104 q 883 1058 908 1069 q 839 1050 857 1047 q 697 1060 772 1060 q 396 1022 565 1060 q 294 644 344 850 q 578 681 456 681 q 631 679 613 681 q 660 653 660 678 q 630 608 660 625 q 568 590 600 592 q 272 549 419 578 q 196 179 232 379 q 472 186 349 186 q 774 171 636 186 q 803 143 803 167 q 794 115 803 131 q 752 85 781 94 q 696 79 724 76 q 503 86 615 86 q 315 82 410 86 q 174 79 221 79 q 127 46 160 60 q 67 32 94 32 q 35 40 46 32 q 26 64 24 49 q 29 79 26 68 l 26 79 q -19 103 -19 79 q 0 136 -19 118 q 44 165 19 154 q 133 599 88 400 q 240 983 179 799 l 229 982 q 203 990 213 982 q 194 1011 194 999 q 208 1044 194 1028 q 246 1069 222 1061 l 272 1078 l 279 1096 q 317 1131 286 1117 q 378 1146 347 1146 q 422 1119 418 1146 q 729 1158 588 1158 q 915 1142 824 1158 m 447 -86 q 496 -118 483 -90 q 497 -126 497 -121 q 486 -154 497 -140 q 451 -179 475 -168 q 409 -209 433 -199 q 358 -219 385 -219 q 310 -197 324 -222 q 306 -175 306 -190 q 325 -135 306 -157 l 335 -126 q 367 -99 342 -114 q 424 -82 393 -82 q 447 -86 438 -82 z "},"Ẻ":{"ha":833,"x_min":-19,"x_max":947,"o":"m 915 1142 q 947 1118 947 1136 q 928 1087 947 1104 q 883 1058 908 1069 q 839 1050 857 1047 q 697 1060 772 1060 q 396 1022 565 1060 q 294 644 344 850 q 578 681 456 681 q 631 679 613 681 q 660 653 660 678 q 630 608 660 625 q 568 590 600 592 q 272 549 419 578 q 196 179 232 379 q 472 186 349 186 q 774 171 636 186 q 803 143 803 167 q 794 115 803 131 q 752 85 781 94 q 696 79 724 76 q 503 86 615 86 q 315 82 410 86 q 174 79 221 79 q 127 46 160 60 q 67 32 94 32 q 35 40 46 32 q 26 64 24 49 q 29 79 26 68 l 26 79 q -19 103 -19 79 q 0 136 -19 118 q 44 165 19 154 q 133 599 88 400 q 240 983 179 799 l 229 982 q 203 990 213 982 q 194 1011 194 999 q 208 1044 194 1028 q 246 1069 222 1061 l 272 1078 l 279 1096 q 317 1131 286 1117 q 378 1146 347 1146 q 422 1119 418 1146 q 729 1158 588 1158 q 915 1142 824 1158 m 546 1350 q 606 1390 569 1375 q 678 1406 642 1406 q 768 1367 735 1406 q 792 1308 792 1338 q 779 1272 792 1289 q 746 1245 768 1258 q 717 1228 724 1232 q 653 1194 675 1203 q 611 1188 635 1188 q 578 1197 589 1188 q 571 1214 571 1207 q 593 1250 571 1231 q 651 1290 607 1261 q 636 1310 647 1303 l 625 1315 l 621 1317 l 618 1317 q 607 1313 613 1317 q 574 1304 594 1304 q 544 1311 554 1304 q 533 1326 533 1318 q 546 1350 533 1338 z "},"Ẽ":{"ha":879,"x_min":-19,"x_max":947,"o":"m 915 1142 q 947 1118 947 1136 q 928 1087 947 1104 q 883 1058 908 1069 q 839 1050 857 1047 q 697 1060 772 1060 q 396 1022 565 1060 q 294 644 344 850 q 578 681 456 681 q 631 679 613 681 q 660 653 660 678 q 630 608 660 625 q 568 590 600 592 q 272 549 419 578 q 196 179 232 379 q 472 186 349 186 q 774 171 636 186 q 803 143 803 167 q 794 115 803 131 q 752 85 781 94 q 696 79 724 76 q 503 86 615 86 q 315 82 410 86 q 174 79 221 79 q 127 46 160 60 q 67 32 94 32 q 35 40 46 32 q 26 64 24 49 q 29 79 26 68 l 26 79 q -19 103 -19 79 q 0 136 -19 118 q 44 165 19 154 q 133 599 88 400 q 240 983 179 799 l 229 982 q 203 990 213 982 q 194 1011 194 999 q 208 1044 194 1028 q 246 1069 222 1061 l 272 1078 l 279 1096 q 317 1131 286 1117 q 378 1146 347 1146 q 422 1119 418 1146 q 729 1158 588 1158 q 915 1142 824 1158 m 799 1278 q 731 1268 768 1268 q 667 1276 699 1268 q 600 1307 639 1285 q 563 1331 585 1319 q 542 1326 542 1342 q 511 1286 542 1301 q 446 1271 481 1271 q 411 1278 425 1271 q 397 1299 397 1285 q 449 1392 399 1357 q 563 1429 499 1428 q 683 1396 615 1431 q 708 1379 692 1390 q 738 1364 725 1368 l 746 1363 q 749 1371 749 1368 q 740 1383 749 1379 q 732 1401 732 1394 q 761 1434 732 1421 q 824 1447 790 1447 q 872 1433 858 1447 q 892 1389 892 1414 q 862 1323 892 1356 q 799 1278 832 1290 z "}}}
